# Blender 4.2.1 LTS
# www.blender.org
mtllib birds.mtl
o Birds
v -1.524666 -2.027538 3.557647
v -1.534573 -2.060441 3.609575
v -1.479723 -2.022113 3.550022
v -1.535808 -1.983435 3.563829
v -1.450297 -2.006954 3.627080
v -1.506382 -1.968276 3.640888
v -1.566371 -2.048129 3.445926
v -1.833636 -1.961975 3.577928
v -1.778689 -1.981485 3.696672
v -1.820111 -1.942158 3.577351
v -1.366022 -2.284461 3.462804
v -1.352498 -2.264644 3.462227
v -1.362068 -2.268805 3.594102
v -2.103377 -2.014515 3.920980
v -1.221806 -2.622484 3.703942
v -1.540552 -2.065549 3.774576
v -1.484468 -2.104227 3.760769
v -1.491016 -2.053394 3.766756
v -1.447896 -2.175354 3.824901
v -1.594898 -2.073975 3.861093
v -0.387919 -1.703974 2.336097
v -0.417041 -1.752192 2.362635
v -0.348987 -1.694105 2.358330
v -0.410409 -1.664783 2.344202
v -0.371625 -1.702848 2.438609
v -0.433048 -1.673526 2.424481
v -0.354651 -1.689938 2.220594
v -0.625345 -1.543292 2.275970
v -0.642680 -1.596840 2.395687
v -0.618766 -1.523662 2.288109
v -0.113223 -1.787768 2.393766
v -0.106644 -1.768139 2.405904
v -0.186405 -1.814657 2.500637
v -0.940528 -1.495072 2.484097
v 0.024953 -1.955972 2.706171
v -0.512064 -1.809996 2.484769
v -0.450641 -1.839318 2.498898
v -0.470897 -1.793460 2.511124
v -0.440541 -1.925222 2.553925
v -0.601535 -1.848366 2.516894
v 0.034017 -1.840043 0.621352
v 0.044273 -1.875078 0.671796
v 0.043409 -1.795923 0.629872
v -0.010963 -1.835884 0.613172
v 0.012162 -1.785648 0.707019
v -0.042210 -1.825609 0.690319
v 0.078312 -1.853590 0.509552
v -0.209571 -1.974312 0.529471
v -0.216288 -1.965283 0.661279
v -0.223810 -1.954994 0.529607
v 0.243765 -1.641126 0.668708
v 0.229526 -1.621809 0.668844
v 0.187612 -1.668431 0.785333
v -0.497159 -2.115311 0.735369
v 0.357496 -1.487172 0.997867
v -0.006682 -1.928033 0.819738
v 0.047691 -1.888072 0.836437
v -0.002126 -1.877352 0.828304
v 0.100864 -1.898764 0.923430
v -0.041650 -2.003507 0.879659
v 0.664348 -0.998530 -0.414849
v 0.664348 -1.032531 -0.362684
v 0.699105 -0.968541 -0.414850
v 0.629591 -0.968541 -0.414849
v 0.699105 -0.941293 -0.335532
v 0.629591 -0.941293 -0.335532
v 0.664348 -1.036350 -0.529804
v 0.374558 -1.118998 -0.455855
v 0.406159 -1.106998 -0.327960
v 0.374558 -1.094999 -0.455855
v 0.954138 -1.118998 -0.455855
v 0.954138 -1.094999 -0.455856
v 0.922537 -1.106999 -0.327960
v 0.118019 -1.322641 -0.162729
v 1.210676 -1.322641 -0.162729
v 0.629591 -1.044086 -0.201607
v 0.699105 -1.044085 -0.201607
v 0.664348 -1.005945 -0.201607
v 0.755448 -1.083749 -0.125701
v 0.573247 -1.083749 -0.125701
v 1.381890 -0.145642 0.131906
v 1.329655 -0.202972 0.179858
v 1.418310 -0.106554 0.172711
v 1.344634 -0.097713 0.103025
v 1.337787 -0.079193 0.261316
v 1.264111 -0.070352 0.191631
v 1.498568 -0.182874 0.003823
v 1.095959 0.121146 -0.151854
v 1.000058 0.114915 0.016348
v 1.095625 0.155964 -0.147083
v 1.710242 0.047430 0.429159
v 1.709908 0.082247 0.433930
v 1.547355 0.049237 0.534003
v 0.545763 0.128954 -0.117943
v 1.703844 -0.010020 0.977417
v 1.130223 -0.240026 0.311657
v 1.203899 -0.248868 0.381343
v 1.166530 -0.189114 0.354082
v 1.187473 -0.325222 0.509552
v 0.994362 -0.302048 0.326900
v -1.675569 -0.316979 0.472215
v -1.664368 -0.358046 0.517662
v -1.643411 -0.284227 0.471448
v -1.711741 -0.290645 0.482490
v -1.631661 -0.268901 0.553061
v -1.699991 -0.275319 0.564103
v -1.692710 -0.337546 0.354198
v -1.966790 -0.304975 0.501392
v -1.914645 -0.308804 0.622908
v -1.968396 -0.281334 0.505196
v -1.397077 -0.251471 0.409323
v -1.398682 -0.227830 0.413126
v -1.407058 -0.261135 0.540878
v -2.175760 -0.311181 0.819630
v -1.101703 -0.210311 0.646056
v -1.670197 -0.396021 0.678320
v -1.601867 -0.389603 0.667278
v -1.638584 -0.355240 0.678844
v -1.530840 -0.434494 0.726011
v -1.709939 -0.451314 0.754954
v -0.886360 0.029828 -0.690535
v -0.868616 -0.000668 -0.639228
v -0.871004 0.073088 -0.690007
v -0.931398 0.038669 -0.689579
v -0.883091 0.095291 -0.610040
v -0.943485 0.060872 -0.609612
v -0.869669 -0.000900 -0.806389
v -1.079236 -0.217540 -0.732726
v -1.055467 -0.193832 -0.604770
v -1.091112 -0.196694 -0.732131
v -0.575700 0.069430 -0.736295
v -0.587576 0.090276 -0.735701
v -0.606841 0.061845 -0.607949
v -1.196179 -0.526862 -0.443158
v -0.246884 0.014150 -0.449885
v -0.890259 -0.030888 -0.478276
v -0.829866 0.003530 -0.478704
v -0.878936 0.019451 -0.477546
v -0.759950 -0.004426 -0.404152
v -0.918245 -0.094640 -0.403030
v 0.471509 0.038494 -1.849133
v 0.442387 -0.009723 -1.822596
v 0.510442 0.048363 -1.826900
v 0.449019 0.077685 -1.841029
v 0.487803 0.039621 -1.746622
v 0.426380 0.068943 -1.760749
v 0.504778 0.052531 -1.964636
v 0.234084 0.199177 -1.909259
v 0.216748 0.145628 -1.789544
v 0.240663 0.218806 -1.897121
v 0.746205 -0.045300 -1.791465
v 0.752784 -0.025670 -1.779326
v 0.673024 -0.072188 -1.684594
v -0.081100 0.247396 -1.701134
v 0.884381 -0.213504 -1.479059
v 0.347365 -0.067527 -1.700461
v 0.408788 -0.096849 -1.686333
v 0.388532 -0.050992 -1.674107
v 0.418888 -0.182753 -1.631305
v 0.257893 -0.105898 -1.668336
v 0.276350 0.702349 -3.577564
v 0.260513 0.626358 -3.529717
v 0.331486 0.733680 -3.555254
v 0.231265 0.749925 -3.562626
v 0.320634 0.721995 -3.433478
v 0.220413 0.738239 -3.440850
v 0.292357 0.721482 -3.753014
v -0.110807 0.989222 -3.541989
v -0.088094 0.920981 -3.362113
v -0.106785 1.020795 -3.527085
v 0.724796 0.853780 -3.480525
v 0.728818 0.885353 -3.465621
v 0.656387 0.800309 -3.307352
v -0.532161 0.900004 -3.197855
v 1.043165 0.644661 -3.081980
v 0.177158 0.522753 -3.327641
v 0.277378 0.506508 -3.320269
v 0.233659 0.564807 -3.300270
v 0.337211 0.395673 -3.238581
v 0.074525 0.438252 -3.257903
v 1.195290 2.401016 -3.294873
v 1.157914 2.317910 -3.298181
v 1.236800 2.406567 -3.242286
v 1.149864 2.447025 -3.276457
v 1.174816 2.348063 -3.153862
v 1.087880 2.388521 -3.188034
v 1.285014 2.487242 -3.421048
v 0.840252 2.727714 -3.269005
v 0.781912 2.587536 -3.148695
v 0.838685 2.748343 -3.240595
v 1.565089 2.390389 -2.984087
v 1.563522 2.411018 -2.955677
v 1.427706 2.286996 -2.894847
v 0.309698 2.603023 -3.185982
v 1.676202 1.967080 -2.648840
v 0.992936 2.161834 -3.214877
v 1.079872 2.121376 -3.180705
v 1.033914 2.174390 -3.152641
v 1.095310 1.976087 -3.146206
v 0.867445 2.082131 -3.235775
vn 0.4753 0.8110 -0.3411
vn -0.8826 -0.2763 0.3804
vn 0.3953 0.7582 -0.5185
vn 0.1403 -0.9817 0.1286
vn -0.2111 -0.9755 -0.0626
vn 0.2036 -0.3702 0.9064
vn -0.0810 0.9834 -0.1625
vn -0.0471 0.0030 -0.9989
vn -0.6949 -0.5401 -0.4748
vn -0.1901 0.2346 -0.9533
vn 0.8943 0.4406 0.0788
vn -0.1034 -0.1585 0.9819
vn -0.0088 -0.9874 -0.1582
vn 0.0970 0.9548 0.2810
vn -0.7240 0.4797 -0.4958
vn -0.9345 -0.3490 0.0698
vn 0.4903 -0.3578 -0.7947
vn 0.9180 0.3886 0.0789
vn -0.5748 -0.8170 -0.0461
vn 0.9503 0.1542 -0.2703
vn 0.5846 0.7034 0.4043
vn -0.9459 0.2034 0.2530
vn -0.5816 -0.6890 -0.4325
vn 0.9233 0.1601 -0.3490
vn 0.5205 0.5104 0.6845
vn -0.2469 0.9671 -0.0609
vn 0.3826 0.9007 0.2060
vn -0.8533 -0.4281 -0.2978
vn 0.4290 0.9033 0.0097
vn 0.2670 -0.9629 -0.0401
vn -0.4335 -0.7975 -0.4195
vn -0.3259 -0.6244 0.7099
vn 0.3142 0.9302 0.1899
vn 0.4579 0.3515 -0.8166
vn 0.2908 -0.5901 -0.7531
vn 0.3235 0.5138 -0.7946
vn 0.1493 0.8320 0.5343
vn -0.5374 -0.5234 0.6612
vn -0.4027 -0.8124 -0.4217
vn 0.4121 0.7081 0.5733
vn -0.3876 0.5753 -0.7203
vn -0.2280 -0.8958 -0.3815
vn 0.9052 -0.0419 -0.4229
vn 0.0905 0.8617 0.4993
vn -0.2463 -0.7879 -0.5645
vn 0.8746 0.2809 0.3953
vn 0.0819 0.5665 0.8200
vn -0.9437 0.0632 -0.3247
vn -0.0672 -0.5438 -0.8365
vn 0.8953 0.3102 0.3199
vn -0.0803 0.2912 0.9533
vn -0.3864 0.9220 0.0251
vn -0.4994 0.8090 -0.3100
vn -0.1059 -0.9913 0.0782
vn -0.4145 0.7680 -0.4883
vn 0.8858 -0.2625 0.3828
vn 0.4566 -0.8857 0.0839
vn 0.0535 -0.2668 0.9623
vn -0.5575 0.7629 -0.3274
vn 0.2600 0.1983 -0.9450
vn 0.8382 -0.3531 -0.4156
vn 0.0525 0.1786 -0.9825
vn -0.6873 0.7251 0.0429
vn -0.1337 -0.4044 0.9048
vn 0.4867 -0.8695 0.0844
vn -0.4494 0.8883 0.0951
vn -0.4426 -0.3203 -0.8376
vn 0.6414 -0.7558 0.1319
vn 0.7018 0.5208 -0.4861
vn -0.7341 0.6790 0.0076
vn 0.6054 -0.7924 -0.0751
vn 0.1984 0.9774 0.0730
vn -0.6170 0.6610 0.4271
vn -0.5161 -0.8404 -0.1652
vn 0.6139 -0.6453 -0.4546
vn 0.2118 0.9773 -0.0094
vn -0.5504 0.4569 0.6988
vn -0.9227 0.1434 -0.3578
vn -0.0000 0.9458 -0.3249
vn -0.6339 -0.7347 0.2417
vn -0.0000 0.8613 -0.5081
vn 0.6339 -0.7347 0.2417
vn 0.3849 -0.9229 -0.0085
vn 0.1903 -0.2127 0.9584
vn -0.5802 0.7703 -0.2646
vn 0.1587 -0.0000 -0.9873
vn -0.1659 -0.8262 -0.5385
vn -0.0945 0.1095 -0.9895
vn 0.4607 0.8659 0.1951
vn -0.1903 -0.2127 0.9584
vn 0.5737 -0.8165 -0.0651
vn -0.5088 0.8363 0.2042
vn -0.7525 -0.0000 -0.6586
vn -0.5737 -0.8165 -0.0652
vn 0.7525 -0.0000 -0.6586
vn 0.5088 0.8363 0.2042
vn -0.0000 -0.9974 -0.0715
vn 0.7346 0.6694 -0.1105
vn -0.0000 0.9006 0.4347
vn -0.9265 -0.3712 0.0613
vn -0.0000 -0.8863 -0.4631
vn 0.7252 0.6609 -0.1930
vn -0.0000 0.6983 0.7158
vn -0.7252 0.6609 -0.1930
vn 0.2152 0.9710 -0.1043
vn -0.6186 -0.6981 -0.3606
vn 0.3424 0.9065 -0.2470
vn 0.2990 -0.8082 0.5073
vn -0.4738 -0.8277 -0.3008
vn -0.6838 -0.3925 0.6151
vn 0.4846 0.8569 0.1758
vn 0.7526 0.0965 -0.6514
vn 0.7457 -0.6661 0.0160
vn 0.5077 0.3492 -0.7876
vn -0.3458 0.9002 -0.2647
vn -0.6263 -0.3994 0.6695
vn -0.0171 -0.9988 -0.0467
vn -0.0360 0.9740 0.2236
vn -0.0590 0.1350 -0.9891
vn -0.0785 -0.9914 -0.1048
vn 0.9999 0.0079 0.0125
vn -0.0974 0.9814 0.1655
vn 0.0589 -0.9807 -0.1867
vn 0.6015 0.6110 0.5146
vn -0.3085 0.8466 0.4336
vn -0.7093 -0.2937 -0.6408
vn 0.3280 -0.8295 -0.4520
vn 0.6518 0.6120 0.4480
vn -0.5005 0.6168 0.6074
vn -0.3980 0.7380 -0.5450
vn -0.1189 0.9788 -0.1667
vn -0.5326 -0.8173 0.2198
vn -0.1446 0.9222 -0.3586
vn 0.7136 -0.7003 0.0184
vn -0.0425 -0.9990 -0.0132
vn 0.2986 -0.3662 0.8813
vn -0.1934 0.9689 -0.1541
vn -0.0816 0.1529 -0.9849
vn 0.3118 -0.6655 -0.6782
vn -0.2673 0.2406 -0.9331
vn -0.1637 0.9572 0.2388
vn 0.0633 -0.3883 0.9194
vn -0.0111 -0.9996 -0.0268
vn 0.1212 0.9775 0.1727
vn -0.8358 0.0314 -0.5482
vn 0.1834 -0.9813 -0.0582
vn 0.6024 0.1665 -0.7806
vn -0.2365 0.9439 0.2306
vn 0.0545 -0.9722 -0.2278
vn 0.6584 0.7433 -0.1183
vn 0.0141 0.8240 0.5664
vn -0.8754 -0.4601 0.1481
vn -0.0199 -0.8059 -0.5918
vn 0.6357 0.7460 -0.1985
vn 0.0758 0.5840 0.8082
vn -0.7901 0.6121 0.0319
vn -0.4737 0.8275 -0.3014
vn -0.1829 -0.9565 0.2273
vn -0.4352 0.7575 -0.4866
vn 0.9186 -0.3287 0.2195
vn 0.7909 -0.6110 -0.0337
vn 0.2874 -0.1083 0.9517
vn -0.8899 0.3867 -0.2419
vn 0.1205 0.0968 -0.9880
vn 0.2553 -0.7898 -0.5577
vn -0.1537 0.0666 -0.9859
vn -0.0248 0.9766 0.2136
vn -0.0431 -0.2967 0.9540
vn 0.9013 -0.4240 -0.0889
vn -0.8523 0.4707 0.2280
vn -0.6654 -0.3604 -0.6537
vn -0.0955 -0.9921 -0.0818
vn 0.6422 0.3847 -0.6630
vn 0.0318 0.9746 0.2217
vn 0.4923 -0.8651 -0.0962
vn 0.3050 0.9472 -0.0984
vn -0.4380 0.7742 0.4569
vn -0.6202 -0.7823 0.0578
vn 0.4304 -0.7613 -0.4849
vn 0.2996 0.9367 -0.1811
vn -0.3330 0.5934 0.7328
vn -0.9605 0.2186 -0.1721
vn 0.1513 0.9826 0.1078
vn -0.7402 -0.6578 -0.1393
vn 0.1660 0.9817 -0.0934
vn 0.5079 -0.8601 -0.0475
vn -0.5938 -0.7743 -0.2188
vn -0.1998 -0.6523 0.7311
vn 0.5294 0.8387 0.1277
vn 0.2212 0.3931 -0.8925
vn 0.5805 -0.5170 -0.6290
vn -0.0459 0.6318 -0.7738
vn -0.3974 0.8718 0.2866
vn -0.1217 -0.6650 0.7369
vn -0.0832 -0.9352 -0.3443
vn 0.1447 0.8538 0.5002
vn -0.6297 0.3958 -0.6684
vn -0.1667 -0.9216 -0.3504
vn 0.8107 0.1623 -0.5625
vn 0.0612 0.8673 0.4940
vn -0.1046 -0.8668 -0.4876
vn 0.8145 0.5294 0.2373
vn 0.0453 0.6311 0.7743
vn -0.9628 -0.2107 -0.1692
vn -0.0399 -0.6067 -0.7939
vn 0.8153 0.5570 0.1586
vn -0.0151 0.3344 0.9423
vn -0.6128 0.7884 0.0535
vn 0.1262 0.7843 0.6074
vn -0.6339 -0.3498 -0.6898
vn 0.2250 0.8639 0.4506
vn 0.4489 -0.8537 -0.2642
vn -0.4718 -0.4529 -0.7565
vn -0.5148 -0.8322 0.2062
vn 0.4546 0.5623 0.6907
vn 0.5934 0.6665 -0.4512
vn 0.7739 -0.3265 -0.5427
vn 0.3100 0.8884 -0.3385
vn -0.4500 0.7388 0.5016
vn -0.4470 -0.8637 0.2328
vn 0.0376 -0.6598 -0.7505
vn -0.0511 0.5091 0.8592
vn -0.2714 0.7716 -0.5753
vn -0.0348 -0.6261 -0.7790
vn 0.9781 0.1901 -0.0841
vn -0.1236 0.5428 0.8307
vn 0.0815 -0.5350 -0.8409
vn 0.6548 0.1789 0.7343
vn -0.2655 0.2220 0.9382
vn -0.8065 0.1071 -0.5815
vn 0.2796 -0.1936 -0.9404
vn 0.6899 0.2358 0.6844
vn -0.4021 -0.0950 0.9106
vn -0.5488 0.8123 0.1975
vn -0.4273 -0.7246 -0.5407
vn 0.1509 0.9533 0.2618
vn -0.0376 0.1294 -0.9909
vn -0.8321 -0.5472 0.0903
vn -0.3032 0.1797 -0.9358
vn 0.8553 0.3377 -0.3930
vn 0.5492 -0.8277 -0.1151
vn -0.2350 0.9717 0.0216
vn -0.3327 -0.2925 -0.8965
vn 0.3445 0.7388 0.5792
vn 0.4867 0.4359 -0.7571
vn -0.2004 -0.9088 -0.3659
vn 0.2982 0.4277 -0.8533
vn 0.4488 0.8659 0.2209
vn 0.6937 -0.7184 0.0519
vn -0.4237 0.9007 0.0967
vn -0.0672 -0.5438 -0.8366
vn 0.2863 -0.7587 -0.5852
vn -0.5145 0.8521 0.0960
vn 0.1969 0.2847 -0.9382
vn 0.6629 -0.7341 0.1473
vn 0.1186 0.0944 -0.9884
vn -0.4384 0.8504 -0.2908
vn 0.9333 0.2249 0.2800
vn -0.9508 0.1328 -0.2799
vn 0.6139 -0.6454 -0.4546
vn -0.0000 0.9457 -0.3249
vn 0.1659 -0.8261 -0.5385
vn -0.4607 0.8659 0.1951
vn 0.0945 0.1095 -0.9895
vn -0.3849 -0.9229 -0.0085
vn -0.1588 -0.0000 -0.9873
vn 0.5802 0.7703 -0.2646
vn 0.9265 -0.3712 0.0613
vn -0.7346 0.6694 -0.1105
vn -0.1351 -0.5604 -0.8171
vn 0.3919 0.8117 0.4331
vn 0.8002 0.3140 -0.5110
vn 0.2166 -0.9105 0.3522
vn 0.6218 0.1122 -0.7751
vn -0.0895 0.9258 -0.3672
vn 0.6318 -0.4546 0.6278
vn -0.4618 0.7386 -0.4911
vn -0.3818 -0.7306 -0.5661
vn 0.0535 0.9776 0.2037
vn -0.0858 0.2577 -0.9624
vn 0.2168 -0.9747 -0.0551
vn -0.2593 0.1362 -0.9562
vn -0.0437 0.9830 -0.1783
vn 0.9461 -0.2890 -0.1463
vn -0.7858 0.6077 0.1151
vn -0.0200 -0.8058 -0.5918
vn 0.5435 -0.6256 -0.5598
vn -0.8253 0.5204 0.2193
vn 0.0105 0.1602 -0.9870
vn 0.1222 -0.9921 -0.0290
vn -0.1553 -0.0604 -0.9860
vn 0.1183 0.9613 -0.2490
vn 0.9897 0.1352 0.0464
vn -0.9714 0.2198 -0.0894
vn 0.4867 0.4358 -0.7571
vn -0.4236 0.9007 0.0967
vn -0.6176 -0.3228 -0.7172
vn 0.6061 0.7091 0.3604
vn 0.3519 0.5673 -0.7446
vn 0.3452 -0.9265 -0.1497
vn 0.0432 0.4220 -0.9056
vn -0.2515 0.9653 0.0702
vn 0.8616 -0.5064 -0.0350
vn -0.6320 0.7638 0.1309
vn -0.2654 0.1572 -0.9512
vn 0.4204 0.3338 0.8437
vn 0.6550 0.7279 -0.2028
vn 0.3427 -0.8320 -0.4363
vn 0.4390 0.7384 -0.5119
vn -0.2228 0.8776 0.4245
vn 0.7761 -0.6293 0.0406
vn -0.5999 0.7628 0.2411
vt 0.891861 0.951712
vt 0.924307 0.984158
vt 0.891861 0.984158
vt 0.908084 0.967935
vt 0.924307 0.951712
vt 0.908084 0.951712
vt 0.924307 0.967935
vt 0.891861 0.967935
vt 0.908084 0.984158
vt 0.830001 0.013240
vt 0.830001 0.045685
vt 0.846224 0.029463
vt 0.862446 0.013240
vt 0.862446 0.045685
vt 0.863431 0.820220
vt 0.863431 0.836442
vt 0.863431 0.852665
vt 0.830985 0.820220
vt 0.830985 0.836442
vt 0.830985 0.852665
vt 0.847208 0.852665
vt 0.785114 0.452528
vt 0.801337 0.468751
vt 0.768892 0.452528
vt 0.768892 0.468751
vt 0.785114 0.484973
vt 0.801337 0.452528
vt 0.781462 0.458616
vt 0.797684 0.474838
vt 0.765239 0.458616
vt 0.765239 0.474838
vt 0.781462 0.491061
vt 0.797684 0.458616
s 1
f 3/1/1 6/2/1 5/3/1
s 0
f 1/1/2 4/3/2 7/4/2
f 4/5/3 3/1/3 7/4/3
f 3/2/4 1/5/4 7/4/4
f 1/6/5 9/7/5 8/1/5
f 2/1/6 6/3/6 9/7/6
f 4/5/7 9/7/7 6/2/7
f 4/3/8 8/1/8 10/3/8
f 1/6/9 13/8/9 2/9/9
f 3/2/10 11/5/10 1/5/10
f 3/1/11 13/8/11 12/2/11
f 5/2/12 2/5/12 13/8/12
f 8/1/13 9/7/13 14/8/13
f 9/7/14 10/3/14 14/8/14
f 10/3/15 8/1/15 14/8/15
f 13/8/16 11/5/16 15/7/16
f 11/5/17 12/2/17 15/7/17
f 12/2/18 13/8/18 15/7/18
f 2/9/19 17/5/19 16/1/19
f 2/5/20 18/9/20 17/5/20
f 5/3/21 6/2/21 18/9/21
f 2/1/22 18/9/22 6/3/22
f 17/5/23 20/8/23 16/1/23
f 17/5/24 18/9/24 19/7/24
f 18/9/25 20/8/25 19/7/25
f 18/9/26 16/1/26 20/8/26
s 1
f 23/1/27 26/2/27 25/3/27
s 0
f 21/10/28 24/11/28 27/12/28
f 24/13/29 23/10/29 27/12/29
f 23/14/30 21/13/30 27/12/30
f 21/6/31 29/7/31 28/1/31
f 22/1/32 26/3/32 29/7/32
f 24/15/33 29/16/33 26/17/33
f 24/3/34 28/1/34 30/3/34
f 21/6/35 33/8/35 22/9/35
f 23/2/36 31/5/36 21/5/36
f 23/18/37 33/19/37 32/17/37
f 25/2/38 22/5/38 33/8/38
f 28/1/39 29/7/39 34/8/39
f 29/16/40 30/20/40 34/19/40
f 30/3/41 28/1/41 34/8/41
f 33/8/42 31/5/42 35/7/42
f 31/5/43 32/2/43 35/7/43
f 32/17/44 33/19/44 35/16/44
f 22/9/45 37/5/45 36/1/45
f 22/5/46 38/9/46 37/5/46
f 25/3/47 26/2/47 38/9/47
f 22/1/48 38/9/48 26/3/48
f 37/5/49 40/8/49 36/1/49
f 37/5/50 38/9/50 39/7/50
f 38/21/51 40/19/51 39/16/51
f 38/9/52 36/1/52 40/8/52
s 1
f 44/5/53 45/3/53 43/1/53
s 0
f 41/10/54 44/11/54 47/12/54
f 44/13/55 43/10/55 47/12/55
f 43/14/56 41/13/56 47/12/56
f 41/6/57 49/7/57 48/1/57
f 42/1/58 46/3/58 49/7/58
f 44/5/59 49/7/59 46/2/59
f 44/3/60 48/1/60 50/3/60
f 41/6/61 53/8/61 42/9/61
f 43/2/62 51/5/62 41/5/62
f 43/1/63 53/8/63 52/2/63
f 45/2/64 42/5/64 53/8/64
f 48/1/65 49/7/65 54/8/65
f 49/7/66 50/3/66 54/8/66
f 50/3/67 48/1/67 54/8/67
f 53/8/68 51/5/68 55/7/68
f 51/5/69 52/2/69 55/7/69
f 52/2/70 53/8/70 55/7/70
f 42/9/71 57/5/71 56/1/71
f 42/5/72 58/9/72 57/5/72
f 45/3/73 46/2/73 58/9/73
f 42/1/74 58/9/74 46/3/74
f 56/1/75 59/7/75 60/8/75
f 57/5/76 58/9/76 59/7/76
f 58/9/77 60/8/77 59/7/77
f 58/9/78 56/1/78 60/8/78
s 1
f 64/5/79 65/3/79 63/1/79
s 0
f 61/10/80 64/11/80 67/12/80
f 64/13/81 63/10/81 67/12/81
f 63/14/82 61/13/82 67/12/82
f 61/6/83 69/7/83 68/1/83
f 62/1/84 66/3/84 69/7/84
f 64/5/85 69/7/85 66/2/85
f 64/3/86 68/1/86 70/3/86
f 61/6/87 73/8/87 62/9/87
f 63/2/88 71/5/88 61/5/88
f 63/1/89 73/8/89 72/2/89
f 65/2/90 62/5/90 73/8/90
f 68/1/91 69/7/91 74/8/91
f 69/7/92 70/3/92 74/8/92
f 70/3/93 68/1/93 74/8/93
f 73/8/94 71/5/94 75/7/94
f 71/5/95 72/2/95 75/7/95
f 72/2/96 73/8/96 75/7/96
f 62/9/97 77/5/97 76/1/97
f 62/5/98 78/9/98 77/5/98
f 65/3/99 66/2/99 78/9/99
f 62/1/100 78/9/100 66/3/100
f 76/1/101 79/7/101 80/8/101
f 77/5/102 78/9/102 79/7/102
f 78/9/103 80/8/103 79/7/103
f 78/9/104 76/1/104 80/8/104
s 1
f 83/1/105 86/2/105 85/3/105
s 0
f 81/10/106 84/11/106 87/12/106
f 84/13/107 83/10/107 87/12/107
f 83/14/108 81/13/108 87/12/108
f 81/22/109 89/23/109 88/24/109
f 82/1/110 86/3/110 89/7/110
f 84/15/111 89/16/111 86/17/111
f 84/3/112 88/1/112 90/3/112
f 81/22/113 93/25/113 82/26/113
f 83/2/114 91/5/114 81/5/114
f 83/18/115 93/19/115 92/17/115
f 85/2/116 82/5/116 93/8/116
f 88/24/117 89/23/117 94/25/117
f 89/16/118 90/20/118 94/19/118
f 90/3/119 88/1/119 94/8/119
f 93/25/120 91/27/120 95/23/120
f 91/5/121 92/2/121 95/7/121
f 92/17/122 93/19/122 95/16/122
f 82/9/123 97/5/123 96/1/123
f 82/5/124 98/9/124 97/5/124
f 85/3/125 86/2/125 98/9/125
f 82/1/126 98/9/126 86/3/126
f 97/5/127 100/8/127 96/1/127
f 97/5/128 98/9/128 99/7/128
f 98/21/129 100/19/129 99/16/129
f 98/9/130 96/1/130 100/8/130
s 1
f 103/1/131 106/2/131 105/3/131
s 0
f 101/10/132 104/11/132 107/12/132
f 104/13/133 103/10/133 107/12/133
f 103/14/134 101/13/134 107/12/134
f 101/28/135 109/29/135 108/30/135
f 102/1/136 106/3/136 109/7/136
f 104/5/137 109/7/137 106/2/137
f 104/3/138 108/1/138 110/3/138
f 101/28/139 113/31/139 102/32/139
f 103/2/140 111/5/140 101/5/140
f 103/1/141 113/8/141 112/2/141
f 105/2/142 102/5/142 113/8/142
f 108/30/143 109/29/143 114/31/143
f 109/7/144 110/3/144 114/8/144
f 110/3/145 108/1/145 114/8/145
f 113/31/146 111/33/146 115/29/146
f 111/5/147 112/2/147 115/7/147
f 112/2/148 113/8/148 115/7/148
f 102/9/149 117/5/149 116/1/149
f 102/5/150 118/9/150 117/5/150
f 105/3/151 106/2/151 118/9/151
f 102/1/152 118/9/152 106/3/152
f 117/5/153 120/8/153 116/1/153
f 117/5/154 118/9/154 119/7/154
f 118/9/155 120/8/155 119/7/155
f 118/9/156 116/1/156 120/8/156
s 1
f 124/5/157 125/3/157 123/1/157
s 0
f 121/10/158 124/11/158 127/12/158
f 124/13/159 123/10/159 127/12/159
f 123/14/160 121/13/160 127/12/160
f 121/6/161 129/7/161 128/1/161
f 122/1/162 126/3/162 129/7/162
f 124/15/163 129/16/163 126/17/163
f 124/3/164 128/1/164 130/3/164
f 121/6/165 133/8/165 122/9/165
f 123/2/166 131/5/166 121/5/166
f 123/18/167 133/19/167 132/17/167
f 125/2/168 122/5/168 133/8/168
f 128/1/169 129/7/169 134/8/169
f 129/16/170 130/20/170 134/19/170
f 130/3/171 128/1/171 134/8/171
f 133/8/172 131/5/172 135/7/172
f 131/5/173 132/2/173 135/7/173
f 132/17/174 133/19/174 135/16/174
f 122/9/175 137/5/175 136/1/175
f 122/5/176 138/9/176 137/5/176
f 125/3/177 126/2/177 138/9/177
f 122/1/178 138/9/178 126/3/178
f 137/5/179 140/8/179 136/1/179
f 137/5/180 138/9/180 139/7/180
f 138/21/181 140/19/181 139/16/181
f 138/9/182 136/1/182 140/8/182
s 1
f 144/5/27 145/3/27 143/1/27
s 0
f 141/10/28 144/11/28 147/12/28
f 144/13/29 143/10/29 147/12/29
f 143/14/30 141/13/30 147/12/30
f 141/6/31 149/7/31 148/1/31
f 142/1/32 146/3/32 149/7/32
f 144/5/33 149/7/33 146/2/33
f 144/3/34 148/1/34 150/3/34
f 141/6/35 153/8/35 142/9/35
f 143/2/36 151/5/36 141/5/36
f 143/1/37 153/8/37 152/2/37
f 145/2/38 142/5/38 153/8/38
f 148/1/39 149/7/39 154/8/39
f 149/7/40 150/3/40 154/8/40
f 150/3/41 148/1/41 154/8/41
f 153/8/42 151/5/42 155/7/42
f 151/5/43 152/2/43 155/7/43
f 152/2/44 153/8/44 155/7/44
f 142/9/45 157/5/45 156/1/45
f 142/5/46 158/9/46 157/5/46
f 145/3/47 146/2/47 158/9/47
f 142/1/48 158/9/48 146/3/48
f 157/5/49 160/8/49 156/1/49
f 157/5/50 158/9/50 159/7/50
f 158/9/51 160/8/51 159/7/51
f 158/9/52 156/1/52 160/8/52
s 1
f 164/5/183 165/3/183 163/1/183
s 0
f 161/10/184 164/11/184 167/12/184
f 164/13/185 163/10/185 167/12/185
f 163/14/186 161/13/186 167/12/186
f 161/22/187 169/23/187 168/24/187
f 162/1/188 166/3/188 169/7/188
f 164/5/189 169/7/189 166/2/189
f 164/3/190 168/1/190 170/3/190
f 161/22/191 173/25/191 162/26/191
f 163/2/192 171/5/192 161/5/192
f 163/1/193 173/8/193 172/2/193
f 165/2/194 162/5/194 173/8/194
f 168/24/195 169/23/195 174/25/195
f 169/7/196 170/3/196 174/8/196
f 170/3/197 168/1/197 174/8/197
f 173/25/198 171/27/198 175/23/198
f 171/5/199 172/2/199 175/7/199
f 172/2/200 173/8/200 175/7/200
f 162/9/201 177/5/201 176/1/201
f 162/5/202 178/9/202 177/5/202
f 165/3/203 166/2/203 178/9/203
f 162/1/204 178/9/204 166/3/204
f 177/5/205 180/8/205 176/1/205
f 177/5/206 178/9/206 179/7/206
f 178/9/207 180/8/207 179/7/207
f 178/9/208 176/1/208 180/8/208
s 1
f 184/5/209 185/3/209 183/1/209
s 0
f 181/10/210 184/11/210 187/12/210
f 184/13/211 183/10/211 187/12/211
f 183/14/212 181/13/212 187/12/212
f 181/6/213 189/7/213 188/1/213
f 182/1/214 186/3/214 189/7/214
f 184/5/215 189/7/215 186/2/215
f 184/3/216 188/1/216 190/3/216
f 181/6/217 193/8/217 182/9/217
f 183/2/218 191/5/218 181/5/218
f 183/1/219 193/8/219 192/2/219
f 185/2/220 182/5/220 193/8/220
f 188/1/221 189/7/221 194/8/221
f 189/7/222 190/3/222 194/8/222
f 190/3/223 188/1/223 194/8/223
f 193/8/224 191/5/224 195/7/224
f 191/5/225 192/2/225 195/7/225
f 192/2/226 193/8/226 195/7/226
f 182/9/227 197/5/227 196/1/227
f 182/5/228 198/9/228 197/5/228
f 185/3/229 186/2/229 198/9/229
f 182/1/230 198/9/230 186/3/230
f 196/1/231 199/7/231 200/8/231
f 197/5/232 198/9/232 199/7/232
f 198/9/233 200/8/233 199/7/233
f 198/9/234 196/1/234 200/8/234
s 1
f 3/1/1 4/5/1 6/2/1
s 0
f 1/6/235 2/9/235 9/7/235
f 4/5/236 10/3/236 9/7/236
f 4/3/237 1/1/237 8/1/237
f 1/6/238 11/5/238 13/8/238
f 3/2/239 12/2/239 11/5/239
f 3/1/240 5/3/240 13/8/240
f 2/5/241 5/2/241 18/9/241
f 2/1/242 16/1/242 18/9/242
f 17/5/23 19/7/23 20/8/23
s 1
f 23/1/27 24/5/27 26/2/27
s 0
f 21/6/243 22/9/243 29/7/243
f 24/15/244 30/20/244 29/16/244
f 24/3/245 21/1/245 28/1/245
f 21/6/246 31/5/246 33/8/246
f 23/2/247 32/2/247 31/5/247
f 23/18/248 25/20/248 33/19/248
f 22/5/249 25/2/249 38/9/249
f 22/1/250 36/1/250 38/9/250
f 37/5/251 39/7/251 40/8/251
s 1
f 44/5/53 46/2/53 45/3/53
s 0
f 41/6/252 42/9/252 49/7/252
f 44/5/253 50/3/253 49/7/253
f 44/3/254 41/1/254 48/1/254
f 41/6/255 51/5/255 53/8/255
f 43/2/256 52/2/256 51/5/256
f 43/1/257 45/3/257 53/8/257
f 42/5/258 45/2/258 58/9/258
f 42/1/259 56/1/259 58/9/259
f 56/1/260 57/5/260 59/7/260
s 1
f 64/5/79 66/2/261 65/3/79
s 0
f 61/6/262 62/9/262 69/7/262
f 64/5/263 70/3/263 69/7/263
f 64/3/264 61/1/264 68/1/264
f 61/6/265 71/5/265 73/8/265
f 63/2/266 72/2/266 71/5/266
f 63/1/267 65/3/267 73/8/267
f 62/5/268 65/2/268 78/9/268
f 62/1/269 76/1/269 78/9/269
f 76/1/101 77/5/101 79/7/101
s 1
f 83/1/105 84/5/105 86/2/105
s 0
f 81/22/270 82/26/270 89/23/270
f 84/15/271 90/20/271 89/16/271
f 84/3/272 81/1/272 88/1/272
f 81/22/273 91/27/273 93/25/273
f 83/2/274 92/2/274 91/5/274
f 83/18/275 85/20/275 93/19/275
f 82/5/276 85/2/276 98/9/276
f 82/1/277 96/1/277 98/9/277
f 97/5/127 99/7/127 100/8/127
s 1
f 103/1/131 104/5/131 106/2/131
s 0
f 101/28/278 102/32/278 109/29/278
f 104/5/279 110/3/279 109/7/279
f 104/3/280 101/1/280 108/1/280
f 101/28/281 111/33/281 113/31/281
f 103/2/282 112/2/282 111/5/282
f 103/1/283 105/3/283 113/8/283
f 102/5/284 105/2/284 118/9/284
f 102/1/285 116/1/285 118/9/285
f 117/5/286 119/7/286 120/8/286
s 1
f 124/5/157 126/2/157 125/3/157
s 0
f 121/6/287 122/9/287 129/7/287
f 124/15/288 130/20/288 129/16/288
f 124/3/289 121/1/289 128/1/289
f 121/6/290 131/5/290 133/8/290
f 123/2/291 132/2/291 131/5/291
f 123/18/292 125/20/292 133/19/292
f 122/5/293 125/2/293 138/9/293
f 122/1/294 136/1/294 138/9/294
f 137/5/179 139/7/179 140/8/179
s 1
f 144/5/27 146/2/27 145/3/27
s 0
f 141/6/243 142/9/243 149/7/243
f 144/5/244 150/3/244 149/7/244
f 144/3/295 141/1/295 148/1/295
f 141/6/246 151/5/246 153/8/246
f 143/2/247 152/2/247 151/5/247
f 143/1/248 145/3/248 153/8/248
f 142/5/249 145/2/249 158/9/249
f 142/1/296 156/1/296 158/9/296
f 157/5/49 159/7/49 160/8/49
s 1
f 164/5/183 166/2/183 165/3/183
s 0
f 161/22/297 162/26/297 169/23/297
f 164/5/298 170/3/298 169/7/298
f 164/3/299 161/1/299 168/1/299
f 161/22/300 171/27/300 173/25/300
f 163/2/301 172/2/301 171/5/301
f 163/1/302 165/3/302 173/8/302
f 162/5/303 165/2/303 178/9/303
f 162/1/304 176/1/304 178/9/304
f 177/5/205 179/7/205 180/8/205
s 1
f 184/5/209 186/2/209 185/3/209
s 0
f 181/6/305 182/9/305 189/7/305
f 184/5/306 190/3/306 189/7/306
f 184/3/307 181/1/307 188/1/307
f 181/6/308 191/5/308 193/8/308
f 183/2/309 192/2/309 191/5/309
f 183/1/310 185/3/310 193/8/310
f 182/5/311 185/2/311 198/9/311
f 182/1/312 196/1/312 198/9/312
f 196/1/231 197/5/231 199/7/231
