# Blender 4.2.1 LTS
# www.blender.org
mtllib flowers.mtl
o flores_1
v -0.599089 1.174959 -1.925233
v -0.825800 1.091310 -1.931040
v -0.662202 1.334172 -1.754655
v -0.888913 1.250523 -1.760461
v -0.630645 1.254566 -1.839944
v -0.857356 1.170916 -1.845750
v -0.773071 1.293265 -1.757494
v -0.732477 1.187312 -1.816100
v -0.709958 1.134052 -1.928072
v 0.521201 0.004577 -1.306795
v -0.418864 0.095787 -1.128702
v 0.454667 1.799699 -1.253457
v -0.302153 1.915350 -0.967289
v 0.051097 0.015673 -1.135388
v 0.259657 1.799933 -0.985110
v 0.627531 0.881818 -1.298712
v 0.180629 0.899973 -1.014104
v -0.551101 1.005569 -1.135215
v -0.276651 1.108017 -1.510383
v -0.304509 1.089162 -1.499842
v -0.286633 1.013567 -1.409574
v -0.253869 1.017555 -1.410652
v -0.276651 1.108016 -1.510383
v -0.304509 1.089162 -1.499842
v -0.315320 1.198710 -1.594254
v -0.280428 1.188466 -1.593400
v 0.277039 0.241333 -1.510635
v 0.452327 0.193042 -1.483194
v 0.200920 0.062239 -1.455056
v 0.348851 0.015509 -1.414643
v 0.341931 0.215145 -1.513874
v 0.268246 0.024677 -1.452006
v -0.115273 0.141706 -1.326109
v -0.203346 0.115876 -1.366170
v -0.066510 0.020781 -1.347844
v -0.155605 -0.004046 -1.396935
v -0.157975 0.127480 -1.334334
v -0.109707 0.007041 -1.360446
v -0.163578 0.234519 -1.487571
v -0.261648 0.169735 -1.586028
v -0.156636 0.065664 -1.376227
v -0.249344 -0.006328 -1.485419
v -0.219623 0.211550 -1.522765
v -0.210082 0.039200 -1.416625
v -0.157388 0.207892 -1.604679
v -0.014477 0.159601 -1.577238
v -0.233508 0.028799 -1.549100
v -0.085576 -0.017932 -1.508687
v -0.092496 0.181704 -1.607919
v -0.166181 0.003367 -1.546050
v 0.259104 0.222186 -1.336946
v 0.161034 0.217815 -1.454725
v 0.266046 0.020071 -1.329245
v 0.173337 0.015100 -1.459939
v 0.203059 0.220785 -1.378950
v 0.212600 0.018379 -1.377510
v 0.262011 0.137552 -1.333722
v 0.207054 0.136029 -1.378347
v 0.166186 0.132929 -1.456908
v 0.270929 0.218962 -0.961637
v 0.319630 0.179416 -1.101541
v 0.310917 0.033823 -0.890349
v 0.373241 -0.004189 -1.033078
v 0.277469 0.197182 -1.027895
v 0.324061 0.012786 -0.957977
v 0.251612 0.171928 -1.010890
v 0.380158 0.207954 -0.935480
v 0.289853 -0.025804 -0.990954
v 0.417709 0.011195 -0.901598
v 0.316788 0.188668 -0.991418
v 0.354695 -0.008593 -0.964721
v 0.417470 0.234519 -1.036190
v 0.319400 0.169735 -1.134648
v 0.424412 0.065664 -0.924847
v 0.331704 -0.006328 -1.034038
v 0.361425 0.211550 -1.071385
v 0.370966 0.039200 -0.965245
v 0.351969 0.207892 -1.032750
v 0.489599 0.159601 -1.080022
v 0.313575 0.028799 -0.946674
v 0.462012 -0.017932 -0.985189
v 0.406654 0.181704 -1.067835
v 0.373500 0.003367 -0.977513
v 0.417470 0.222186 -0.911295
v 0.319400 0.217815 -1.029073
v 0.424412 0.020071 -0.903594
v 0.331704 0.015100 -1.034288
v 0.361425 0.220785 -0.953298
v 0.370966 0.018379 -0.951859
v 0.420602 0.131021 -0.907821
v 0.365729 0.129488 -0.952649
v 0.324950 0.126378 -1.031425
v 0.351969 0.226090 -0.922153
v 0.504323 0.209293 -0.987610
v 0.313575 -0.016916 -0.941368
v 0.476737 -0.036916 -0.998526
v 0.406654 0.221879 -0.965732
v 0.373500 -0.022680 -0.980923
v -0.154213 1.159168 -1.700636
v -0.413687 1.062699 -1.719435
v -0.242313 1.363939 -1.535427
v -0.501788 1.267470 -1.554226
v -0.198263 1.261553 -1.618031
v -0.457738 1.165085 -1.636831
v -0.369205 1.316763 -1.544621
v -0.317883 1.188029 -1.592392
v -0.281105 1.111992 -1.709829
v 0.526939 1.972921 -2.049938
v 0.693897 2.121143 -1.876469
v 0.653008 1.906896 -2.114860
v 0.819966 2.055118 -1.941390
v 0.606850 1.983284 -1.905299
v 0.732919 1.917259 -1.970221
v -0.505497 1.966604 -1.178859
v -0.576808 2.007735 -1.449339
v -0.639399 2.033464 -1.133389
v -0.710710 2.074596 -1.403869
v -0.580045 1.910261 -1.315540
v -0.713946 1.977122 -1.270070
v 0.527183 1.273853 -1.737919
v 0.197111 1.152066 -1.746373
v 0.435296 1.505654 -1.489572
v 0.105224 1.383867 -1.498025
v 0.481240 1.389754 -1.613745
v 0.151168 1.267967 -1.622199
v 0.273880 1.446096 -1.493706
v 0.332981 1.291838 -1.579031
v 0.365768 1.214295 -1.742053
v -0.609798 0.005126 -1.292604
v 0.637360 0.000674 -1.061116
v -0.291165 1.259071 -1.422374
v 0.680144 1.521986 -1.069327
v 0.075266 0.005126 -1.325740
v 0.071521 1.500952 -1.434351
v -0.609798 0.907533 -1.292604
v 0.064073 0.907533 -1.476707
v 0.653284 0.928677 -1.155572
v 0.736048 0.093555 -1.230339
v -0.174872 0.093555 -0.982047
v 0.532395 1.898369 -1.230339
v -0.380451 1.898369 -0.982047
v 0.253469 0.093555 -1.268343
v 0.253469 1.898369 -1.268343
v 0.915139 0.995962 -1.230339
v 0.253469 0.995962 -1.268343
v -0.294377 0.995962 -0.982047
v 0.098852 1.461392 -1.564960
v -0.408378 1.347450 -1.461937
v 0.102335 1.808212 -1.164231
v -0.404895 1.694269 -1.061208
v 0.100594 1.634802 -1.364596
v -0.406637 1.520859 -1.261573
v -0.145717 1.752490 -1.113850
v -0.122972 1.516521 -1.262844
v -0.149200 1.405671 -1.514578
v 0.912438 0.071199 -1.594710
v -0.231042 -0.108153 -1.882011
v 0.737611 1.377153 -1.637495
v -0.405867 1.197801 -1.781596
v 0.363059 -0.005252 -1.452804
v 0.181846 1.411754 -1.555305
v 0.796563 0.922982 -1.584743
v 0.238532 0.866838 -1.480152
v -0.299740 0.750646 -1.748126
v -0.308970 0.455806 -1.722609
v 0.278508 0.578166 -1.392213
v 0.834510 0.635158 -1.556096
v -0.436055 -0.026967 -2.046725
v -0.248816 -0.197784 -1.499823
v -0.414266 1.917111 -1.510375
v 0.213381 1.474259 -0.853583
v -0.317062 -0.052557 -1.712658
v -0.342034 1.743630 -1.145374
v -0.561529 0.945072 -1.690136
v -0.355280 0.845537 -1.491896
v 0.099972 0.638237 -1.176703
v -0.513569 0.455820 -1.860849
v -0.361948 0.393503 -1.603011
v -0.095733 0.217446 -1.339338
v -0.571322 1.963585 -1.869634
v -0.376167 1.991550 -1.739261
v -0.505563 1.885453 -1.951308
v -0.310408 1.913418 -1.820935
v -0.492168 1.920419 -1.764611
v -0.426409 1.842288 -1.846286
v 0.262272 2.031598 -1.178859
v 0.190961 2.072730 -1.449339
v 0.128371 2.098459 -1.133389
v 0.057059 2.139591 -1.403868
v 0.187725 1.975256 -1.315540
v 0.053823 2.042117 -1.270070
v -0.100175 -0.028738 -1.712487
v -0.664274 -0.058211 -1.577619
v 0.004521 -0.084631 -1.171473
v -0.486733 -0.150554 -1.033738
v -0.435780 0.004181 -1.648799
v -0.249971 -0.069384 -1.046655
v 0.738102 0.022573 -0.923812
v 0.550589 0.006036 -1.155168
v 0.457554 -0.008789 -0.702474
v 0.300048 -0.045777 -0.954468
v 0.633117 0.041043 -1.049238
v 0.367724 -0.000233 -0.844488
v -0.931717 0.079199 -1.619045
v -0.176020 -0.168566 -1.019639
v -0.728468 1.017162 -1.601530
v 0.167326 1.602007 -0.952305
v -0.485627 -0.004577 -1.135938
v -0.192200 1.761600 -1.042784
v -0.315740 1.298229 -1.049938
v -0.425041 0.999386 -1.108367
v -0.374386 1.145188 -1.099591
v -0.420286 0.887007 -1.024791
v -0.077258 0.896871 -0.821867
v -0.127546 0.235407 -0.961836
v -0.525295 0.333741 -1.127099
v -1.010094 0.405838 -1.721611
v -0.116576 -0.091702 -1.820500
v -1.284400 0.030312 -1.605405
v 0.445059 1.228941 -1.770137
v -0.762176 1.753006 -1.673125
v -0.700488 -0.227136 -1.743053
v -0.104244 1.361983 -1.713956
v 0.174965 0.512098 -1.702507
v -0.367080 0.655770 -1.873715
v -1.066364 0.891659 -1.552778
v 0.476384 0.066853 -1.125597
v -0.676858 -0.080755 -1.217692
v 0.382401 1.523937 -1.351596
v -0.770839 1.376328 -1.649767
v -0.078396 -0.059592 -1.116449
v -0.161920 1.513683 -1.266282
v 0.424088 0.896288 -1.214148
v -0.136506 0.910402 -1.067333
v -0.729154 0.748679 -1.361333
v -0.638128 0.265833 -1.522401
v 0.173858 0.472180 -1.454048
v -1.019904 1.856822 -1.945270
v -0.452268 2.008707 -1.547769
v -0.302453 0.364997 -1.426388
v -0.819813 1.907343 -1.582710
v -0.962846 1.239151 -1.720230
v -0.650250 1.283628 -1.473888
v -0.240509 1.418789 -1.547067
v -0.403600 1.756940 -1.547470
v -0.747446 1.641152 -1.536267
v -0.995553 1.593211 -1.849227
vn 0.2000 0.6128 -0.7645
vn 0.0637 0.4150 -0.9076
vn -0.0774 0.6184 -0.7821
vn -0.1346 0.9226 -0.3614
vn 0.1062 0.8616 -0.4963
vn -0.1410 0.7850 -0.6032
vn -0.2631 0.7540 -0.6019
vn -0.0905 0.7111 -0.6972
vn -0.2284 0.6681 -0.7081
vn -0.0897 0.7113 -0.6971
vn -0.1888 0.5672 -0.8016
vn -0.0763 0.0031 -0.9971
vn -0.5379 -0.0599 -0.8409
vn -0.4034 0.0204 -0.9148
vn -0.1978 0.2623 -0.9445
vn -0.0246 0.0344 -0.9991
vn -0.3006 0.0050 -0.9537
vn -0.5337 0.0724 -0.8426
vn -0.2710 0.0389 -0.9618
vn -0.6191 0.0201 -0.7851
vn -0.1325 0.0420 -0.9903
vn 0.1657 0.0170 -0.9860
vn 0.1606 0.0315 -0.9865
vn -0.0709 0.7578 0.6486
vn -0.1916 -0.7092 -0.6785
vn 0.0404 -0.3955 -0.9176
vn -0.1436 -0.2371 -0.9608
vn 0.2467 -0.2915 -0.9242
vn 0.3453 -0.4081 -0.8451
vn 0.2094 -0.3560 -0.9107
vn -0.1971 -0.2499 0.9480
vn -0.4105 -0.2823 0.8671
vn -0.3958 -0.3085 0.8650
vn -0.5098 -0.3985 0.7624
vn -0.6703 0.3891 0.6319
vn -0.8214 0.3203 0.4720
vn -0.8182 0.2979 0.4918
vn -0.8998 0.1673 0.4028
vn -0.0595 -0.2727 -0.9603
vn 0.1646 -0.3192 -0.9333
vn 0.1493 -0.3442 -0.9269
vn 0.2789 -0.4411 -0.8530
vn -0.6573 0.0125 0.7536
vn -0.8148 0.0592 0.5768
vn -0.6703 0.0053 0.7421
vn -0.8266 0.0249 0.5622
vn -0.8959 -0.0754 0.4378
vn -0.8998 -0.0657 0.4312
vn -0.6305 0.0079 0.7762
vn -0.7944 0.0946 0.5999
vn -0.6511 0.0067 0.7590
vn -0.8196 0.0325 0.5719
vn -0.8842 -0.0656 0.4625
vn -0.8926 -0.0659 0.4460
vn -0.9621 -0.2499 -0.1093
vn -0.9011 -0.2823 -0.3292
vn -0.8976 -0.3084 -0.3148
vn -0.8060 -0.3985 -0.4377
vn 0.3795 -0.0199 -0.9250
vn 0.5675 0.0636 -0.8209
vn 0.5697 0.0336 -0.8212
vn 0.7057 0.0127 -0.7084
vn -0.5292 -0.2727 -0.8035
vn -0.3213 -0.3192 -0.8915
vn -0.3315 -0.3442 -0.8784
vn -0.1823 -0.4411 -0.8788
vn -0.6562 0.0129 0.7545
vn -0.8139 0.0628 0.5776
vn -0.8276 0.0277 0.5606
vn -0.8955 -0.0759 0.4386
vn -0.6328 0.0078 0.7743
vn -0.7971 0.0882 0.5974
vn -0.6522 0.0066 0.7580
vn -0.8190 0.0297 0.5731
vn -0.8851 -0.0656 0.4608
vn -0.8931 -0.0659 0.4451
vn -0.5345 0.1502 -0.8317
vn -0.2949 0.1571 -0.9425
vn -0.3108 0.1340 -0.9410
vn -0.1595 0.0616 -0.9853
vn 0.2742 0.5172 -0.8107
vn 0.1494 0.3035 -0.9410
vn -0.0005 0.5203 -0.8540
vn -0.0925 0.8726 -0.4796
vn 0.1589 0.7962 -0.5838
vn -0.0784 0.7070 -0.7028
vn -0.2003 0.6763 -0.7089
vn -0.0203 0.6225 -0.7824
vn -0.1570 0.5783 -0.8006
vn -0.0195 0.6227 -0.7822
vn -0.1101 0.4670 -0.8774
vn -0.1570 0.5783 -0.8005
vn 0.3428 0.9044 -0.2542
vn 0.0414 0.7396 -0.6718
vn -0.2721 0.3585 -0.8930
vn 0.4512 0.8923 0.0167
vn 0.2539 0.8376 -0.4838
vn 0.1424 0.9614 0.2355
vn 0.5166 0.6861 0.5123
vn 0.2001 0.6128 -0.7645
vn -0.1252 0.1232 0.9845
vn 0.2618 0.1164 0.9581
vn 0.2439 0.1589 0.9567
vn -0.3579 -0.0728 0.9309
vn -0.4868 0.0140 0.8734
vn -0.5091 -0.1012 0.8547
vn -0.2468 0.0138 0.9690
vn 0.0497 -0.0086 0.9987
vn 0.0483 -0.0000 0.9988
vn -0.4307 0.0132 0.9024
vn -0.1307 0.0853 0.9877
vn -0.4232 0.0989 0.9006
vn -0.2543 0.0539 -0.9656
vn 0.0573 0.0243 -0.9981
vn 0.0490 0.0106 -0.9987
vn -0.2066 -0.1088 -0.9723
vn -0.4388 -0.0562 -0.8968
vn -0.4113 -0.0392 -0.9107
vn 0.0573 -0.0114 -0.9983
vn -0.2200 -0.1124 -0.9690
vn 0.0632 -0.0017 -0.9980
vn -0.1783 -0.1399 -0.9740
vn -0.4623 -0.0612 -0.8846
vn -0.4231 -0.0541 -0.9045
vn 0.1015 0.6151 -0.7819
vn -0.0912 0.4443 -0.8912
vn -0.1688 0.6588 -0.7332
vn -0.0827 0.9481 -0.3070
vn 0.1089 0.8615 -0.4959
vn -0.1647 0.8240 -0.5422
vn -0.2862 0.8097 -0.5123
vn -0.1485 0.7484 -0.6464
vn -0.2898 0.7249 -0.6249
vn -0.1476 0.7485 -0.6465
vn -0.2877 0.6241 -0.7265
vn 0.1557 -0.1228 -0.9801
vn -0.1694 -0.1354 -0.9762
vn -0.1869 -0.1645 -0.9685
vn 0.1232 -0.0159 -0.9923
vn 0.3853 -0.0866 -0.9187
vn 0.1239 -0.1396 -0.9824
vn 0.1923 0.1177 -0.9742
vn -0.2338 -0.0557 -0.9707
vn -0.2540 0.0311 -0.9667
vn 0.5329 0.1962 -0.8231
vn 0.1965 0.2269 -0.9539
vn 0.5246 0.2979 -0.7975
vn 0.4695 -0.0104 -0.8829
vn 0.1235 -0.0796 -0.9891
vn 0.5071 0.1768 -0.8436
vn -0.2054 0.0522 -0.9773
vn 0.1812 -0.0218 -0.9832
vn -0.1400 -0.0688 -0.9878
vn -0.9496 0.1241 0.2879
vn -0.8908 -0.0695 0.4491
vn -0.9655 0.1020 0.2395
vn -0.6969 -0.2637 0.6669
vn -0.5522 -0.2930 0.7805
vn -0.7079 -0.2165 0.6724
vn -0.7736 -0.3517 0.5271
vn -0.6174 -0.3038 0.7256
vn -0.8218 -0.1817 0.5400
vn -0.6384 -0.0843 0.7651
vn -0.8276 0.0997 0.5524
vn -0.7561 0.0472 0.6527
vn -0.9239 -0.1506 0.3518
vn -0.8729 -0.3248 0.3641
vn -0.9147 -0.2645 0.3056
vn -0.7918 0.2390 0.5622
vn -0.9494 0.1157 0.2918
vn -0.8971 0.1737 0.4062
vn 0.2557 0.7931 -0.5528
vn 0.6481 0.7387 -0.1849
vn -0.2115 0.6156 -0.7592
vn 0.4512 0.8922 0.0167
vn -0.0282 0.9812 0.1909
vn 0.1124 0.9904 0.0806
vn -0.1545 0.9855 0.0696
vn -0.3070 0.9287 0.2082
vn -0.1135 0.9834 0.1415
vn -0.0427 0.9953 0.0870
vn -0.1159 0.9916 -0.0567
vn -0.1053 0.9881 -0.1122
vn -0.3003 0.9324 -0.2013
vn -0.1601 0.9861 -0.0442
vn -0.1420 0.2273 0.9634
vn -0.2541 0.2063 0.9449
vn -0.1416 0.2273 0.9635
vn -0.5602 0.1842 0.8076
vn -0.8651 0.2753 0.4194
vn -0.7643 0.1869 0.6171
vn -0.7742 0.0130 0.6329
vn -0.6960 0.0223 0.7177
vn -0.8036 0.1671 0.5712
vn -0.4138 -0.1243 0.9018
vn -0.5322 0.0828 0.8426
vn -0.3893 -0.0845 0.9172
vn -0.9452 0.2554 0.2034
vn -0.6516 0.1115 0.7503
vn -0.3443 0.1893 0.9196
vn -0.7474 -0.0001 0.6644
vn -0.4766 -0.1317 0.8692
vn -0.4435 0.0421 0.8953
vn -0.7599 -0.0800 0.6451
vn -0.8497 0.1176 0.5139
vn -0.8445 0.1125 0.5236
vn -0.1455 -0.0668 -0.9871
vn -0.3314 -0.1014 -0.9380
vn -0.1138 -0.0507 -0.9922
vn -0.0099 -0.1941 -0.9809
vn -0.1642 -0.1409 -0.9763
vn -0.1185 -0.0962 -0.9883
vn 0.3097 0.0361 -0.9502
vn 0.1124 0.0259 -0.9933
vn 0.3255 0.0779 -0.9423
vn -0.2091 0.0702 -0.9754
vn -0.3702 0.1497 -0.9168
vn -0.3166 0.1725 -0.9327
vn 0.1320 -0.1584 -0.9785
vn -0.2522 -0.2230 -0.9416
vn -0.2152 -0.0849 -0.9729
vn 0.2533 -0.3255 -0.9110
vn 0.4379 -0.1835 -0.8801
vn 0.5556 -0.3164 -0.7689
vn -0.2544 -0.1185 -0.9598
vn 0.0784 -0.1999 -0.9767
vn -0.2770 -0.2078 -0.9381
vn 0.2092 -0.2930 -0.9330
vn -0.0190 -0.1579 -0.9873
vn 0.1701 -0.1577 -0.9727
vn -0.6492 0.2295 0.7251
vn -0.5978 -0.0397 0.8007
vn -0.8483 0.1109 0.5177
vn -0.2754 0.0316 0.9608
vn -0.0730 0.1503 0.9859
vn -0.5237 0.1081 0.8450
vn -0.6144 -0.0449 0.7877
vn -0.3998 -0.0133 0.9165
vn -0.7026 -0.0044 0.7115
vn 0.0296 0.1109 0.9934
vn -0.2090 0.1145 0.9712
vn 0.0325 0.1118 0.9932
vn -0.4846 -0.3292 0.8104
vn -0.0060 -0.0086 0.9999
vn -0.0902 -0.0163 0.9958
vn -0.8393 0.1651 0.5180
vn -0.6894 -0.1430 0.7101
vn -0.8772 0.0907 0.4715
vn -0.2629 0.7544 -0.6015
vn -0.3562 0.6137 -0.7046
vn -0.3570 0.6133 -0.7045
vn -0.1892 0.5667 -0.8019
vn -0.5239 0.3453 -0.7787
vn -0.3114 0.5325 -0.7871
vn -0.2834 0.2801 -0.9172
vn -0.4896 0.7923 -0.3640
vn -0.3789 0.6961 -0.6098
vn -0.6250 0.5872 -0.5144
vn -0.5848 0.5274 -0.6163
vn -0.3584 0.1441 -0.9224
vn -0.8057 0.0896 -0.5856
vn -0.1103 0.1120 -0.9876
vn 0.1844 0.1191 -0.9756
vn 0.1802 0.1306 -0.9749
vn -0.3335 0.1759 -0.9262
vn -0.0486 0.1420 -0.9887
vn -0.2307 -0.0924 -0.9686
vn -0.1612 -0.1114 -0.9806
vn -0.2272 0.1602 -0.9606
vn 0.0088 0.1346 -0.9909
vn -0.2145 0.6986 0.6826
vn 0.1453 -0.6376 -0.7565
vn 0.1382 -0.2941 -0.9457
vn 0.1148 -0.3778 -0.9188
vn -0.1070 -0.2695 -0.9570
vn -0.0076 -0.4043 -0.9146
vn 0.1592 -0.4350 -0.8862
vn -0.1023 -0.2497 0.9629
vn -0.2987 -0.3311 0.8951
vn -0.2439 -0.4109 0.8785
vn -0.3086 -0.3716 0.8756
vn -0.3235 -0.3093 0.8943
vn -0.4712 -0.3631 0.8038
vn -0.5992 0.3955 0.6961
vn -0.7604 0.2956 0.5783
vn -0.7378 0.2208 0.6379
vn -0.7750 0.2520 0.5796
vn -0.7722 0.3131 0.5530
vn -0.8733 0.2195 0.4350
vn -0.1549 -0.2661 -0.9514
vn 0.0465 -0.3603 -0.9317
vn -0.0077 -0.4359 -0.9000
vn 0.0582 -0.4012 -0.9141
vn 0.0721 -0.3403 -0.9376
vn 0.2336 -0.4034 -0.8847
vn -0.6157 -0.0302 0.7874
vn -0.7733 -0.0477 0.6322
vn -0.7671 -0.1267 0.6289
vn -0.7918 -0.0720 0.6065
vn -0.7806 -0.0195 0.6248
vn -0.8801 -0.0382 0.4733
vn -0.5992 -0.0226 0.8003
vn -0.7642 -0.0475 0.6433
vn -0.7640 -0.1245 0.6331
vn -0.7843 -0.0589 0.6176
vn -0.7699 -0.0187 0.6379
vn -0.8733 -0.0377 0.4858
vn -0.9682 -0.2498 -0.0135
vn -0.9187 -0.3311 -0.2154
vn -0.8972 -0.4109 -0.1622
vn -0.9002 -0.3716 -0.2270
vn -0.9202 -0.3093 -0.2401
vn -0.8437 -0.3631 -0.3954
vn 0.3021 -0.0706 -0.9506
vn 0.5044 -0.0360 -0.8627
vn 0.5019 -0.1339 -0.8545
vn 0.5335 -0.0659 -0.8433
vn 0.5127 -0.0043 -0.8586
vn 0.6574 0.0244 -0.7532
vn -0.7750 0.2519 0.5796
vn -0.6076 -0.2661 -0.7484
vn -0.4230 -0.3603 -0.8314
vn -0.4543 -0.4359 -0.7769
vn -0.4041 -0.4012 -0.8220
vn -0.4038 -0.3403 -0.8492
vn -0.2373 -0.4034 -0.8837
vn -0.6170 -0.0311 0.7863
vn -0.7743 -0.0478 0.6310
vn -0.7695 -0.1248 0.6263
vn -0.7931 -0.0705 0.6050
vn -0.7812 -0.0196 0.6239
vn -0.8806 -0.0382 0.4724
vn -0.7639 -0.0475 0.6435
vn -0.7620 -0.1270 0.6350
vn -0.7837 -0.0611 0.6181
vn -0.7701 -0.0187 0.6377
vn -0.6116 0.1314 -0.7802
vn -0.3979 0.0970 -0.9123
vn -0.4279 -0.0127 -0.9037
vn -0.3696 0.0509 -0.9278
vn -0.3743 0.1176 -0.9198
vn -0.2068 0.0886 -0.9744
vn -0.2002 0.6766 -0.7086
vn -0.2852 0.5245 -0.8022
vn -0.2859 0.5242 -0.8022
vn -0.1105 0.4665 -0.8776
vn -0.4480 0.2489 -0.8587
vn -0.2338 0.4341 -0.8700
vn -0.1966 0.1680 -0.9660
vn -0.4471 0.7424 -0.4989
vn -0.3155 0.6177 -0.7204
vn -0.5703 0.5206 -0.6354
vn -0.1781 0.8994 -0.3992
vn -0.3215 0.7721 -0.5482
vn 0.0812 0.9967 0.0033
vn -0.3570 0.6133 -0.7046
vn -0.1827 0.2107 0.9603
vn -0.3999 -0.1377 0.9062
vn 0.0808 -0.0720 0.9941
vn -0.3426 -0.1525 0.9270
vn -0.1687 0.0762 0.9827
vn -0.5429 0.0338 0.8391
vn 0.0787 0.3947 0.9154
vn -0.1020 0.1313 0.9861
vn 0.2666 0.1568 0.9509
vn -0.5301 0.0747 0.8446
vn -0.2098 0.0746 0.9749
vn -0.2920 0.3816 0.8770
vn -0.1351 -0.1609 -0.9777
vn -0.1673 -0.0209 -0.9857
vn 0.1350 -0.0000 -0.9908
vn -0.2696 0.0883 -0.9589
vn -0.2608 0.0071 -0.9654
vn -0.4928 0.0098 -0.8701
vn 0.0785 -0.0000 -0.9969
vn -0.2142 -0.0145 -0.9767
vn -0.2015 0.0954 -0.9748
vn -0.2993 0.1267 -0.9457
vn -0.2930 0.0106 -0.9561
vn -0.5557 -0.0000 -0.8314
vn -0.2859 0.8100 -0.5120
vn -0.4197 0.6881 -0.5919
vn -0.4204 0.6879 -0.5917
vn -0.2883 0.6236 -0.7266
vn -0.6363 0.4485 -0.6277
vn -0.4073 0.6056 -0.6837
vn -0.4464 0.3580 -0.8201
vn -0.4434 0.8671 -0.2271
vn -0.4077 0.7684 -0.4934
vn -0.6378 0.6893 -0.3437
vn 0.0911 0.0628 -0.9939
vn 0.1490 -0.0963 -0.9841
vn -0.1538 -0.1507 -0.9765
vn 0.1926 -0.0718 -0.9787
vn 0.4705 -0.0048 -0.8824
vn 0.4390 0.0370 -0.8977
vn -0.0224 0.4235 -0.9056
vn 0.1535 0.0550 -0.9866
vn -0.3332 -0.0180 -0.9427
vn 0.5373 0.0974 -0.8378
vn 0.1334 -0.0229 -0.9908
vn 0.1427 0.3420 -0.9288
vn 0.3956 -0.1729 -0.9020
vn 0.1521 -0.1782 -0.9722
vn 0.1985 0.0724 -0.9774
vn -0.3988 -0.2512 -0.8820
vn 0.1463 -0.0362 -0.9886
vn 0.1215 -0.3768 -0.9183
vn -0.6964 -0.2745 0.6631
vn -0.4124 -0.3542 0.8393
vn -0.5196 -0.2185 0.8260
vn -0.7134 -0.0590 0.6983
vn -0.6368 -0.1650 0.7532
vn -0.6191 -0.2086 0.7571
vn -0.9207 -0.0880 0.3802
vn -0.8508 -0.0522 0.5229
vn -0.8052 -0.0091 0.5929
vn -0.6122 -0.3146 0.7254
vn -0.6734 -0.2641 0.6905
vn -0.7208 -0.3132 0.6183
vn -0.8241 -0.1284 0.5517
vn -0.7263 -0.0994 0.6801
vn -0.8218 -0.1790 0.5409
vn -0.6131 -0.2935 0.7334
vn -0.6970 -0.2963 0.6530
vn -0.7341 -0.3586 0.5767
vn 0.5167 0.5352 -0.6683
vn -0.0432 0.9336 -0.3556
vn -0.2116 0.6156 -0.7592
vn -0.0756 0.9923 0.0985
vn -0.0568 0.9871 0.1499
vn 0.1031 0.9907 0.0892
vn 0.0206 0.9786 0.2046
vn -0.1910 0.9556 0.2246
vn -0.0251 0.9858 0.1662
vn -0.1361 0.9895 0.0495
vn -0.1751 0.9787 0.1073
vn -0.1732 0.9804 0.0942
vn -0.2774 0.9556 -0.0996
vn -0.5069 0.1498 0.8489
vn -0.7960 0.0562 0.6026
vn -0.5324 0.0366 0.8457
vn -0.7011 0.0484 0.7114
vn -0.9560 0.2450 0.1616
vn -0.9177 0.2521 0.3070
vn -0.7396 -0.1041 0.6649
vn -0.5662 -0.1209 0.8154
vn -0.6972 -0.0098 0.7168
vn -0.4416 -0.0772 0.8939
vn -0.7021 0.0425 0.7108
vn -0.5883 -0.1328 0.7977
vn -0.4695 0.2372 0.8505
vn -0.6487 0.0543 0.7591
vn -0.3874 -0.0662 0.9195
vn -0.7432 0.2181 0.6325
vn -0.7350 0.1575 0.6595
vn -0.5724 0.1782 0.8004
vn -0.9466 -0.0947 0.3082
vn -0.8883 0.0967 0.4489
vn -0.9637 0.1276 0.2344
vn 0.3163 0.0580 -0.9469
vn 0.1163 0.1137 -0.9867
vn 0.1296 0.2160 -0.9678
vn -0.1632 0.3365 -0.9274
vn -0.2301 0.2686 -0.9354
vn -0.3662 0.3153 -0.8755
vn -0.1065 -0.1061 -0.9886
vn -0.4160 -0.0157 -0.9092
vn -0.2508 0.0340 -0.9675
vn -0.0710 0.0050 -0.9975
vn -0.1297 -0.0779 -0.9885
vn -0.2495 -0.0489 -0.9671
vn 0.0641 0.0125 -0.9979
vn 0.2675 -0.3366 -0.9028
vn -0.1411 -0.3154 -0.9384
vn 0.2396 -0.4826 -0.8425
vn 0.1237 -0.1217 -0.9848
vn 0.5008 -0.0484 -0.8642
vn -0.0276 0.0489 -0.9984
vn 0.2110 0.0462 -0.9764
vn 0.1297 -0.2533 -0.9587
vn 0.5435 0.0069 -0.8394
vn 0.2669 -0.0652 -0.9615
vn 0.3064 0.2149 -0.9273
vn -0.4569 -0.1121 0.8824
vn -0.0467 -0.0256 0.9986
vn -0.3384 0.0699 0.9384
vn -0.1236 0.1531 0.9804
vn 0.1603 0.0678 0.9847
vn 0.1264 0.0295 0.9915
vn -0.2612 -0.0491 0.9640
vn 0.0961 0.0585 0.9937
vn -0.1020 0.1456 0.9841
vn 0.1391 0.1064 0.9845
vn -0.1534 0.0485 0.9870
vn -0.0482 -0.0463 0.9978
vn -0.5287 0.2303 0.8169
vn -0.3727 0.1604 0.9140
vn 0.0219 0.2355 0.9716
vn -0.7109 -0.0818 0.6985
vn -0.2954 0.0025 0.9554
vn -0.4979 0.0193 0.8670
vt 0.209600 0.911001
vt 0.123001 0.995742
vt 0.123001 0.911001
vt 0.123001 0.826261
vt 0.040119 0.911001
vt 0.040119 0.995742
vt 0.040119 0.826261
vt 0.258522 0.488450
vt 0.051797 0.331816
vt 0.308388 0.319811
vt -0.017550 0.574956
vt 0.030662 0.424972
vt 0.539201 0.362330
vt 0.442119 0.678080
vt 0.205704 0.678047
vt 0.743296 0.415675
vt 0.758434 0.377283
vt 0.752345 0.411028
vt 0.749134 0.382042
vt 0.754777 0.419245
vt 0.743793 0.415822
vt 0.520786 0.732207
vt 0.723849 0.853403
vt 0.498620 0.817269
vt 0.768180 0.683280
vt 0.759374 0.764694
vt 0.306118 0.319842
vt 0.163209 -0.008545
vt 0.268744 0.010467
vt 0.007304 0.281818
vt 0.057675 -0.019163
vt 0.307644 0.319842
vt 0.011119 0.281818
vt 0.057675 -0.011533
vt 0.764883 0.768342
vt 0.542952 0.623245
vt 0.297209 0.187193
vt 0.163209 -0.007877
vt 0.268744 0.003066
vt 0.029771 0.165688
vt 0.057675 0.004490
vt 0.297161 0.319842
vt 0.149897 0.171560
vt 0.009669 0.281818
vt 0.305106 0.319842
vt 0.163209 -0.013815
vt 0.288721 0.042513
vt 0.034772 0.281818
vt 0.308435 0.319842
vt 0.163209 -0.015120
vt 0.279398 -0.008095
vt 0.006804 0.281818
vt 0.043691 0.004490
vt 0.245841 0.350473
vt 0.163209 -0.007796
vt 0.268744 0.011216
vt 0.013463 0.312449
vt 0.040361 0.004490
vt 0.305106 0.323837
vt 0.163209 -0.001803
vt 0.290053 0.017209
vt 0.034772 0.315113
vt 0.057675 -0.020814
vt 0.307981 0.197644
vt 0.163209 -0.009793
vt 0.295380 0.009218
vt 0.019798 0.159620
vt 0.057675 -0.028805
vt 0.269813 0.352470
vt 0.150637 0.178632
vt 0.034772 0.314447
vt 0.244705 0.357928
vt 0.164214 0.001263
vt 0.267672 0.019825
vt 0.022726 0.321461
vt 0.039867 -0.017843
vt 0.195405 0.750981
vt 0.114579 0.830072
vt 0.114579 0.750981
vt 0.114579 0.671890
vt 0.037222 0.750981
vt 0.037222 0.830072
vt 0.037222 0.671890
vt 0.237502 0.689856
vt 0.359794 0.825164
vt 0.237504 0.825166
vt 0.482087 0.689856
vt 0.482084 0.825162
vt 0.359794 0.689856
vt 0.110616 0.348738
vt 0.311340 0.320138
vt -0.022156 0.614569
vt 0.486383 0.551927
vt 0.455520 0.693482
vt 0.049635 0.356918
vt 0.303326 0.327634
vt 0.211660 0.656653
vt 0.519070 0.434500
vt 0.447780 0.690442
vt 0.207095 0.753302
vt 0.115210 0.843215
vt 0.115210 0.753302
vt 0.115210 0.663390
vt 0.027270 0.753302
vt 0.027270 0.843215
vt 0.027270 0.663390
vt 0.794922 0.306164
vt 0.608569 0.426614
vt 0.608353 0.306164
vt 0.990224 0.426545
vt 0.788777 0.450706
vt 0.791298 0.054418
vt 0.608353 0.230404
vt 0.604090 0.058455
vt 0.981491 0.230404
vt 0.981254 0.057332
vt 0.981491 0.306164
vt 0.794922 0.230404
vt 0.329451 0.331812
vt 0.019204 0.358276
vt 0.259885 0.518691
vt 0.430501 0.372071
vt 0.205704 0.665832
vt 0.375258 0.565863
vt 0.368658 0.645093
vt 0.489107 0.612411
vt 0.544649 0.483297
vt 0.517302 0.650603
vt 0.350422 0.830322
vt 0.228132 0.965632
vt 0.228129 0.830322
vt 0.350422 0.965630
vt 0.472714 0.830322
vt 0.472711 0.965628
vt 0.290898 0.167149
vt 0.581587 0.282304
vt 0.311266 0.347910
vt 0.575708 0.033974
vt 0.602240 0.129719
vt 0.287223 0.325892
vt 0.586134 0.132000
vt 0.601115 0.288104
vt 0.028824 0.574098
vt 0.239032 0.648749
vt 0.053764 0.670620
vt 0.259933 0.546723
vt 0.191937 0.528727
vt 0.230830 0.522630
vt 0.484211 0.324401
vt 0.405008 0.529205
vt 0.398066 0.317191
vt 0.412825 0.628232
vt 0.494141 0.518568
vt 0.518965 0.615702
vt 0.151185 0.552245
vt 0.234142 0.349490
vt 0.248054 0.319136
vt 0.057155 0.509475
vt 0.015519 0.340957
vt 0.274615 0.675588
vt 0.037350 0.682460
vt 0.428377 0.297533
vt 0.253288 0.471905
vt 0.498686 0.626902
vt 0.789239 0.239378
vt 0.561062 0.388955
vt 0.586785 0.208576
vt 0.761094 0.418008
vt 0.992980 0.264217
vt 0.967331 0.453957
vt 0.619455 -0.018760
vt 0.825555 -0.008950
vt 1.028357 0.020486
vt 0.702206 0.452238
vt 0.625596 0.546663
vt 0.607845 0.444785
vt 0.720606 0.549442
vt 0.618885 0.640176
vt 0.957008 0.473727
vt 0.708924 0.653672
vt 0.959408 0.567901
vt 0.963955 0.688683
vt 0.554858 0.544593
vt 0.556387 0.648271
vt 0.537589 0.439236
vt 0.209600 0.995742
vt 0.209600 0.826261
vt 0.536714 0.619047
vt 0.140306 0.335928
vt 0.140306 0.338217
vt 0.140306 0.345122
vt 0.140306 0.338120
vt 0.140306 0.336122
vt 0.140306 0.331461
vt 0.140306 0.334124
vt 0.140306 0.333459
vt 0.140838 0.339347
vt 0.195405 0.830072
vt 0.195405 0.671890
vt 0.207095 0.843215
vt 0.207095 0.663390
vt 0.292298 0.057567
vt 0.510131 0.436884
s 0
f 6/1/1 7/2/2 8/3/3
f 9/4/4 6/1/5 8/3/6
f 5/5/7 7/2/8 3/6/9
f 9/4/10 5/5/11 1/7/9
f 17/8/12 12/9/13 16/10/14
f 17/8/15 13/11/16 15/12/17
f 10/13/18 17/8/19 16/10/20
f 17/8/21 11/14/22 18/15/23
f 22/16/24 20/17/24 21/18/24
f 23/19/25 25/20/25 26/21/25
f 31/22/26 29/23/27 27/24/27
f 31/22/28 30/25/29 32/26/30
f 33/27/31 38/28/32 35/29/31
f 38/28/33 34/30/34 36/31/34
f 39/32/35 44/28/36 41/29/35
f 44/28/37 40/33/38 42/34/38
f 45/24/39 50/35/40 47/23/39
f 50/35/41 46/36/42 48/25/42
f 57/37/43 56/38/44 53/39/45
f 56/38/46 59/40/47 54/41/48
f 51/42/49 58/43/50 57/37/51
f 58/43/52 52/44/53 59/40/54
f 60/45/55 65/46/56 62/47/55
f 65/46/57 61/48/58 63/41/58
f 66/49/59 71/50/60 68/51/59
f 71/50/61 67/52/62 69/53/62
f 72/54/35 77/55/36 74/56/35
f 77/55/37 73/57/38 75/58/38
f 78/59/63 83/60/64 80/61/63
f 83/60/65 79/62/66 81/63/66
f 90/64/67 89/65/68 86/66/45
f 89/65/69 92/67/70 87/68/48
f 84/69/71 91/70/72 90/64/73
f 91/70/74 85/71/75 92/67/76
f 93/72/77 98/73/78 95/74/77
f 98/73/79 94/75/80 96/76/80
f 104/77/81 105/78/82 106/79/83
f 107/80/84 104/77/85 106/79/86
f 103/81/87 105/78/88 101/82/89
f 107/80/90 103/81/91 99/83/92
f 108/84/93 113/85/94 110/86/93
f 113/85/94 109/87/95 111/88/95
f 118/89/96 116/86/97 114/84/97
f 118/89/98 117/88/99 119/85/96
f 125/1/100 126/2/2 127/3/3
f 128/4/4 125/1/5 127/3/6
f 124/5/7 126/2/8 122/6/9
f 128/4/10 124/5/11 120/7/9
f 136/8/101 131/90/102 135/91/103
f 134/12/104 137/15/105 132/92/106
f 133/93/107 135/91/108 129/13/109
f 137/15/110 133/93/111 130/94/112
f 145/8/113 140/95/114 144/96/115
f 143/12/116 146/97/117 141/92/118
f 138/98/119 145/8/120 144/96/121
f 145/8/122 139/99/123 146/97/124
f 152/100/125 153/101/126 154/102/127
f 155/103/128 152/100/129 154/102/130
f 151/104/131 153/101/132 149/105/133
f 155/103/134 151/104/135 147/106/133
f 163/107/136 158/108/137 162/109/138
f 163/107/139 159/110/140 161/111/141
f 160/112/142 167/113/143 156/114/144
f 165/115/145 160/112/146 157/116/147
f 164/117/148 166/118/149 165/115/150
f 167/113/151 163/107/152 162/109/153
f 174/119/154 173/12/155 170/120/156
f 175/121/157 171/92/158 173/12/159
f 177/122/160 175/121/161 174/119/162
f 176/123/163 178/124/164 179/125/165
f 172/126/166 177/122/167 168/127/168
f 179/125/169 172/126/170 169/128/171
f 184/129/172 182/130/173 180/131/173
f 185/132/172 181/133/174 183/134/174
f 190/129/175 188/130/97 186/131/97
f 190/129/98 189/134/99 191/132/96
f 196/135/176 194/136/177 192/137/177
f 196/135/178 195/138/179 197/139/180
f 198/140/181 203/141/182 200/142/181
f 202/135/183 201/138/184 203/141/185
f 209/143/186 214/144/187 207/145/188
f 213/146/189 212/147/190 211/148/191
f 204/149/192 216/150/193 217/151/194
f 215/152/195 208/153/196 205/154/197
f 210/155/198 213/146/199 209/143/200
f 213/146/201 215/152/202 214/144/203
f 216/150/204 211/148/205 206/156/206
f 224/157/207 223/158/208 220/159/209
f 223/158/210 226/160/211 221/161/212
f 218/162/213 225/163/214 224/157/215
f 225/163/216 219/164/217 226/160/218
f 234/165/219 229/166/220 233/167/221
f 232/168/222 235/169/223 230/170/224
f 227/171/225 234/165/226 233/167/227
f 235/169/228 231/172/229 228/173/230
f 242/174/231 246/175/232 247/176/233
f 243/177/234 245/178/235 246/175/236
f 236/179/237 243/177/238 242/174/239
f 244/180/240 240/181/241 237/182/242
f 241/183/243 245/178/244 239/184/245
f 247/176/246 241/183/247 238/185/248
f 6/1/249 4/186/9 7/2/250
f 9/4/251 2/187/9 6/1/252
f 5/5/253 8/3/254 7/2/255
f 9/4/256 8/3/257 5/5/258
f 17/8/259 15/12/260 12/9/261
f 17/8/262 18/15/263 13/11/264
f 10/13/265 14/93/266 17/8/267
f 17/8/268 14/93/269 11/14/270
f 22/16/271 19/19/271 20/17/271
f 23/19/272 24/17/272 25/20/272
f 31/22/273 32/26/274 29/23/275
f 31/22/276 28/188/277 30/25/277
f 33/27/278 37/189/279 38/28/280
f 38/28/281 37/189/282 34/30/283
f 39/32/284 43/190/285 44/28/286
f 44/28/287 43/190/288 40/33/289
f 45/24/290 49/22/291 50/35/292
f 50/35/293 49/22/294 46/36/295
f 57/37/296 58/43/297 56/38/298
f 56/38/299 58/43/300 59/40/301
f 51/42/302 55/191/303 58/43/304
f 58/43/305 55/191/306 52/44/307
f 60/45/308 64/192/309 65/46/310
f 65/46/311 64/192/312 61/48/313
f 66/49/314 70/193/315 71/50/316
f 71/50/317 70/193/318 67/52/319
f 72/54/284 76/194/285 77/55/286
f 77/55/320 76/194/288 73/57/289
f 78/59/321 82/195/322 83/60/323
f 83/60/324 82/195/325 79/62/326
f 90/64/327 91/70/328 89/65/329
f 89/65/330 91/70/331 92/67/332
f 84/69/302 88/196/333 91/70/334
f 91/70/335 88/196/336 85/71/307
f 93/72/337 97/197/338 98/73/339
f 98/73/340 97/197/341 94/75/342
f 104/77/343 102/198/92 105/78/344
f 107/80/345 100/199/89 104/77/346
f 103/81/347 106/79/348 105/78/349
f 107/80/350 106/79/351 103/81/352
f 108/84/93 112/89/94 113/85/353
f 113/85/354 112/89/94 109/87/95
f 118/89/355 119/85/96 116/86/97
f 118/89/96 115/87/99 117/88/99
f 125/1/249 123/186/9 126/2/250
f 128/4/356 121/187/9 125/1/252
f 124/5/253 127/3/254 126/2/255
f 128/4/256 127/3/257 124/5/258
f 136/8/357 134/12/358 131/90/359
f 134/12/360 136/8/361 137/15/362
f 133/93/363 136/8/364 135/91/365
f 137/15/366 136/8/367 133/93/368
f 145/8/369 143/12/370 140/95/371
f 143/12/372 145/8/373 146/97/374
f 138/98/375 142/93/376 145/8/377
f 145/8/378 142/93/379 139/99/380
f 152/100/381 150/200/133 153/101/382
f 155/103/383 148/201/133 152/100/384
f 151/104/385 154/102/386 153/101/387
f 155/103/388 154/102/389 151/104/390
f 163/107/391 161/111/392 158/108/393
f 163/107/394 164/117/395 159/110/396
f 160/112/397 166/118/398 167/113/399
f 165/115/400 166/118/401 160/112/402
f 164/117/403 163/107/404 166/118/405
f 167/113/406 166/118/407 163/107/408
f 174/119/409 175/121/410 173/12/411
f 175/121/412 176/123/413 171/92/414
f 177/122/415 178/124/416 175/121/417
f 176/123/418 175/121/419 178/124/420
f 172/126/421 178/124/422 177/122/423
f 179/125/424 178/124/425 172/126/426
f 184/129/427 185/132/172 182/130/173
f 185/132/428 184/129/172 181/133/429
f 190/129/355 191/132/96 188/130/97
f 190/129/96 187/133/99 189/134/99
f 196/135/430 197/139/431 194/136/432
f 196/135/433 193/202/434 195/138/434
f 198/140/435 202/135/436 203/141/437
f 202/135/438 199/202/439 201/138/439
f 209/143/440 213/146/441 214/144/442
f 213/146/443 210/155/444 212/147/445
f 204/149/446 208/153/447 216/150/448
f 215/152/449 216/150/450 208/153/451
f 213/146/452 216/150/453 215/152/454
f 206/156/455 217/151/456 216/150/457
f 216/150/458 213/146/459 211/148/460
f 224/157/461 225/163/462 223/158/463
f 223/158/464 225/163/465 226/160/466
f 218/162/467 222/203/468 225/163/469
f 225/163/470 222/203/471 219/164/472
f 234/165/473 232/168/474 229/166/475
f 232/168/476 234/165/477 235/169/478
f 227/171/479 231/172/480 234/165/481
f 235/169/482 234/165/483 231/172/484
f 242/174/485 243/177/486 246/175/487
f 243/177/488 244/180/489 245/178/490
f 236/179/491 240/181/492 243/177/493
f 244/180/494 243/177/495 240/181/496
f 241/183/497 246/175/498 245/178/499
f 247/176/500 246/175/501 241/183/502
