# Blender 4.2.1 LTS
# www.blender.org
mtllib grass.mtl
o Plane.001
v -0.014352 0.550754 0.193689
v 0.127150 0.552085 0.135447
v 0.028999 0.263026 0.240150
v -0.001378 -0.023802 0.206271
v 0.170501 0.264357 0.181909
v 0.264399 0.265688 0.037687
v 0.144475 -0.023802 0.153354
v 0.227390 -0.023802 0.038841
v 0.191850 -0.023802 -0.091933
v 0.041192 -0.023802 -0.187689
v 0.223039 0.267019 -0.093279
v 0.061057 0.268350 -0.194834
v 0.142916 0.554747 -0.090739
v 0.191228 0.553416 0.026903
v -0.011677 0.556078 -0.171557
v 0.088187 0.550754 -0.169041
v -0.049411 0.552085 -0.106522
v 0.041877 0.263026 -0.214129
v 0.074413 -0.023802 -0.181214
v -0.095721 0.264357 -0.151610
v -0.180207 0.265688 -0.004655
v -0.067876 -0.023802 -0.123881
v -0.143309 -0.023802 -0.006941
v -0.099353 -0.023802 0.122614
v 0.057343 -0.023802 0.213660
v -0.130424 0.267019 0.124915
v 0.037959 0.268350 0.221407
v -0.050546 0.554747 0.119923
v -0.106412 0.553416 0.003877
v 0.109117 0.556078 0.195925
vn 0.3711 0.2023 0.9063
vn 0.3660 -0.1314 0.9213
vn 0.3501 -0.1393 0.9263
vn 0.3786 -0.1251 0.9171
vn 0.8252 -0.1119 0.5536
vn 0.8137 -0.1216 0.5684
vn 0.8339 -0.1044 0.5420
vn 0.8221 0.2221 0.5242
vn 0.8328 0.2140 0.5105
vn 0.8413 0.2074 0.4992
vn 0.9562 -0.1092 -0.2718
vn 0.9500 -0.1172 -0.2893
vn 0.9461 -0.1221 -0.3000
vn 0.5335 -0.0584 -0.8438
vn 0.5318 -0.0594 -0.8448
vn 0.5298 -0.0607 -0.8459
vn 0.4809 0.1748 -0.8592
vn 0.5034 0.1644 -0.8483
vn 0.4565 0.1858 -0.8701
vn 0.9056 0.2457 -0.3458
vn 0.9218 0.2325 -0.3101
vn 0.8960 0.2527 -0.3651
vn -0.4033 0.2047 -0.8919
vn -0.3987 -0.1329 -0.9074
vn -0.3824 -0.1410 -0.9132
vn -0.4113 -0.1266 -0.9026
vn -0.8543 -0.1135 -0.5072
vn -0.8430 -0.1236 -0.5235
vn -0.8625 -0.1060 -0.4949
vn -0.8493 0.2254 -0.4774
vn -0.8597 0.2170 -0.4624
vn -0.8677 0.2102 -0.4505
vn -0.9377 -0.1081 0.3301
vn -0.9308 -0.1160 0.3468
vn -0.9262 -0.1209 0.3571
vn -0.4995 -0.0575 0.8644
vn -0.4979 -0.0585 0.8652
vn -0.4960 -0.0598 0.8663
vn -0.4483 0.1723 0.8771
vn -0.4699 0.1623 0.8677
vn -0.4238 0.1834 0.8870
vn -0.8841 0.2429 0.3993
vn -0.9018 0.2302 0.3657
vn -0.8736 0.2498 0.4177
vn 0.3374 -0.1456 0.9300
vn 0.8031 -0.1302 0.5815
vn 0.8151 0.2273 0.5328
vn 0.9598 -0.1041 -0.2608
vn 0.5355 -0.0570 -0.8426
vn 0.5258 0.1538 -0.8366
vn 0.9297 0.2255 -0.2913
vn -0.3697 -0.1472 -0.9174
vn -0.8330 -0.1322 -0.5373
vn -0.8427 0.2306 -0.4866
vn -0.9419 -0.1032 0.3196
vn -0.5016 -0.0562 0.8633
vn -0.4924 0.1516 0.8571
vn -0.9107 0.2233 0.3476
vt 0.500000 0.000000
vt 0.000000 0.250000
vt 0.000000 0.000000
vt 1.000000 0.250000
vt 0.500000 0.250000
vt 1.000000 0.500000
vt 0.500000 0.500000
vt 0.000000 0.500000
vt 0.500000 0.750000
vt 1.000000 0.750000
vt 0.500000 1.000000
vt 0.000000 0.750000
vt 0.000000 1.000000
vt 1.000000 0.000000
vt 1.000000 1.000000
s 1
usemtl Material.001
f 3/1/1 2/2/1 1/3/1
f 3/1/2 7/4/3 5/5/4
f 5/5/5 8/6/6 6/7/7
f 5/5/8 14/8/9 2/2/10
f 8/6/11 11/9/12 6/7/13
f 9/10/14 12/11/15 11/9/16
f 13/12/17 12/11/18 15/13/19
f 14/8/20 11/9/21 13/12/22
f 18/1/23 17/2/23 16/3/23
f 18/1/24 22/4/25 20/5/26
f 20/5/27 23/6/28 21/7/29
f 20/5/30 29/8/31 17/2/32
f 23/6/33 26/9/34 21/7/35
f 24/10/36 27/11/37 26/9/38
f 28/12/39 27/11/40 30/13/41
f 29/8/42 26/9/43 28/12/44
f 3/1/1 5/5/1 2/2/1
f 3/1/2 4/14/45 7/4/3
f 5/5/5 7/4/46 8/6/6
f 5/5/8 6/7/47 14/8/9
f 8/6/11 9/10/48 11/9/12
f 9/10/14 10/15/49 12/11/15
f 13/12/17 11/9/50 12/11/18
f 14/8/20 6/7/51 11/9/21
f 18/1/23 20/5/23 17/2/23
f 18/1/24 19/14/52 22/4/25
f 20/5/27 22/4/53 23/6/28
f 20/5/30 21/7/54 29/8/31
f 23/6/33 24/10/55 26/9/34
f 24/10/36 25/15/56 27/11/37
f 28/12/39 26/9/57 27/11/40
f 29/8/42 21/7/58 26/9/43
