# Blender 4.2.1 LTS
# www.blender.org
mtllib small_bush.mtl
o bush_leaf.001
v 0.000625 0.008032 0.023293
v -0.001803 -0.007714 -0.030037
v 0.227282 0.344767 -0.059943
v 0.220955 0.311531 -0.148813
v 0.000469 0.000690 0.001423
v 0.241859 0.348479 -0.092296
v 0.073883 0.113525 0.085969
v 0.063174 0.044074 -0.149254
v 0.076690 0.073027 -0.023405
v 0.124813 0.121076 -0.181142
v 0.139692 0.153326 -0.048326
v 0.137046 0.200412 0.087563
v 0.171666 0.198735 -0.176859
v 0.185555 0.224563 -0.065793
v 0.182260 0.267440 0.055841
v 0.214055 0.289215 -0.156192
v 0.227912 0.307052 -0.083567
v 0.219584 0.325068 -0.034759
v 0.018449 -0.008393 0.008912
v -0.026175 0.014234 -0.010690
v 0.256595 0.326835 -0.063849
v 0.169176 0.348439 -0.094407
v 0.000000 0.000000 -0.000000
v 0.239064 0.350470 -0.084025
v 0.180163 0.041326 0.013644
v -0.040327 0.114576 -0.065646
v 0.077269 0.070096 -0.033215
v 0.014498 0.195909 -0.090082
v 0.139627 0.150447 -0.055766
v 0.266372 0.112231 0.000494
v 0.077367 0.261411 -0.099680
v 0.182108 0.222723 -0.072696
v 0.295491 0.188947 -0.021241
v 0.157607 0.330000 -0.096099
v 0.228556 0.306306 -0.082338
v 0.271433 0.292185 -0.055166
v 0.028203 0.003730 0.001476
v -0.027015 -0.002516 -0.001669
v 0.022067 0.375923 -0.180530
v -0.071313 0.358397 -0.184496
v 0.005483 0.000411 -0.000767
v -0.007841 0.387122 -0.196439
v 0.113650 0.104922 -0.052213
v -0.129900 0.077374 -0.066081
v -0.000296 0.085096 -0.067505
v -0.143087 0.166005 -0.118198
v -0.005972 0.175886 -0.120071
v 0.135131 0.197474 -0.102356
v -0.121905 0.247000 -0.153348
v -0.007310 0.254333 -0.156503
v 0.119033 0.274253 -0.139629
v -0.082875 0.337044 -0.181266
v -0.007375 0.343372 -0.187915
v 0.042856 0.351265 -0.174106
v 0.012868 -0.007491 -0.019339
v -0.006443 0.012384 0.026700
v 0.017755 0.362841 -0.212252
v -0.016162 0.378212 -0.124754
v 0.003930 -0.000070 -0.000490
v 0.000375 0.387247 -0.192880
v 0.039692 0.060763 -0.171876
v -0.044903 0.118235 0.051303
v -0.010370 0.084043 -0.069102
v -0.050633 0.208908 0.006994
v -0.013766 0.174383 -0.120875
v 0.046003 0.143255 -0.247953
v -0.043738 0.282531 -0.046555
v -0.014693 0.253320 -0.153787
v 0.039949 0.225675 -0.267339
v -0.021892 0.359044 -0.116011
v -0.006236 0.342508 -0.188579
v 0.021779 0.329374 -0.231226
v 0.026310 0.003635 -0.011288
v -0.022344 -0.000338 0.009692
v 0.095158 0.356440 0.153783
v 0.012165 0.343096 0.188052
v 0.006574 0.001274 -0.001805
v 0.074044 0.368006 0.177875
v 0.124414 0.096303 0.008707
v -0.090181 0.078780 0.101244
v 0.026638 0.081370 0.059891
v -0.081401 0.163107 0.152273
v 0.042374 0.167475 0.108853
v 0.163740 0.183125 0.046564
v -0.047721 0.239116 0.176795
v 0.056211 0.241863 0.141931
v 0.164572 0.256451 0.085250
v -0.000083 0.323197 0.188964
v 0.069952 0.326373 0.170089
v 0.110700 0.332243 0.141192
v 0.018981 -0.006782 0.012410
v -0.012665 0.013496 -0.022500
v 0.101212 0.343697 0.183631
v 0.042687 0.360768 0.116372
v 0.005073 0.000875 -0.001543
v 0.080236 0.367872 0.171984
v 0.095793 0.055304 0.140275
v -0.051055 0.116198 -0.031913
v 0.018100 0.080715 0.064636
v -0.038084 0.202303 0.009667
v 0.035601 0.166317 0.112137
v 0.129666 0.132742 0.206365
v -0.011439 0.271560 0.055377
v 0.048668 0.241204 0.141925
v 0.133834 0.211319 0.225718
v 0.033935 0.342812 0.110425
v 0.071156 0.325499 0.170309
v 0.109744 0.311376 0.199316
v -0.002455 0.002473 -0.024399
v 0.004289 -0.000694 0.030759
v -0.202987 0.364539 -0.004722
v -0.189829 0.352310 0.088659
v -0.000568 0.000375 -0.001502
v -0.214189 0.376630 0.026922
v -0.076031 0.095612 -0.103994
v -0.046283 0.081646 0.139292
v -0.070348 0.081709 0.011699
v -0.100657 0.168098 0.157040
v -0.126582 0.169852 0.022034
v -0.134639 0.184052 -0.120877
v -0.143769 0.245805 0.138399
v -0.166944 0.246267 0.025889
v -0.173198 0.259621 -0.102277
v -0.183376 0.331862 0.100505
v -0.203229 0.333424 0.027102
v -0.198733 0.339072 -0.025090
v -0.019615 -0.008889 -0.005145
v 0.027758 0.014419 0.004858
v -0.232648 0.350117 0.005683
v -0.141731 0.371920 0.023044
v -0.000000 0.000000 0.000000
v -0.212104 0.376459 0.018215
v -0.178352 0.049750 -0.008255
v 0.052108 0.123460 0.033253
v -0.070130 0.081165 0.021937
v 0.004010 0.211914 0.042207
v -0.125947 0.168767 0.029912
v -0.259254 0.127712 -0.005210
v -0.054299 0.282158 0.041183
v -0.162946 0.245827 0.032726
v -0.282287 0.209239 0.000120
v -0.130988 0.353593 0.028087
v -0.204024 0.332463 0.026140
v -0.249962 0.315541 0.006659
v -0.012746 0.000734 0.022687
v 0.016129 0.005121 -0.021700
v -0.112143 0.383586 0.024883
v -0.062939 0.384353 -0.051398
v -0.001652 0.002088 0.003710
v -0.105880 0.402619 -0.002659
v -0.093160 0.091154 0.085690
v 0.034196 0.110502 -0.110083
v -0.040869 0.096018 -0.012519
v 0.010657 0.205754 -0.122932
v -0.068876 0.192074 -0.019432
v -0.134827 0.183653 0.100709
v -0.020586 0.284204 -0.103373
v -0.088343 0.272313 -0.017976
v -0.146576 0.265064 0.090301
v -0.055816 0.366128 -0.064203
v -0.103770 0.360751 -0.009955
v -0.121563 0.356140 0.036864
v -0.020668 -0.001875 -0.002892
v 0.027079 0.008375 0.012809
v -0.134830 0.380047 0.001161
v -0.047769 0.378710 0.026833
v -0.000592 0.001845 0.002571
v -0.107917 0.400494 0.005366
v -0.145003 0.092244 -0.045159
v 0.077649 0.105103 0.026827
v -0.036366 0.097144 -0.021138
v 0.055898 0.199079 0.024235
v -0.065130 0.192216 -0.026062
v -0.198447 0.184390 -0.057998
v 0.018310 0.277658 0.021349
v -0.082130 0.271984 -0.022292
v -0.201953 0.264937 -0.049865
v -0.039642 0.360164 0.021897
v -0.105008 0.359934 -0.009704
v -0.154585 0.353525 -0.015265
v 0.000532 0.000311 -0.021127
v 0.007692 0.007262 0.031060
v 0.052297 0.383608 -0.103970
v 0.065299 0.388807 -0.014280
v 0.004564 0.002781 0.000382
v 0.064588 0.404373 -0.079933
v 0.014587 0.087460 -0.125142
v 0.046169 0.118122 0.105039
v 0.039428 0.098190 -0.017110
v 0.066942 0.214379 0.095278
v 0.059623 0.194913 -0.034307
v 0.030865 0.179353 -0.167669
v 0.073191 0.291787 0.056781
v 0.068791 0.275156 -0.051519
v 0.041948 0.261454 -0.170931
v 0.069371 0.371388 0.000781
v 0.070149 0.363071 -0.071340
v 0.053067 0.355559 -0.118048
v 0.023427 -0.000430 -0.007018
v -0.023379 0.007993 0.012207
v 0.085134 0.382042 -0.100941
v 0.002859 0.377623 -0.062841
v 0.004527 0.002600 0.001946
v 0.060974 0.401739 -0.087217
v 0.139410 0.098247 -0.061008
v -0.076077 0.102753 0.031003
v 0.041633 0.099830 -0.007715
v -0.063308 0.197011 0.014764
v 0.061148 0.195448 -0.026865
v 0.182852 0.191864 -0.090344
v -0.037563 0.276173 -0.011050
v 0.066967 0.275026 -0.044172
v 0.175613 0.271715 -0.102074
v 0.001029 0.359332 -0.053018
v 0.070961 0.362258 -0.072311
v 0.112273 0.357006 -0.100518
v -0.020592 0.000944 -0.002749
v 0.034946 0.000944 0.000931
v -0.056701 0.381102 0.158084
v 0.037988 0.374115 0.163350
v 0.002332 0.000254 -0.000245
v -0.028341 0.396362 0.173442
v -0.117045 0.095030 0.044877
v 0.127914 0.095030 0.061108
v -0.001769 0.088633 0.061650
v 0.130887 0.187324 0.108210
v -0.006501 0.182275 0.109053
v -0.148939 0.187324 0.089668
v 0.100689 0.267349 0.138682
v -0.014049 0.262299 0.141026
v -0.141642 0.267349 0.122625
v 0.051834 0.354005 0.161364
v -0.023966 0.352417 0.167387
v -0.074624 0.354005 0.152985
v -0.004327 -0.007365 0.018715
v 0.013147 0.011914 -0.028301
v -0.051295 0.370348 0.190506
v -0.018417 0.384452 0.102400
v 0.003930 -0.000070 -0.000490
v -0.036488 0.395392 0.169854
v -0.039868 0.065908 0.167084
v 0.040101 0.119801 -0.058677
v 0.008344 0.088776 0.063338
v 0.035515 0.212875 -0.019511
v 0.001402 0.181678 0.109968
v -0.055838 0.151311 0.238386
v 0.020145 0.288162 0.029794
v -0.006574 0.261948 0.138397
v -0.058967 0.234847 0.253134
v -0.010553 0.365568 0.094768
v -0.025011 0.351473 0.168095
v -0.051837 0.337746 0.211316
v 0.024179 0.008857 -0.004657
v -0.029973 0.012435 -0.003074
v 0.076876 0.441588 -0.029625
v -0.015787 0.440636 -0.024751
v 0.001785 0.010151 -0.002843
v 0.049871 0.464162 -0.023742
v 0.122446 0.116774 -0.001463
v -0.116399 0.132554 0.005520
v 0.009660 0.122511 0.012579
v -0.115110 0.241817 0.006133
v 0.018522 0.232931 0.013092
v 0.157733 0.223791 -0.001843
v -0.081969 0.330558 -0.001410
v 0.029578 0.323131 0.006194
v 0.154314 0.314947 -0.008318
v -0.030258 0.421230 -0.018096
v 0.043486 0.420090 -0.009937
v 0.093044 0.413084 -0.021701
v 0.007749 0.011751 0.017203
v -0.007958 0.008179 -0.032703
v 0.070822 0.447018 0.003169
v 0.040171 0.419607 -0.080731
v 0.000214 0.009783 -0.002962
v 0.057791 0.461280 -0.026207
v 0.044836 0.149853 0.115498
v -0.028658 0.096178 -0.107119
v -0.000203 0.123780 0.013692
v -0.019900 0.202163 -0.113539
v 0.010783 0.233064 0.013918
v 0.064055 0.263479 0.140766
v -0.001592 0.295864 -0.103036
v 0.022296 0.321801 0.003837
v 0.071114 0.348964 0.117193
v 0.031635 0.398481 -0.079356
v 0.044451 0.419502 -0.008878
v 0.069576 0.426190 0.035568
vn 0.7109 -0.6625 0.2359
vn 0.7078 -0.6974 0.1125
vn 0.9446 -0.1627 0.2850
vn 0.9527 -0.2790 -0.1207
vn 0.7073 -0.6842 0.1778
vn 0.9473 -0.2904 0.1352
vn 0.7691 -0.5953 0.2326
vn 0.7661 -0.6393 0.0664
vn 0.7584 -0.6324 0.1577
vn 0.8216 -0.5682 0.0459
vn 0.8248 -0.5519 0.1230
vn 0.8239 -0.5304 0.1998
vn 0.8732 -0.4872 0.0108
vn 0.8799 -0.4655 0.0955
vn 0.8783 -0.4443 0.1764
vn 0.9212 -0.3841 -0.0616
vn 0.9320 -0.3467 0.1059
vn 0.9310 -0.2949 0.2150
vn 0.1637 -0.5590 -0.8129
vn 0.0723 -0.4853 -0.8714
vn 0.5857 -0.0730 -0.8072
vn 0.1726 -0.0387 -0.9842
vn 0.1096 -0.5217 -0.8461
vn 0.3681 -0.1228 -0.9216
vn 0.2398 -0.4826 -0.8424
vn 0.0965 -0.4071 -0.9083
vn 0.1651 -0.4691 -0.8676
vn 0.1353 -0.3292 -0.9345
vn 0.2035 -0.3719 -0.9057
vn 0.2702 -0.4033 -0.8743
vn 0.1617 -0.2483 -0.9551
vn 0.2386 -0.2773 -0.9307
vn 0.3154 -0.3084 -0.8974
vn 0.1685 -0.1176 -0.9786
vn 0.3474 -0.1730 -0.9216
vn 0.4316 -0.1922 -0.8814
vn 0.1823 -0.5979 -0.7806
vn 0.0549 -0.6105 -0.7901
vn 0.3339 -0.0891 -0.9384
vn -0.0833 -0.1298 -0.9880
vn 0.1212 -0.6093 -0.7836
vn 0.1656 -0.1869 -0.9683
vn 0.1952 -0.5244 -0.8288
vn 0.0244 -0.5383 -0.8424
vn 0.1145 -0.5486 -0.8282
vn 0.0209 -0.4582 -0.8886
vn 0.0996 -0.4556 -0.8846
vn 0.1785 -0.4482 -0.8759
vn 0.0043 -0.3664 -0.9305
vn 0.0917 -0.3593 -0.9287
vn 0.1746 -0.3531 -0.9191
vn -0.0455 -0.2469 -0.9680
vn 0.1263 -0.2386 -0.9629
vn 0.2420 -0.2074 -0.9479
vn -0.8776 -0.3810 -0.2909
vn -0.9306 -0.3103 -0.1940
vn -0.7548 0.1460 -0.6395
vn -0.9584 0.1582 -0.2376
vn -0.9086 -0.3456 -0.2343
vn -0.8941 0.0899 -0.4387
vn -0.8873 -0.2916 -0.3573
vn -0.9518 -0.2245 -0.2092
vn -0.9162 -0.2834 -0.2831
vn -0.9612 -0.1389 -0.2383
vn -0.9342 -0.1770 -0.3098
vn -0.9028 -0.2046 -0.3782
vn -0.9657 -0.0529 -0.2543
vn -0.9399 -0.0757 -0.3328
vn -0.9059 -0.1022 -0.4110
vn -0.9664 0.0797 -0.2443
vn -0.9043 0.0383 -0.4252
vn -0.8607 0.0232 -0.5086
vn -0.4152 0.6153 -0.6701
vn -0.2986 0.6231 -0.7229
vn -0.6326 0.1149 -0.7659
vn -0.2567 0.1403 -0.9563
vn -0.3586 0.6244 -0.6940
vn -0.4811 0.2066 -0.8520
vn -0.4469 0.5430 -0.7109
vn -0.2909 0.5505 -0.7825
vn -0.3701 0.5641 -0.7381
vn -0.3068 0.4710 -0.8271
vn -0.3793 0.4713 -0.7962
vn -0.4507 0.4669 -0.7609
vn -0.3094 0.3792 -0.8721
vn -0.3910 0.3755 -0.8403
vn -0.4657 0.3724 -0.8028
vn -0.2805 0.2584 -0.9244
vn -0.4401 0.2567 -0.8605
vn -0.5448 0.2298 -0.8065
vn 0.7386 0.3510 -0.5756
vn 0.8188 0.2770 -0.5028
vn 0.4818 -0.1659 -0.8604
vn 0.8107 -0.1916 -0.5532
vn 0.7858 0.3137 -0.5331
vn 0.6840 -0.1181 -0.7199
vn 0.7212 0.2622 -0.6412
vn 0.8299 0.1906 -0.5244
vn 0.7735 0.2519 -0.5815
vn 0.8252 0.1051 -0.5549
vn 0.7768 0.1452 -0.6128
vn 0.7250 0.1750 -0.6661
vn 0.8204 0.0193 -0.5715
vn 0.7702 0.0442 -0.6363
vn 0.7124 0.0730 -0.6980
vn 0.8191 -0.1134 -0.5623
vn 0.7002 -0.0671 -0.7108
vn 0.6313 -0.0492 -0.7740
vn -0.7625 -0.6469 -0.0142
vn -0.7493 -0.6525 0.1133
vn -0.9745 -0.1565 -0.1605
vn -0.9494 -0.1754 0.2605
vn -0.7543 -0.6548 0.0469
vn -0.9692 -0.2458 0.0149
vn -0.8166 -0.5768 -0.0220
vn -0.7999 -0.5814 0.1490
vn -0.8007 -0.5962 0.0584
vn -0.8496 -0.5037 0.1566
vn -0.8593 -0.5055 0.0784
vn -0.8647 -0.5023 -0.0012
vn -0.8935 -0.4134 0.1757
vn -0.9071 -0.4113 0.0891
vn -0.9123 -0.4095 0.0056
vn -0.9291 -0.2932 0.2255
vn -0.9540 -0.2947 0.0552
vn -0.9609 -0.2697 -0.0627
vn -0.1126 -0.3436 0.9323
vn -0.0125 -0.2651 0.9641
vn -0.5085 0.1567 0.8467
vn -0.0791 0.2015 0.9763
vn -0.0538 -0.3036 0.9513
vn -0.2837 0.1193 0.9515
vn -0.1816 -0.2573 0.9491
vn -0.0291 -0.1790 0.9834
vn -0.1043 -0.2437 0.9642
vn -0.0613 -0.0946 0.9936
vn -0.1339 -0.1379 0.9814
vn -0.2049 -0.1708 0.9638
vn -0.0815 -0.0094 0.9966
vn -0.1617 -0.0378 0.9861
vn -0.2428 -0.0702 0.9675
vn -0.0795 0.1233 0.9892
vn -0.2656 0.0691 0.9616
vn -0.3541 0.0472 0.9340
vn 0.7857 0.4047 0.4678
vn 0.7176 0.3918 0.5757
vn 0.9527 -0.0924 0.2895
vn 0.7440 -0.1398 0.6534
vn 0.7524 0.4040 0.5202
vn 0.8843 -0.0365 0.4655
vn 0.8245 0.3249 0.4632
vn 0.7335 0.3045 0.6076
vn 0.7777 0.3339 0.5326
vn 0.7602 0.2161 0.6127
vn 0.8043 0.2285 0.5485
vn 0.8444 0.2376 0.4802
vn 0.7744 0.1153 0.6222
vn 0.8250 0.1244 0.5512
vn 0.8669 0.1356 0.4796
vn 0.7623 -0.0167 0.6470
vn 0.8612 0.0071 0.5082
vn 0.9162 0.0016 0.4008
vn -0.2627 0.1344 0.9555
vn -0.3783 0.0822 0.9220
vn 0.0361 -0.4330 0.9007
vn -0.4061 -0.3795 0.8313
vn -0.3297 0.1095 0.9377
vn -0.2016 -0.3538 0.9133
vn -0.2248 0.0309 0.9739
vn -0.3873 -0.0071 0.9219
vn -0.3017 0.0367 0.9527
vn -0.3784 -0.0975 0.9205
vn -0.3017 -0.0744 0.9505
vn -0.2260 -0.0598 0.9723
vn -0.3768 -0.1841 0.9078
vn -0.2969 -0.1776 0.9383
vn -0.2119 -0.1661 0.9631
vn -0.3980 -0.3079 0.8642
vn -0.2133 -0.3031 0.9288
vn -0.1196 -0.3020 0.9458
vn -0.9210 0.3599 0.1493
vn -0.9399 0.3407 0.0239
vn -0.9016 -0.1265 0.4136
vn -0.9807 -0.1953 0.0047
vn -0.9303 0.3561 0.0880
vn -0.9688 -0.0817 0.2341
vn -0.9427 0.2799 0.1816
vn -0.9678 0.2512 0.0140
vn -0.9535 0.2849 0.0982
vn -0.9863 0.1622 0.0313
vn -0.9780 0.1783 0.1081
vn -0.9638 0.1914 0.1855
vn -0.9974 0.0608 0.0377
vn -0.9895 0.0739 0.1241
vn -0.9747 0.0893 0.2050
vn -0.9972 -0.0724 0.0166
vn -0.9819 -0.0408 0.1850
vn -0.9524 -0.0397 0.3021
vn -0.4370 0.0731 -0.8965
vn -0.3252 0.0251 -0.9453
vn -0.5938 -0.4938 -0.6352
vn -0.2186 -0.4289 -0.8765
vn -0.3736 0.0505 -0.9262
vn -0.4279 -0.4120 -0.8045
vn -0.4718 -0.0319 -0.8811
vn -0.3132 -0.0638 -0.9475
vn -0.4004 -0.0235 -0.9161
vn -0.3140 -0.1541 -0.9368
vn -0.3926 -0.1343 -0.9099
vn -0.4647 -0.1223 -0.8770
vn -0.3020 -0.2397 -0.9227
vn -0.3825 -0.2364 -0.8932
vn -0.4633 -0.2279 -0.8564
vn -0.2504 -0.3598 -0.8988
vn -0.4320 -0.3623 -0.8259
vn -0.5137 -0.3638 -0.7770
vn -0.1236 -0.5700 0.8123
vn 0.0042 -0.5681 0.8230
vn -0.3311 -0.0728 0.9408
vn 0.0875 -0.0649 0.9940
vn -0.0617 -0.5745 0.8162
vn -0.1536 -0.1499 0.9767
vn -0.1449 -0.4958 0.8563
vn 0.0263 -0.4902 0.8712
vn -0.0621 -0.5111 0.8573
vn 0.0206 -0.4077 0.9129
vn -0.0579 -0.4139 0.9085
vn -0.1371 -0.4157 0.8991
vn 0.0267 -0.3125 0.9495
vn -0.0609 -0.3151 0.9471
vn -0.1439 -0.3185 0.9369
vn 0.0628 -0.1864 0.9805
vn -0.1087 -0.1972 0.9743
vn -0.2270 -0.1797 0.9572
vn 0.9110 -0.2662 0.3149
vn 0.9570 -0.1957 0.2143
vn 0.7283 0.2627 0.6329
vn 0.9332 0.2748 0.2316
vn 0.9386 -0.2309 0.2565
vn 0.8748 0.2111 0.4360
vn 0.9103 -0.1728 0.3761
vn 0.9685 -0.1073 0.2248
vn 0.9389 -0.1656 0.3017
vn 0.9683 -0.0197 0.2490
vn 0.9449 -0.0566 0.3225
vn 0.9161 -0.0836 0.3922
vn 0.9632 0.0670 0.2602
vn 0.9394 0.0458 0.3398
vn 0.9077 0.0202 0.4192
vn 0.9497 0.1981 0.2427
vn 0.8906 0.1603 0.4255
vn 0.8482 0.1451 0.5094
vn -0.0889 0.1382 -0.9864
vn 0.0374 0.1275 -0.9911
vn -0.3214 -0.3177 -0.8921
vn 0.1044 -0.3657 -0.9249
vn -0.0275 0.1378 -0.9901
vn -0.1326 -0.2787 -0.9512
vn -0.1136 0.0602 -0.9917
vn 0.0578 0.0429 -0.9974
vn -0.0299 0.0683 -0.9972
vn 0.0490 -0.0438 -0.9978
vn -0.0292 -0.0335 -0.9990
vn -0.1082 -0.0248 -0.9938
vn 0.0520 -0.1386 -0.9890
vn -0.0357 -0.1319 -0.9906
vn -0.1190 -0.1222 -0.9853
vn 0.0845 -0.2588 -0.9622
vn -0.0882 -0.2410 -0.9665
vn -0.2110 -0.2427 -0.9469
vn 0.9263 0.0541 -0.3730
vn 0.9672 0.0360 -0.2514
vn 0.7373 -0.5154 -0.4368
vn 0.9308 -0.3613 -0.0560
vn 0.9511 0.0480 -0.3050
vn 0.8765 -0.3944 -0.2761
vn 0.9209 -0.0484 -0.3867
vn 0.9746 -0.0400 -0.2204
vn 0.9486 -0.0247 -0.3156
vn 0.9714 -0.1243 -0.2025
vn 0.9505 -0.1237 -0.2850
vn 0.9237 -0.1297 -0.3604
vn 0.9642 -0.2005 -0.1736
vn 0.9425 -0.2163 -0.2548
vn 0.9128 -0.2291 -0.3382
vn 0.9483 -0.3014 -0.0995
vn 0.8946 -0.3468 -0.2817
vn 0.8522 -0.3715 -0.3685
vt 0.470461 0.901337
vt 0.607244 0.946488
vt 0.461651 1.000000
vt 0.396509 0.962175
vt 0.356019 0.901337
vt 0.452946 0.029008
vt 0.504144 0.268953
vt 0.246073 0.268953
vt 0.576633 0.029008
vt 0.504144 0.029008
vt 0.500618 0.498720
vt 0.181932 0.498720
vt 0.791618 0.268953
vt 0.202955 0.695748
vt 0.742649 0.695748
vt 0.488579 0.695748
vt 0.637653 0.901337
vt 0.454509 0.027195
vt 0.575009 0.027195
vt 0.504144 0.027195
vt 0.805132 0.498720
s 1
usemtl bush_leaf
f 17/1/17 4/2/4 6/3/6
f 17/1/17 3/4/3 18/5/18
f 1/6/1 9/7/9 7/8/7
f 2/9/2 9/7/9 5/10/5
f 7/8/7 11/11/11 12/12/12
f 8/13/8 11/11/11 9/7/9
f 11/11/11 15/14/15 12/12/12
f 11/11/11 13/15/13 14/16/14
f 14/16/14 18/5/18 15/14/15
f 14/16/14 16/17/16 17/1/17
f 35/1/35 22/2/22 24/3/24
f 35/1/35 21/4/21 36/5/36
f 19/18/19 27/7/27 25/8/25
f 20/19/20 27/7/27 23/20/23
f 25/8/25 29/11/29 30/12/30
f 27/7/27 28/21/28 29/11/29
f 30/12/30 32/16/32 33/14/33
f 29/11/29 31/15/31 32/16/32
f 32/16/32 36/5/36 33/14/33
f 32/16/32 34/17/34 35/1/35
f 53/1/53 40/2/40 42/3/42
f 53/1/53 39/4/39 54/5/54
f 37/6/37 45/7/45 43/8/43
f 38/9/38 45/7/45 41/10/41
f 43/8/43 47/11/47 48/12/48
f 44/13/44 47/11/47 45/7/45
f 47/11/47 51/14/51 48/12/48
f 47/11/47 49/15/49 50/16/50
f 50/16/50 54/5/54 51/14/51
f 50/16/50 52/17/52 53/1/53
f 71/1/71 58/2/58 60/3/60
f 71/1/71 57/4/57 72/5/72
f 55/18/55 63/7/63 61/8/61
f 56/19/56 63/7/63 59/20/59
f 61/8/61 65/11/65 66/12/66
f 63/7/63 64/21/64 65/11/65
f 66/12/66 68/16/68 69/14/69
f 65/11/65 67/15/67 68/16/68
f 68/16/68 72/5/72 69/14/69
f 68/16/68 70/17/70 71/1/71
f 89/1/89 76/2/76 78/3/78
f 89/1/89 75/4/75 90/5/90
f 73/6/73 81/7/81 79/8/79
f 74/9/74 81/7/81 77/10/77
f 79/8/79 83/11/83 84/12/84
f 80/13/80 83/11/83 81/7/81
f 83/11/83 87/14/87 84/12/84
f 83/11/83 85/15/85 86/16/86
f 86/16/86 90/5/90 87/14/87
f 86/16/86 88/17/88 89/1/89
f 107/1/107 94/2/94 96/3/96
f 107/1/107 93/4/93 108/5/108
f 91/18/91 99/7/99 97/8/97
f 92/19/92 99/7/99 95/20/95
f 97/8/97 101/11/101 102/12/102
f 99/7/99 100/21/100 101/11/101
f 102/12/102 104/16/104 105/14/105
f 101/11/101 103/15/103 104/16/104
f 104/16/104 108/5/108 105/14/105
f 104/16/104 106/17/106 107/1/107
f 125/1/125 112/2/112 114/3/114
f 125/1/125 111/4/111 126/5/126
f 109/6/109 117/7/117 115/8/115
f 110/9/110 117/7/117 113/10/113
f 115/8/115 119/11/119 120/12/120
f 116/13/116 119/11/119 117/7/117
f 119/11/119 123/14/123 120/12/120
f 119/11/119 121/15/121 122/16/122
f 122/16/122 126/5/126 123/14/123
f 122/16/122 124/17/124 125/1/125
f 143/1/143 130/2/130 132/3/132
f 143/1/143 129/4/129 144/5/144
f 127/18/127 135/7/135 133/8/133
f 128/19/128 135/7/135 131/20/131
f 133/8/133 137/11/137 138/12/138
f 135/7/135 136/21/136 137/11/137
f 138/12/138 140/16/140 141/14/141
f 137/11/137 139/15/139 140/16/140
f 140/16/140 144/5/144 141/14/141
f 140/16/140 142/17/142 143/1/143
f 161/1/161 148/2/148 150/3/150
f 161/1/161 147/4/147 162/5/162
f 145/6/145 153/7/153 151/8/151
f 146/9/146 153/7/153 149/10/149
f 151/8/151 155/11/155 156/12/156
f 152/13/152 155/11/155 153/7/153
f 155/11/155 159/14/159 156/12/156
f 155/11/155 157/15/157 158/16/158
f 158/16/158 162/5/162 159/14/159
f 158/16/158 160/17/160 161/1/161
f 179/1/179 166/2/166 168/3/168
f 179/1/179 165/4/165 180/5/180
f 163/18/163 171/7/171 169/8/169
f 164/19/164 171/7/171 167/20/167
f 169/8/169 173/11/173 174/12/174
f 171/7/171 172/21/172 173/11/173
f 174/12/174 176/16/176 177/14/177
f 173/11/173 175/15/175 176/16/176
f 176/16/176 180/5/180 177/14/177
f 176/16/176 178/17/178 179/1/179
f 197/1/197 184/2/184 186/3/186
f 197/1/197 183/4/183 198/5/198
f 181/6/181 189/7/189 187/8/187
f 182/9/182 189/7/189 185/10/185
f 187/8/187 191/11/191 192/12/192
f 188/13/188 191/11/191 189/7/189
f 191/11/191 195/14/195 192/12/192
f 191/11/191 193/15/193 194/16/194
f 194/16/194 198/5/198 195/14/195
f 194/16/194 196/17/196 197/1/197
f 215/1/215 202/2/202 204/3/204
f 215/1/215 201/4/201 216/5/216
f 199/18/199 207/7/207 205/8/205
f 200/19/200 207/7/207 203/20/203
f 205/8/205 209/11/209 210/12/210
f 207/7/207 208/21/208 209/11/209
f 210/12/210 212/16/212 213/14/213
f 209/11/209 211/15/211 212/16/212
f 212/16/212 216/5/216 213/14/213
f 212/16/212 214/17/214 215/1/215
f 233/1/233 220/2/220 222/3/222
f 233/1/233 219/4/219 234/5/234
f 217/6/217 225/7/225 223/8/223
f 218/9/218 225/7/225 221/10/221
f 223/8/223 227/11/227 228/12/228
f 224/13/224 227/11/227 225/7/225
f 227/11/227 231/14/231 228/12/228
f 227/11/227 229/15/229 230/16/230
f 230/16/230 234/5/234 231/14/231
f 230/16/230 232/17/232 233/1/233
f 251/1/251 238/2/238 240/3/240
f 251/1/251 237/4/237 252/5/252
f 235/18/235 243/7/243 241/8/241
f 236/19/236 243/7/243 239/20/239
f 241/8/241 245/11/245 246/12/246
f 243/7/243 244/21/244 245/11/245
f 246/12/246 248/16/248 249/14/249
f 245/11/245 247/15/247 248/16/248
f 248/16/248 252/5/252 249/14/249
f 248/16/248 250/17/250 251/1/251
f 269/1/269 256/2/256 258/3/258
f 269/1/269 255/4/255 270/5/270
f 253/6/253 261/7/261 259/8/259
f 254/9/254 261/7/261 257/10/257
f 259/8/259 263/11/263 264/12/264
f 260/13/260 263/11/263 261/7/261
f 263/11/263 267/14/267 264/12/264
f 263/11/263 265/15/265 266/16/266
f 266/16/266 270/5/270 267/14/267
f 266/16/266 268/17/268 269/1/269
f 287/1/287 274/2/274 276/3/276
f 287/1/287 273/4/273 288/5/288
f 271/18/271 279/7/279 277/8/277
f 272/19/272 279/7/279 275/20/275
f 277/8/277 281/11/281 282/12/282
f 279/7/279 280/21/280 281/11/281
f 282/12/282 284/16/284 285/14/285
f 281/11/281 283/15/283 284/16/284
f 284/16/284 288/5/288 285/14/285
f 284/16/284 286/17/286 287/1/287
f 17/1/17 16/17/16 4/2/4
f 17/1/17 6/3/6 3/4/3
f 1/6/1 5/10/5 9/7/9
f 2/9/2 8/13/8 9/7/9
f 7/8/7 9/7/9 11/11/11
f 8/13/8 10/21/10 11/11/11
f 11/11/11 14/16/14 15/14/15
f 11/11/11 10/21/10 13/15/13
f 14/16/14 17/1/17 18/5/18
f 14/16/14 13/15/13 16/17/16
f 35/1/35 34/17/34 22/2/22
f 35/1/35 24/3/24 21/4/21
f 19/18/19 23/20/23 27/7/27
f 20/19/20 26/13/26 27/7/27
f 25/8/25 27/7/27 29/11/29
f 27/7/27 26/13/26 28/21/28
f 30/12/30 29/11/29 32/16/32
f 29/11/29 28/21/28 31/15/31
f 32/16/32 35/1/35 36/5/36
f 32/16/32 31/15/31 34/17/34
f 53/1/53 52/17/52 40/2/40
f 53/1/53 42/3/42 39/4/39
f 37/6/37 41/10/41 45/7/45
f 38/9/38 44/13/44 45/7/45
f 43/8/43 45/7/45 47/11/47
f 44/13/44 46/21/46 47/11/47
f 47/11/47 50/16/50 51/14/51
f 47/11/47 46/21/46 49/15/49
f 50/16/50 53/1/53 54/5/54
f 50/16/50 49/15/49 52/17/52
f 71/1/71 70/17/70 58/2/58
f 71/1/71 60/3/60 57/4/57
f 55/18/55 59/20/59 63/7/63
f 56/19/56 62/13/62 63/7/63
f 61/8/61 63/7/63 65/11/65
f 63/7/63 62/13/62 64/21/64
f 66/12/66 65/11/65 68/16/68
f 65/11/65 64/21/64 67/15/67
f 68/16/68 71/1/71 72/5/72
f 68/16/68 67/15/67 70/17/70
f 89/1/89 88/17/88 76/2/76
f 89/1/89 78/3/78 75/4/75
f 73/6/73 77/10/77 81/7/81
f 74/9/74 80/13/80 81/7/81
f 79/8/79 81/7/81 83/11/83
f 80/13/80 82/21/82 83/11/83
f 83/11/83 86/16/86 87/14/87
f 83/11/83 82/21/82 85/15/85
f 86/16/86 89/1/89 90/5/90
f 86/16/86 85/15/85 88/17/88
f 107/1/107 106/17/106 94/2/94
f 107/1/107 96/3/96 93/4/93
f 91/18/91 95/20/95 99/7/99
f 92/19/92 98/13/98 99/7/99
f 97/8/97 99/7/99 101/11/101
f 99/7/99 98/13/98 100/21/100
f 102/12/102 101/11/101 104/16/104
f 101/11/101 100/21/100 103/15/103
f 104/16/104 107/1/107 108/5/108
f 104/16/104 103/15/103 106/17/106
f 125/1/125 124/17/124 112/2/112
f 125/1/125 114/3/114 111/4/111
f 109/6/109 113/10/113 117/7/117
f 110/9/110 116/13/116 117/7/117
f 115/8/115 117/7/117 119/11/119
f 116/13/116 118/21/118 119/11/119
f 119/11/119 122/16/122 123/14/123
f 119/11/119 118/21/118 121/15/121
f 122/16/122 125/1/125 126/5/126
f 122/16/122 121/15/121 124/17/124
f 143/1/143 142/17/142 130/2/130
f 143/1/143 132/3/132 129/4/129
f 127/18/127 131/20/131 135/7/135
f 128/19/128 134/13/134 135/7/135
f 133/8/133 135/7/135 137/11/137
f 135/7/135 134/13/134 136/21/136
f 138/12/138 137/11/137 140/16/140
f 137/11/137 136/21/136 139/15/139
f 140/16/140 143/1/143 144/5/144
f 140/16/140 139/15/139 142/17/142
f 161/1/161 160/17/160 148/2/148
f 161/1/161 150/3/150 147/4/147
f 145/6/145 149/10/149 153/7/153
f 146/9/146 152/13/152 153/7/153
f 151/8/151 153/7/153 155/11/155
f 152/13/152 154/21/154 155/11/155
f 155/11/155 158/16/158 159/14/159
f 155/11/155 154/21/154 157/15/157
f 158/16/158 161/1/161 162/5/162
f 158/16/158 157/15/157 160/17/160
f 179/1/179 178/17/178 166/2/166
f 179/1/179 168/3/168 165/4/165
f 163/18/163 167/20/167 171/7/171
f 164/19/164 170/13/170 171/7/171
f 169/8/169 171/7/171 173/11/173
f 171/7/171 170/13/170 172/21/172
f 174/12/174 173/11/173 176/16/176
f 173/11/173 172/21/172 175/15/175
f 176/16/176 179/1/179 180/5/180
f 176/16/176 175/15/175 178/17/178
f 197/1/197 196/17/196 184/2/184
f 197/1/197 186/3/186 183/4/183
f 181/6/181 185/10/185 189/7/189
f 182/9/182 188/13/188 189/7/189
f 187/8/187 189/7/189 191/11/191
f 188/13/188 190/21/190 191/11/191
f 191/11/191 194/16/194 195/14/195
f 191/11/191 190/21/190 193/15/193
f 194/16/194 197/1/197 198/5/198
f 194/16/194 193/15/193 196/17/196
f 215/1/215 214/17/214 202/2/202
f 215/1/215 204/3/204 201/4/201
f 199/18/199 203/20/203 207/7/207
f 200/19/200 206/13/206 207/7/207
f 205/8/205 207/7/207 209/11/209
f 207/7/207 206/13/206 208/21/208
f 210/12/210 209/11/209 212/16/212
f 209/11/209 208/21/208 211/15/211
f 212/16/212 215/1/215 216/5/216
f 212/16/212 211/15/211 214/17/214
f 233/1/233 232/17/232 220/2/220
f 233/1/233 222/3/222 219/4/219
f 217/6/217 221/10/221 225/7/225
f 218/9/218 224/13/224 225/7/225
f 223/8/223 225/7/225 227/11/227
f 224/13/224 226/21/226 227/11/227
f 227/11/227 230/16/230 231/14/231
f 227/11/227 226/21/226 229/15/229
f 230/16/230 233/1/233 234/5/234
f 230/16/230 229/15/229 232/17/232
f 251/1/251 250/17/250 238/2/238
f 251/1/251 240/3/240 237/4/237
f 235/18/235 239/20/239 243/7/243
f 236/19/236 242/13/242 243/7/243
f 241/8/241 243/7/243 245/11/245
f 243/7/243 242/13/242 244/21/244
f 246/12/246 245/11/245 248/16/248
f 245/11/245 244/21/244 247/15/247
f 248/16/248 251/1/251 252/5/252
f 248/16/248 247/15/247 250/17/250
f 269/1/269 268/17/268 256/2/256
f 269/1/269 258/3/258 255/4/255
f 253/6/253 257/10/257 261/7/261
f 254/9/254 260/13/260 261/7/261
f 259/8/259 261/7/261 263/11/263
f 260/13/260 262/21/262 263/11/263
f 263/11/263 266/16/266 267/14/267
f 263/11/263 262/21/262 265/15/265
f 266/16/266 269/1/269 270/5/270
f 266/16/266 265/15/265 268/17/268
f 287/1/287 286/17/286 274/2/274
f 287/1/287 276/3/276 273/4/273
f 271/18/271 275/20/275 279/7/279
f 272/19/272 278/13/278 279/7/279
f 277/8/277 279/7/279 281/11/281
f 279/7/279 278/13/278 280/21/280
f 282/12/282 281/11/281 284/16/284
f 281/11/281 280/21/280 283/15/283
f 284/16/284 287/1/287 288/5/288
f 284/16/284 283/15/283 286/17/286
