# Blender 4.2.1 LTS
# www.blender.org
mtllib Stonjourner.mtl
o Stonjourner
v 6.496432 9.471167 0.546821
v 6.496432 9.618399 0.654159
v 6.349198 9.618399 0.546821
v 8.721327 9.618399 0.546821
v 8.574093 9.618399 0.654159
v 8.574093 9.471167 0.546821
v 6.349198 11.696061 0.546821
v 6.496432 11.696061 0.654159
v 6.496432 11.843294 0.546821
v 8.574093 11.843294 0.546821
v 8.574093 11.696061 0.654159
v 8.721327 11.696061 0.546821
v 6.349198 11.696061 -0.546821
v 6.496432 11.843294 -0.546821
v 6.496432 11.696061 -0.654159
v 8.574093 11.696061 -0.654159
v 8.574093 11.843294 -0.546821
v 8.721327 11.696061 -0.546821
v 6.349198 9.618399 -0.546821
v 6.496432 9.618399 -0.654159
v 6.496432 9.471167 -0.546821
v 8.574093 9.471167 -0.546821
v 8.574093 9.618399 -0.654159
v 8.721327 9.618399 -0.546821
v -8.573831 9.471167 0.546820
v -8.573831 9.618399 0.654158
v -8.721064 9.618399 0.546820
v -6.348935 9.618399 0.546820
v -6.496169 9.618399 0.654158
v -6.496169 9.471167 0.546820
v -8.721064 11.696061 0.546819
v -8.573831 11.696061 0.654157
v -8.573831 11.843294 0.546819
v -6.496169 11.843294 0.546820
v -6.496169 11.696061 0.654158
v -6.348935 11.696061 0.546820
v -8.721064 11.696061 -0.546823
v -8.573831 11.843294 -0.546823
v -8.573831 11.696061 -0.654161
v -6.496169 11.696061 -0.654160
v -6.496169 11.843294 -0.546822
v -6.348935 11.696061 -0.546822
v -8.721064 9.618399 -0.546822
v -8.573831 9.618399 -0.654160
v -8.573831 9.471167 -0.546822
v -6.496169 9.471167 -0.546822
v -6.496169 9.618399 -0.654160
v -6.348935 9.618399 -0.546822
v -0.547441 12.550008 0.509788
v -0.547441 12.605243 0.565023
v -0.602676 12.605243 0.509788
v 0.602676 12.605243 0.509788
v 0.547441 12.605243 0.565023
v 0.547441 12.550008 0.509788
v -0.602676 13.147615 0.509788
v -0.547441 13.147615 0.565023
v -0.547441 13.202850 0.509788
v 0.547441 13.202850 0.509788
v 0.547441 13.147615 0.565023
v 0.602676 13.147615 0.509788
v -0.602676 13.147615 -0.509790
v -0.547441 13.202850 -0.509790
v -0.547441 13.147615 -0.565025
v 0.547441 13.147615 -0.565025
v 0.547441 13.202850 -0.509790
v 0.602676 13.147615 -0.509790
v -0.602676 12.605243 -0.509790
v -0.547441 12.605243 -0.565025
v -0.547441 12.550008 -0.509790
v 0.547441 12.550008 -0.509790
v 0.547441 12.605243 -0.565025
v 0.602676 12.605243 -0.509790
v -6.094633 9.966903 0.318266
v -6.094633 10.052597 0.380741
v -6.180327 10.052597 0.318266
v -4.799673 10.052597 0.318266
v -4.885367 10.052597 0.380741
v -4.885367 9.966903 0.318266
v -6.180327 11.261864 0.318266
v -6.094633 11.261864 0.380741
v -6.094633 11.347558 0.318266
v -4.885367 11.347558 0.318266
v -4.885367 11.261864 0.380741
v -4.799673 11.261864 0.318266
v -6.180327 11.261864 -0.318268
v -6.094633 11.347558 -0.318268
v -6.094633 11.261864 -0.380743
v -4.885367 11.261864 -0.380743
v -4.885367 11.347558 -0.318268
v -4.799673 11.261864 -0.318268
v -6.180327 10.052597 -0.318268
v -6.094633 10.052597 -0.380743
v -6.094633 9.966903 -0.318268
v -4.885367 9.966903 -0.318268
v -4.885367 10.052597 -0.380743
v -4.799673 10.052597 -0.318268
v -1.019703 3.794463 -0.900097
v -0.921586 3.765786 -0.823777
v -0.965579 0.648265 -0.975617
v -1.058690 0.700698 -1.087006
v -5.327892 4.971319 -1.581192
v -5.208722 4.942430 -1.619583
v -5.715785 1.830642 -1.944658
v -5.587962 1.851802 -2.025980
v -1.555391 3.794360 2.140196
v -1.430448 3.765786 2.062125
v -5.805396 4.971319 1.126871
v -5.712594 4.942190 1.243297
v -5.660601 5.170089 1.049640
v -5.217961 5.170089 -1.460697
v -2.048508 5.300437 1.700028
v -1.922417 5.286342 1.624268
v -2.466276 8.732679 1.204831
v -2.595069 8.701248 1.276821
v -5.515285 5.303014 0.981118
v -5.422784 5.288902 1.096564
v -4.908097 8.733976 0.775646
v -4.810034 8.700776 0.887615
v -4.984805 5.288902 -1.387340
v -5.104403 5.303014 -1.349109
v -4.595732 8.733976 -0.995860
v -4.467209 8.701332 -1.067835
v -1.508941 5.286342 -0.720674
v -1.608281 5.300437 -0.796619
v -2.154381 8.732679 -0.564010
v -2.252479 8.700775 -0.676057
v -2.069704 0.135869 1.873985
v -2.013555 0.019860 1.796900
v -5.357528 0.135869 1.294253
v -5.364404 0.019860 1.206055
v -1.489714 0.648265 1.996903
v -1.615309 0.700698 2.069736
v -1.552618 0.135869 -1.058556
v -1.526217 0.019860 -0.966932
v -4.877066 0.019860 -1.557778
v -4.840441 0.135869 -1.638288
v -6.284875 1.830642 1.282816
v -6.192545 1.851809 1.402995
v -6.059549 0.776060 1.200333
v -5.992054 0.864850 1.306966
v -5.532250 0.776060 -1.790128
v -5.432357 0.864850 -1.867231
v -4.689034 8.926817 0.801577
v -4.684668 8.816137 0.899353
v -2.717690 8.815578 1.245348
v -2.679979 8.926817 1.155444
v -4.343470 8.816137 -1.035676
v -4.381013 8.926817 -0.945290
v -2.372090 8.926817 -0.590679
v -2.376778 8.815578 -0.688059
v -4.835464 8.871501 0.778805
v -4.769356 8.781473 0.887564
v -4.526402 8.871501 -0.973974
v -4.429011 8.783538 -1.053718
v -2.534536 8.870999 1.183820
v -2.632788 8.782965 1.263029
v -2.225713 8.870999 -0.567599
v -2.292638 8.781116 -0.676095
v -3.539923 1.686099 1.725307
v -3.943388 1.256991 1.654166
v -3.564613 1.686099 1.968924
v -3.968078 1.256991 1.897781
v -3.968078 1.943564 1.897781
v -4.371542 1.686099 1.826640
v -3.943388 1.943564 1.723726
v -4.346853 1.686099 1.583024
v -4.750317 1.256991 1.511883
v -4.346852 0.827884 1.583024
v -4.775007 1.256991 1.755499
v -4.371542 0.827884 1.826640
v -3.391975 1.845479 1.770552
v -3.416666 1.845479 2.014168
v -3.136458 1.256991 1.796450
v -3.539923 0.827884 1.725308
v -3.564613 0.827884 1.968924
v -3.161149 1.256991 2.040066
v -4.775008 2.115207 1.755498
v -4.750317 2.115207 1.511882
v -3.539923 2.801780 1.725307
v -3.943388 2.544315 1.737546
v -3.564613 2.801780 1.968924
v -3.968078 2.544315 1.897781
v -3.968078 3.230887 1.897781
v -4.371542 2.801780 1.826640
v -3.943388 3.230887 1.654165
v -4.346853 2.801780 1.583023
v -4.750317 2.372672 1.511882
v -4.775007 2.372672 1.755498
v -3.539923 3.659995 1.725307
v -3.136458 3.230887 1.796450
v -3.161149 3.230887 2.040066
v -3.564613 3.659995 1.968923
v -3.354043 2.603165 1.766772
v -3.378734 2.603165 2.010387
v -4.371542 3.659995 1.826640
v -4.775007 3.230887 1.755498
v -4.750317 3.230887 1.511882
v -4.346852 3.659995 1.583023
v -3.777736 2.149386 1.931344
v -3.753045 2.149386 1.755188
v -4.807375 2.243939 1.501821
v -4.832066 2.243939 1.745437
v -4.219946 2.243940 1.853370
v -4.195256 2.243940 1.713344
v -3.764758 2.307217 1.933632
v -3.740067 2.307217 1.757349
v -3.466858 9.064348 1.394368
v -3.436575 9.295132 1.583202
v -3.649974 9.296614 1.370799
v 3.649974 9.296614 1.370800
v 3.435157 9.296393 1.582983
v 3.466858 9.064348 1.394369
v -3.298615 11.073802 1.077043
v -3.089676 11.058713 1.275990
v -3.067571 11.263640 1.046779
v 3.067571 11.263640 1.046779
v 3.100112 11.071190 1.273816
v 3.298615 11.073802 1.077043
v -3.301428 11.059576 -1.064812
v -3.067571 11.263640 -1.046781
v -3.089676 11.058713 -1.275992
v 3.089676 11.058713 -1.275992
v 3.065735 11.263640 -1.044945
v 3.301428 11.059576 -1.064812
v -3.649974 9.296614 -1.370801
v -3.435157 9.296393 -1.582984
v -3.466858 9.064348 -1.394370
v 3.466858 9.064348 -1.394369
v 3.436575 9.295132 -1.583203
v 3.649974 9.296614 -1.370800
v -1.138366 11.431396 0.773843
v -1.138366 11.527832 0.856664
v -1.224439 11.527832 0.773843
v 1.322033 11.527832 0.824630
v 1.235960 11.527832 0.912886
v 1.235960 11.431396 0.824630
v -1.224439 12.230520 0.773843
v -1.138366 12.230520 0.856664
v -1.138366 12.326956 0.773843
v 1.235960 12.326956 0.824630
v 1.235960 12.230520 0.912886
v 1.322033 12.230520 0.824630
v -1.224439 12.230520 -0.773845
v -1.138366 12.326956 -0.773845
v -1.138366 12.230520 -0.856666
v 1.235960 12.230520 -0.912888
v 1.235960 12.326956 -0.824632
v 1.322033 12.230520 -0.824632
v -1.224439 11.527832 -0.773845
v -1.138366 11.527832 -0.856666
v -1.138366 11.431396 -0.773845
v 1.235960 11.431396 -0.824632
v 1.235960 11.527832 -0.912888
v 1.322033 11.527832 -0.824632
v -0.195201 11.431396 0.773661
v -0.195201 11.431396 -0.773663
v -0.195201 11.527832 -0.856465
v -0.195201 12.230520 -0.856465
v -0.195201 12.326956 -0.773663
v -0.195201 12.326956 0.773661
v -0.195201 12.230520 0.856463
v -0.195201 11.527832 0.856463
v 1.129460 3.968691 -0.939393
v 1.031344 3.940014 -0.863073
v 1.006705 0.648265 -1.002812
v 1.099814 0.700698 -1.114201
v 5.163070 4.971319 -1.572071
v 5.043900 4.942430 -1.610462
v 5.607931 0.698156 -1.813086
v 5.481524 0.719315 -1.886387
v 1.665149 3.968589 2.100900
v 1.540207 3.940014 2.022830
v 5.650571 4.971319 1.192689
v 5.557770 4.942190 1.309114
v 5.505248 5.170089 1.112452
v 5.053141 5.170089 -1.451577
v 2.003837 4.899711 1.687963
v 1.877748 4.885616 1.612202
v 2.372213 8.732678 1.201475
v 2.501005 8.701247 1.273465
v 5.360261 5.303013 1.045792
v 5.267761 5.288902 1.161238
v 4.879599 8.733975 0.760729
v 4.781537 8.700775 0.872698
v 4.819986 5.288902 -1.378220
v 4.939584 5.303013 -1.339988
v 4.567235 8.733975 -1.010777
v 4.438713 8.701331 -1.082752
v 1.464271 4.885616 -0.732740
v 1.563610 4.899711 -0.808684
v 2.060319 8.732678 -0.567367
v 2.158416 8.700774 -0.679413
v 2.241486 0.135869 1.823753
v 2.185338 0.019860 1.746668
v 5.467238 0.135869 1.254966
v 5.474113 0.019860 1.166768
v 1.530840 0.648265 1.969708
v 1.656433 0.700698 2.042542
v 1.724399 0.135869 -1.108789
v 1.697999 0.019860 -1.017165
v 4.986775 0.019860 -1.597064
v 4.950151 0.135869 -1.677575
v 6.131705 0.698156 1.157382
v 6.037960 0.719322 1.269537
v 5.925543 0.218528 1.083243
v 5.856780 0.307317 1.182676
v 5.439552 0.218528 -1.672947
v 5.340930 0.307317 -1.742854
v 4.660538 8.926816 0.786660
v 4.656173 8.816136 0.884435
v 2.623624 8.815578 1.241992
v 2.585915 8.926816 1.152088
v 4.314975 8.816136 -1.050594
v 4.352519 8.926816 -0.960208
v 2.278026 8.926816 -0.594036
v 2.282713 8.815578 -0.691415
v 4.806967 8.871500 0.763888
v 4.740860 8.781472 0.872647
v 4.497905 8.871500 -0.988891
v 4.400516 8.783537 -1.068635
v 2.440472 8.870998 1.180464
v 2.538724 8.782964 1.259673
v 2.131650 8.870998 -0.570955
v 2.198574 8.781116 -0.679451
v 3.539923 1.686099 1.685158
v 3.943388 1.256991 1.614017
v 3.564613 1.686099 1.825185
v 3.968078 1.256991 1.754044
v 3.968078 1.943564 1.754044
v 4.371542 1.686099 1.682902
v 3.943388 1.943564 1.614017
v 4.346853 1.686099 1.542875
v 4.750317 1.256991 1.471733
v 4.346852 0.827884 1.542875
v 4.775007 1.256991 1.611760
v 4.371542 0.827884 1.682902
v 3.136458 2.115207 1.756300
v 3.161149 2.115207 1.896327
v 3.136458 1.256991 1.756300
v 3.539923 0.827884 1.685158
v 3.564613 0.827884 1.825185
v 3.161149 1.256991 1.896327
v 4.775008 2.115207 1.611760
v 4.750317 2.115207 1.471733
v 3.539923 2.801780 1.685158
v 3.943388 2.544315 1.614017
v 3.564613 2.801780 1.825185
v 3.968078 2.544315 1.754044
v 3.968078 3.230887 1.754044
v 4.371542 2.801780 1.682902
v 3.943388 3.230887 1.614017
v 4.346853 2.801780 1.542875
v 4.750317 2.372672 1.471733
v 4.775007 2.372672 1.611760
v 3.539923 3.659995 1.685158
v 3.136458 3.230887 1.756300
v 3.161149 3.230887 1.896327
v 3.564613 3.659995 1.825185
v 3.136458 2.372672 1.756300
v 3.161149 2.372672 1.896327
v 4.371542 3.659995 1.682902
v 4.775007 3.230887 1.611760
v 4.750317 3.230887 1.471733
v 4.346852 3.659995 1.542875
v 3.716210 2.243940 1.798455
v 3.691519 2.243940 1.658428
v 3.079400 2.243939 1.766361
v 3.104090 2.243939 1.906388
v 4.807375 2.243939 1.461672
v 4.832066 2.243939 1.601699
v 4.219946 2.243940 1.709633
v 4.195256 2.243940 1.569605
v 4.885014 9.966903 0.318267
v 4.885014 10.052597 0.380742
v 4.799320 10.052597 0.318267
v 6.179975 10.052597 0.318267
v 6.094280 10.052597 0.380742
v 6.094280 9.966903 0.318267
v 4.799320 11.261864 0.318267
v 4.885014 11.261864 0.380742
v 4.885014 11.347558 0.318267
v 6.094280 11.347558 0.318267
v 6.094280 11.261864 0.380742
v 6.179975 11.261864 0.318267
v 4.799320 11.261864 -0.318267
v 4.885014 11.347558 -0.318267
v 4.885014 11.261864 -0.380742
v 6.094280 11.261864 -0.380742
v 6.094280 11.347558 -0.318267
v 6.179975 11.261864 -0.318267
v 4.799320 10.052597 -0.318267
v 4.885014 10.052597 -0.380742
v 4.885014 9.966903 -0.318267
v 6.094280 9.966903 -0.318267
v 6.094280 10.052597 -0.380742
v 6.179975 10.052597 -0.318267
v 3.666122 10.157230 0.316196
v 3.666122 10.219298 0.378264
v 3.604054 10.219298 0.316196
v 4.604054 10.219298 0.316196
v 4.541986 10.219298 0.378264
v 4.541986 10.157230 0.316196
v 3.604054 11.095162 0.316195
v 3.666122 11.095162 0.378264
v 3.666122 11.157230 0.316195
v 4.541986 11.157230 0.316196
v 4.541986 11.095162 0.378264
v 4.604054 11.095162 0.316196
v 3.604054 11.095162 -0.316197
v 3.666122 11.157230 -0.316197
v 3.666122 11.095162 -0.378265
v 4.541986 11.095162 -0.378264
v 4.541986 11.157230 -0.316196
v 4.604054 11.095162 -0.316196
v 3.604054 10.219298 -0.316196
v 3.666122 10.219298 -0.378264
v 3.666122 10.157230 -0.316196
v 4.541986 10.157230 -0.316196
v 4.541986 10.219298 -0.378264
v 4.604054 10.219298 -0.316196
v -4.541932 10.157230 0.316195
v -4.541932 10.219298 0.378263
v -4.604000 10.219298 0.316195
v -3.604000 10.219298 0.316195
v -3.666068 10.219298 0.378263
v -3.666068 10.157230 0.316195
v -4.604000 11.095162 0.316195
v -4.541932 11.095162 0.378263
v -4.541932 11.157230 0.316195
v -3.666068 11.157230 0.316195
v -3.666068 11.095162 0.378263
v -3.604000 11.095162 0.316195
v -4.604000 11.095162 -0.316197
v -4.541932 11.157230 -0.316197
v -4.541932 11.095162 -0.378265
v -3.666068 11.095162 -0.378265
v -3.666068 11.157230 -0.316197
v -3.604000 11.095162 -0.316197
v -4.604000 10.219298 -0.316197
v -4.541932 10.219298 -0.378265
v -4.541932 10.157230 -0.316197
v -3.666068 10.157230 -0.316197
v -3.666068 10.219298 -0.378265
v -3.604000 10.219298 -0.316197
vn -0.9907 -0.1210 0.0620
vn -0.0593 -0.9917 -0.1138
vn -0.0598 -0.9917 0.1142
vn 0.0436 -0.0435 0.9981
vn -0.0459 -0.0460 0.9979
vn -0.9912 0.0624 0.1170
vn 0.3601 -0.5835 0.7280
vn 0.9921 -0.0572 -0.1116
vn 0.9912 -0.0624 0.1170
vn 0.0460 0.0460 0.9979
vn -0.1226 0.9904 0.0646
vn -0.9921 0.0572 -0.1116
vn -0.5486 0.4171 0.7246
vn 0.0598 0.9917 0.1142
vn 0.5810 0.3600 0.7299
vn 0.0593 0.9917 -0.1138
vn -0.0679 0.0258 -0.9974
vn -0.5807 -0.6297 -0.5160
vn -0.6480 0.5852 -0.4875
vn 0.0436 0.0435 -0.9981
vn 0.5881 0.6456 -0.4871
vn 0.0460 -0.0460 -0.9979
vn -0.5486 -0.4171 -0.7246
vn 0.6320 -0.5776 -0.5166
vn -0.0460 -0.0460 0.9979
vn -0.9936 -0.1096 0.0258
vn -0.0460 -0.9977 -0.0494
vn -0.0425 -0.9980 0.0459
vn 0.0419 -0.0866 0.9954
vn -0.0438 -0.0884 0.9951
vn -0.9950 0.0881 0.0471
vn 0.4526 -0.6016 0.6582
vn 0.9953 -0.0863 -0.0449
vn 0.9950 -0.0881 0.0471
vn 0.0439 0.0884 0.9951
vn -0.0692 0.9972 0.0275
vn -0.9953 0.0862 -0.0449
vn -0.6579 0.4206 0.6248
vn 0.0425 0.9980 0.0459
vn 0.6263 0.4205 0.6565
vn 0.0460 0.9977 -0.0494
vn -0.0838 0.0479 -0.9953
vn -0.6151 -0.6126 -0.4963
vn -0.6623 0.5981 -0.4511
vn 0.0419 0.0866 -0.9954
vn 0.6227 0.6415 -0.4481
vn 0.0439 -0.0884 -0.9951
vn -0.6579 -0.4206 -0.6248
vn 0.6481 -0.5936 -0.4771
vn 0.0435 -0.0435 0.9981
vn 0.0459 0.0460 0.9979
vn -0.0678 0.0257 -0.9974
vn 0.0435 0.0435 -0.9981
vn 0.5882 0.6456 -0.4871
vn 0.0459 -0.0460 -0.9979
vn 0.9912 0.0745 0.1092
vn 0.2583 0.0141 -0.9660
vn 0.2035 0.0873 -0.9752
vn 0.9128 0.1396 -0.3839
vn 0.1672 -0.2112 -0.9630
vn -0.9568 0.1780 -0.2300
vn -0.7713 0.6081 -0.1881
vn 0.2239 0.1358 -0.9651
vn -0.2046 -0.3577 -0.9111
vn -0.1910 -0.5330 -0.8243
vn -0.7368 0.3897 -0.5524
vn 0.1103 -0.5273 0.8425
vn 0.9752 0.0857 0.2039
vn -0.1329 0.0505 0.9899
vn 0.6619 0.6168 0.4258
vn -0.9820 0.1479 -0.1174
vn -0.2018 0.0123 0.9794
vn -0.1882 0.1134 0.9756
vn -0.7877 0.6096 -0.0887
vn -0.1406 0.4389 0.8875
vn 0.1591 0.2311 -0.9598
vn 0.9633 0.2536 0.0884
vn 0.6993 0.6406 0.3171
vn 0.1833 -0.0709 0.9805
vn -0.1183 0.1431 0.9826
vn 0.2853 -0.1171 0.9513
vn -0.3886 0.4765 0.7886
vn -0.8372 0.1438 0.5276
vn -0.1229 0.3803 0.9167
vn -0.9295 -0.0999 0.3550
vn -0.6466 0.0416 -0.7617
vn 0.1275 0.0749 -0.9890
vn -0.9410 -0.0287 -0.3371
vn 0.1195 0.1446 -0.9822
vn 0.5027 -0.0506 -0.8630
vn 0.9728 0.1841 0.1403
vn 0.1264 0.3792 -0.9166
vn 0.5907 -0.1028 -0.8003
vn -0.1808 -0.2167 0.9594
vn -0.1984 -0.9801 -0.0075
vn 0.1575 -0.9857 0.0591
vn -0.2253 -0.5640 0.7944
vn -0.8995 -0.4187 -0.1251
vn 0.7440 0.1087 0.6593
vn -0.6418 -0.7060 -0.2993
vn 0.6809 -0.7324 -0.0033
vn -0.4700 -0.2952 -0.8318
vn 0.1094 -0.5416 -0.8335
vn -0.8759 0.3501 0.3319
vn -0.5002 -0.5221 0.6908
vn -0.3642 0.9313 0.0057
vn -0.1590 0.5218 0.8381
vn -0.2183 0.3474 0.9120
vn -0.3051 0.8460 0.4372
vn -0.0144 0.9987 -0.0494
vn 0.1410 0.5192 -0.8429
vn 0.1602 0.5182 -0.8401
vn -0.1176 0.9734 -0.1965
vn -0.6580 0.4747 0.5846
vn -0.3104 0.5666 -0.7633
vn 0.3443 0.8607 -0.3749
vn 0.2630 0.8996 0.3486
vn 0.7205 -0.6896 0.0730
vn -0.1731 -0.0025 0.9849
vn -0.1736 -0.0000 0.9848
vn -0.1778 -0.0068 0.9840
vn -0.7205 -0.6896 -0.0730
vn -0.7205 0.6896 -0.0730
vn -0.2185 -0.0735 0.9731
vn -0.1750 -0.0022 0.9846
vn -0.1778 -0.0067 0.9840
vn 0.7205 0.6896 0.0730
vn -0.1733 0.0014 0.9849
vn -0.1755 0.0030 0.9845
vn -0.1744 0.0012 0.9847
vn -0.1902 0.0269 0.9814
vn -0.1866 -0.0114 0.9824
vn -0.7454 -0.6566 -0.1149
vn -0.7221 0.6843 -0.1012
vn -0.2018 0.0270 0.9790
vn 0.9932 0.0259 0.1137
vn 0.7600 0.6410 0.1078
vn -0.9704 -0.0230 -0.2404
vn -0.9077 -0.4095 -0.0920
vn -0.9988 0.0239 0.0434
vn -0.9077 0.4095 -0.0920
vn -0.9949 -0.0000 -0.1008
vn 0.9131 -0.0152 0.4074
vn 0.7498 -0.6483 0.1322
vn 0.9861 0.0163 0.1652
vn 0.6063 -0.7928 0.0615
vn 0.6339 0.7707 0.0643
vn -0.0139 -0.7042 0.7098
vn -0.9943 0.0725 -0.0785
vn -0.0299 -0.9970 -0.0718
vn 0.0281 0.0438 0.9986
vn -0.0355 0.0403 0.9986
vn -0.7870 0.1041 0.6081
vn -0.0191 0.2437 0.9697
vn -0.9588 0.2748 0.0724
vn 0.7844 0.0937 0.6131
vn 0.0261 -0.9973 -0.0683
vn 0.9943 0.0722 -0.0788
vn 0.9596 0.2732 0.0669
vn 0.0257 0.2521 0.9674
vn -0.0606 0.9969 0.0504
vn -0.9623 0.2644 -0.0631
vn 0.0257 0.9963 0.0824
vn 0.9621 0.2652 -0.0632
vn 0.0319 0.9956 -0.0877
vn -0.0284 0.0434 -0.9987
vn -0.1353 0.7634 -0.6316
vn 0.0237 0.2492 -0.9682
vn 0.0294 0.0423 -0.9987
vn -0.1072 0.7921 -0.6009
vn -0.0774 -0.8081 0.5839
vn -0.9914 -0.1278 0.0268
vn -0.0890 -0.9945 -0.0543
vn -0.0863 -0.9950 0.0511
vn -0.2630 -0.3276 0.9074
vn 0.0570 -0.9972 0.0487
vn 0.0170 -0.1063 0.9942
vn -0.1134 -0.0550 0.9920
vn -0.9935 0.1032 0.0476
vn 0.9939 -0.1015 -0.0424
vn 0.9937 -0.1030 0.0444
vn 0.0134 0.1027 0.9946
vn -0.1161 0.9927 0.0321
vn -0.9939 0.1011 -0.0447
vn -0.0023 0.1100 0.9939
vn 0.0606 0.9968 0.0516
vn -0.0009 0.9986 0.0521
vn 0.6616 0.3797 0.6466
vn 0.0567 0.9972 -0.0490
vn -0.1134 0.0550 -0.9920
vn -0.6342 -0.5582 -0.5349
vn -0.2630 0.3276 -0.9074
vn 0.0170 0.1063 -0.9942
vn 0.6540 0.5955 -0.4666
vn 0.0134 -0.1027 -0.9946
vn -0.0023 -0.1100 -0.9939
vn 0.6568 -0.5623 -0.5025
vn -0.0009 -0.9986 -0.0521
vn -0.3643 0.8450 -0.3915
vn -0.3643 -0.8450 0.3915
vn -0.4335 -0.0351 0.9005
vn -0.4934 0.8683 0.0518
vn -0.4335 0.0351 -0.9004
vn -0.7288 0.6212 -0.2881
vn -0.2354 0.0165 -0.9718
vn -0.9698 -0.1632 0.1812
vn -0.1711 -0.2760 -0.9458
vn -0.1705 -0.9853 -0.0134
vn 0.9634 0.1350 -0.2315
vn -0.1954 0.0890 -0.9767
vn 0.7717 0.6080 -0.1869
vn -0.1046 0.0102 -0.9945
vn 0.6682 0.3263 -0.6686
vn -0.1497 -0.2444 -0.9580
vn -0.9759 0.0592 0.2098
vn 0.1500 -0.0304 0.9882
vn 0.1553 0.0265 0.9875
vn -0.9513 0.2254 0.2104
vn 0.6949 0.7185 -0.0275
vn 0.2289 -0.0352 0.9728
vn 0.9851 0.0647 -0.1597
vn 0.7203 0.0616 0.6910
vn 0.7878 0.6092 -0.0908
vn 0.1826 0.2122 0.9600
vn -0.1734 0.1816 -0.9680
vn 0.9440 0.2245 -0.2417
vn -0.6469 0.3737 -0.6647
vn -0.9693 0.2303 0.0858
vn -0.1925 0.1085 -0.9753
vn -0.3361 0.0145 0.9417
vn -0.9633 0.1561 0.2186
vn 0.1199 0.1414 0.9827
vn -0.6520 0.7418 0.1568
vn 0.8618 0.0873 0.4997
vn 0.1895 0.1032 0.9764
vn 0.9986 -0.0487 0.0198
vn 0.2218 0.1412 0.9648
vn -0.1301 0.0715 -0.9889
vn 0.9728 0.1324 -0.1900
vn -0.1211 0.1429 -0.9823
vn 0.6483 0.7457 -0.1536
vn -0.9779 0.1531 0.1426
vn -0.2189 0.0700 -0.9732
vn -0.2229 0.1402 -0.9647
vn -0.1215 -0.3555 0.9268
vn 0.0571 -0.9980 0.0260
vn 0.1812 -0.3322 0.9256
vn 0.1870 -0.2446 0.9514
vn -0.7284 0.0832 0.6800
vn 0.0451 -0.9980 -0.0453
vn 0.7742 -0.3567 -0.5229
vn 0.4488 -0.8863 0.1140
vn -0.1145 0.9735 0.1980
vn 0.8859 0.4263 0.1831
vn 0.1406 0.5155 0.8453
vn 0.1178 0.3412 0.9326
vn 0.1837 0.9725 0.1432
vn 0.3382 0.9330 -0.1230
vn -0.1413 0.5191 -0.8429
vn -0.1599 0.5181 -0.8402
vn -0.0304 0.9986 -0.0431
vn -0.8899 0.4187 -0.1809
vn -0.4361 -0.8959 0.0844
vn -0.0893 -0.2753 -0.9572
vn -0.4655 0.1320 0.8752
vn -0.7123 -0.6906 0.1256
vn 0.1736 -0.0000 0.9848
vn 0.7123 -0.6906 -0.1256
vn 0.7123 0.6906 -0.1256
vn -0.7123 0.6906 0.1256
vn -0.9848 -0.0000 0.1736
vn -0.8980 0.4104 0.1583
vn -0.8980 0.4104 0.1584
vn 0.9848 -0.0000 -0.1736
vn 0.7498 -0.6483 -0.1322
vn 0.7498 0.6483 -0.1322
vn -0.8980 -0.4104 0.1583
vn -0.8980 -0.4104 0.1584
vn -0.7498 0.6483 0.1322
vn 0.8980 -0.4104 -0.1584
vn 0.9848 -0.0000 -0.1737
vn 0.8980 0.4104 -0.1583
vn -0.7498 -0.6483 0.1322
vn -0.9943 -0.0972 0.0442
vn -0.0611 -0.9946 -0.0844
vn -0.0584 -0.9949 0.0818
vn 0.0593 -0.0593 0.9965
vn -0.0626 -0.0626 0.9961
vn -0.9945 0.0616 0.0848
vn 0.4379 -0.6304 0.6409
vn 0.9950 -0.0580 -0.0815
vn 0.9945 -0.0616 0.0847
vn 0.0626 0.0627 0.9961
vn -0.0999 0.9939 0.0474
vn -0.9950 0.0580 -0.0815
vn -0.6534 0.4394 0.6164
vn 0.0584 0.9949 0.0818
vn 0.6273 0.4385 0.6436
vn 0.0611 0.9946 -0.0844
vn -0.0920 0.0357 -0.9951
vn -0.6275 -0.6312 -0.4559
vn -0.6507 0.6310 -0.4224
vn 0.0593 0.0593 -0.9965
vn 0.6343 0.6479 -0.4219
vn 0.0626 -0.0627 -0.9961
vn -0.6534 -0.4394 -0.6164
vn 0.6338 -0.6242 -0.4568
vn 0.4379 -0.6305 0.6409
vn 0.6273 0.4386 0.6436
vn 0.6342 0.6479 -0.4219
vn -0.1754 -0.0018 0.9845
vn -0.1746 0.0010 0.9846
vn -0.7505 -0.6524 -0.1051
vn -0.7225 0.6838 -0.1025
vn 0.9098 0.0732 0.4086
vn 0.9847 0.0178 0.1736
vn 0.7498 0.6483 0.1322
vn -0.9988 -0.0239 0.0434
vn -0.9949 -0.0000 -0.1009
vn -0.9704 0.0230 -0.2404
vn 0.9906 0.0257 0.1342
vn 0.7564 -0.6436 0.1165
vn 0.5958 -0.7988 0.0835
vn 0.6391 0.7639 0.0896
vt 0.751922 0.836800
vt 0.744245 0.893089
vt 0.744064 0.834578
vt 0.742851 0.828236
vt 0.751105 0.744006
vt 0.751093 0.828373
vt 0.832956 0.836978
vt 0.744176 0.737701
vt 0.752583 0.683165
vt 0.752037 0.735683
vt 0.833623 0.744079
vt 0.840888 0.834788
vt 0.831928 0.893506
vt 0.833859 0.828462
vt 0.841869 0.743967
vt 0.842121 0.828243
vt 0.832770 0.735821
vt 0.840721 0.682691
vt 0.840564 0.737888
vt 0.829660 0.901202
vt 0.752198 0.892525
vt 0.836879 0.900299
vt 0.826761 0.977312
vt 0.827873 0.984625
vt 0.754506 0.976028
vt 0.754296 0.900201
vt 0.747239 0.977429
vt 0.747128 0.899035
vt 0.891399 0.828247
vt 0.693485 0.743593
vt 0.693582 0.828639
vt 0.833971 0.978988
vt 0.753125 0.983279
vt 0.841385 0.586458
vt 0.785096 0.578781
vt 0.843607 0.578600
vt 0.849949 0.577388
vt 0.934180 0.585642
vt 0.849812 0.585630
vt 0.841207 0.667492
vt 0.940484 0.578712
vt 0.995020 0.587119
vt 0.942502 0.586573
vt 0.934106 0.668159
vt 0.843398 0.675424
vt 0.784680 0.666465
vt 0.849723 0.668396
vt 0.934218 0.676405
vt 0.849942 0.676657
vt 0.942364 0.667307
vt 0.995494 0.675257
vt 0.940298 0.675100
vt 0.776983 0.664196
vt 0.785660 0.586735
vt 0.777886 0.671416
vt 0.700873 0.661297
vt 0.693560 0.662409
vt 0.702157 0.589042
vt 0.777984 0.588833
vt 0.700756 0.581775
vt 0.779151 0.581664
vt 0.849938 0.725935
vt 0.934592 0.528021
vt 0.849546 0.528118
vt 0.699198 0.668507
vt 0.694906 0.587661
vt 0.034691 0.755832
vt 0.076583 0.759341
vt 0.034710 0.759306
vt 0.005027 0.729516
vt 0.008415 0.685548
vt 0.008392 0.729442
vt 0.031775 0.732555
vt 0.008015 0.732459
vt 0.034754 0.655705
vt 0.076649 0.659177
vt 0.034733 0.659178
vt 0.008043 0.682517
vt 0.031451 0.685475
vt 0.034815 0.729645
vt 0.076616 0.733152
vt 0.034766 0.733115
vt 0.031438 0.729530
vt 0.034838 0.685365
vt 0.034789 0.681894
vt 0.076596 0.685369
vt 0.079975 0.729558
vt 0.103463 0.732442
vt 0.079633 0.732578
vt 0.076577 0.729677
vt 0.079983 0.685491
vt 0.079646 0.682459
vt 0.103091 0.685645
vt 0.103074 0.729414
vt 0.106454 0.685605
vt 0.106431 0.729458
vt 0.146973 0.729204
vt 0.076610 0.755869
vt 0.005057 0.685469
vt 0.031795 0.682463
vt 0.103485 0.682631
vt 0.903116 0.956245
vt 0.899561 0.991069
vt 0.898830 0.954953
vt 0.897636 0.951377
vt 0.902478 0.904201
vt 0.902555 0.951376
vt 0.948435 0.956191
vt 0.898731 0.900616
vt 0.903891 0.865701
vt 0.903079 0.899346
vt 0.948930 0.904166
vt 0.952786 0.954926
vt 0.947777 0.989458
vt 0.949032 0.951350
vt 0.953848 0.904186
vt 0.953954 0.951326
vt 0.948362 0.899282
vt 0.951721 0.864066
vt 0.952646 0.900577
vt 0.947910 0.994271
vt 0.903832 0.989489
vt 0.951233 0.816638
vt 0.947604 0.860757
vt 0.946624 0.816747
vt 0.947479 0.865628
vt 0.903808 0.860810
vt 0.904620 0.816818
vt 0.899270 0.860215
vt 0.900000 0.816727
vt 0.985172 0.951256
vt 0.866331 0.904320
vt 0.866421 0.951438
vt 0.951980 0.991074
vt 0.903650 0.994280
vt 0.899714 0.864110
vt 0.155239 0.419813
vt 0.042726 0.431453
vt 0.157000 0.424058
vt 0.041394 0.426891
vt 0.016611 0.442524
vt 0.232601 0.591398
vt 0.242239 0.584370
vt 0.230271 0.586280
vt 0.092667 0.615937
vt 0.049386 0.609264
vt 0.092357 0.622649
vt 0.045150 0.312979
vt 0.154400 0.324252
vt 0.156016 0.319500
vt 0.215270 0.323051
vt 0.222311 0.163748
vt 0.102395 0.147248
vt 0.220164 0.168732
vt 0.231906 0.166623
vt 0.237141 0.176177
vt 0.246294 0.572932
vt 0.217393 0.422097
vt 0.362929 0.327095
vt 0.216399 0.316608
vt 0.365500 0.320102
vt 0.361832 0.320850
vt 0.378261 0.227185
vt 0.239626 0.169281
vt 0.381313 0.229258
vt 0.381700 0.221781
vt 0.248651 0.578027
vt 0.388474 0.506910
vt 0.392394 0.512172
vt 0.391441 0.504389
vt 0.218899 0.427408
vt 0.366390 0.407631
vt 0.369847 0.414382
vt 0.366036 0.414009
vt 0.019790 0.300574
vt 0.023927 0.156520
vt 0.013618 0.304282
vt 0.029787 0.160066
vt 0.062279 0.141906
vt 0.043610 0.317548
vt 0.011082 0.584820
vt 0.010705 0.438448
vt 0.044704 0.614223
vt 0.017332 0.583553
vt 0.101923 0.141799
vt 0.064571 0.146805
vt 0.443091 0.550324
vt 0.445314 0.542919
vt 0.441798 0.544514
vt 0.356663 0.545602
vt 0.353113 0.544178
vt 0.355374 0.551430
vt 0.398542 0.500612
vt 0.392153 0.500548
vt 0.372319 0.417240
vt 0.377860 0.414021
vt 0.443049 0.625547
vt 0.355844 0.626280
vt 0.624122 0.528881
vt 0.474933 0.651771
vt 0.623506 0.651381
vt 0.257439 0.054020
vt 0.114343 0.011616
vt 0.267387 0.061403
vt 0.274828 0.067889
vt 0.062009 0.015761
vt 0.449738 0.548328
vt 0.422600 0.152047
vt 0.387447 0.225911
vt 0.373308 0.408636
vt 0.369859 0.325423
vt 0.349228 0.626356
vt 0.348689 0.549447
vt 0.419690 0.281147
vt 0.401139 0.298246
vt 0.409809 0.302296
vt 0.510052 0.044942
vt 0.482759 0.038009
vt 0.495680 0.058628
vt 0.473882 0.112818
vt 0.454527 0.130519
vt 0.463627 0.134770
vt 0.453310 0.156854
vt 0.444210 0.152603
vt 0.491032 0.005436
vt 0.503954 0.026055
vt 0.464782 0.108567
vt 0.484138 0.090867
vt 0.475038 0.086616
vt 0.433204 0.252219
vt 0.420849 0.256057
vt 0.429519 0.260107
vt 0.500489 0.066366
vt 0.391259 0.319395
vt 0.399929 0.323445
vt 0.474485 0.070582
vt 0.433955 0.174555
vt 0.525149 0.014102
vt 0.561228 0.057941
vt 0.533934 0.051008
vt 0.540032 0.069894
vt 0.407266 0.255414
vt 0.408483 0.229078
vt 0.398166 0.251163
vt 0.487291 0.113833
vt 0.486292 0.138582
vt 0.495962 0.117884
vt 0.427838 0.211378
vt 0.429055 0.185042
vt 0.418738 0.207126
vt 0.467797 0.155562
vt 0.476467 0.159613
vt 0.552954 0.090513
vt 0.496960 0.093136
vt 0.505631 0.097187
vt 0.472014 0.169145
vt 0.569501 0.025368
vt 0.548306 0.037321
vt 0.396949 0.277498
vt 0.387849 0.273247
vt 0.535384 0.016702
vt 0.530210 0.075454
vt 0.522422 0.056818
vt 0.458791 0.197449
vt 0.455300 0.182311
vt 0.450121 0.193398
vt 0.441083 0.235353
vt 0.437089 0.221293
vt 0.432413 0.231303
vt 0.516299 0.054693
vt 0.452292 0.211361
vt 0.445760 0.225344
vt 0.524576 0.037808
vt 0.431509 0.179789
vt 0.443055 0.178807
vt 0.438155 0.189294
vt 0.440609 0.184041
vt 0.530852 0.013099
vt 0.443621 0.207311
vt 0.463344 0.165094
vt 0.463971 0.186362
vt 0.424534 0.248168
vt 0.521145 0.961517
vt 0.511267 0.784949
vt 0.530595 0.782112
vt 0.383377 0.995863
vt 0.153004 0.985019
vt 0.382555 0.984694
vt 0.502335 0.956824
vt 0.381669 0.935250
vt 0.389123 0.919586
vt 0.032966 0.957137
vt 0.004526 0.782416
vt 0.023858 0.785231
vt 0.035500 0.974879
vt 0.146420 0.919975
vt 0.154149 0.934684
vt 0.373335 0.912296
vt 0.392716 0.810650
vt 0.373080 0.924315
vt 0.161930 0.912489
vt 0.142522 0.810763
vt 0.160622 0.816818
vt 0.510770 0.766888
vt 0.373698 0.804588
vt 0.161588 0.804881
vt 0.024224 0.767196
vt 0.149088 0.793906
vt 0.381143 0.744151
vt 0.153229 0.733539
vt 0.381822 0.733354
vt 0.374542 0.816649
vt 0.380772 0.641990
vt 0.499964 0.974403
vt 0.014077 0.961885
vt 0.386174 0.793719
vt 0.552379 0.883259
vt 0.545521 0.955011
vt 0.545453 0.883308
vt 0.631913 0.851563
vt 0.684772 0.844609
vt 0.685089 0.850828
vt 0.597667 0.850306
vt 0.590471 0.879314
vt 0.592719 0.849507
vt 0.735887 0.886035
vt 0.725678 0.960998
vt 0.729065 0.885720
vt 0.690225 0.850053
vt 0.687080 0.879700
vt 0.594309 0.885514
vt 0.586587 0.953509
vt 0.587240 0.884465
vt 0.631335 0.880899
vt 0.687798 0.885985
vt 0.631191 0.887041
vt 0.694745 0.885460
vt 0.685380 0.956728
vt 0.594388 0.958704
vt 0.590531 0.988066
vt 0.589391 0.958452
vt 0.629665 0.957949
vt 0.684423 0.962887
vt 0.689643 0.962934
vt 0.680759 0.991170
vt 0.628835 0.985896
vt 0.679891 0.997328
vt 0.628528 0.991379
vt 0.629795 0.951962
vt 0.631378 0.787756
vt 0.631950 0.845629
vt 0.552406 0.954989
vt 0.598007 0.843992
vt 0.595494 0.879248
vt 0.692296 0.879920
vt 0.593514 0.952506
vt 0.595484 0.987154
vt 0.596241 0.993418
vt 0.685820 0.992290
vt 0.598176 0.787449
vt 0.701032 0.353735
vt 0.705387 0.472807
vt 0.700898 0.473871
vt 0.719320 0.499828
vt 0.715032 0.505630
vt 0.860430 0.306994
vt 0.855875 0.308226
vt 0.858387 0.297069
vt 0.867542 0.475175
vt 0.872760 0.475994
vt 0.865066 0.493156
vt 0.602226 0.348838
vt 0.590114 0.469717
vt 0.597454 0.346982
vt 0.604983 0.308237
vt 0.441113 0.276231
vt 0.412291 0.470461
vt 0.405823 0.471315
vt 0.447255 0.278959
vt 0.448803 0.266160
vt 0.460736 0.262614
vt 0.850264 0.290114
vt 0.856271 0.288894
vt 0.705397 0.352266
vt 0.706053 0.314542
vt 0.711620 0.313745
vt 0.598358 0.306686
vt 0.629756 0.145824
vt 0.623111 0.142210
vt 0.628899 0.138946
vt 0.454824 0.259339
vt 0.529594 0.119231
vt 0.524518 0.114927
vt 0.532232 0.116471
vt 0.818495 0.146146
vt 0.824526 0.144174
vt 0.816931 0.142476
vt 0.822139 0.138085
vt 0.710794 0.151213
vt 0.717218 0.152095
vt 0.718154 0.148287
vt 0.574198 0.497146
vt 0.433447 0.503519
vt 0.434717 0.497185
vt 0.418321 0.489343
vt 0.594614 0.471050
vt 0.855282 0.508614
vt 0.869965 0.494382
vt 0.413947 0.494177
vt 0.536454 0.109430
vt 0.529761 0.110470
vt 0.620303 0.139726
vt 0.536109 0.115782
vt 0.623727 0.134296
vt 0.958065 0.089455
vt 0.959810 0.097240
vt 0.956572 0.095286
vt 0.876841 0.097082
vt 0.875119 0.091305
vt 0.873794 0.099223
vt 0.869389 0.094180
vt 0.873315 0.015543
vt 0.832534 0.007348
vt 0.699882 0.126159
vt 0.700099 0.007107
vt 0.993792 0.481861
vt 0.976934 0.285179
vt 0.964589 0.267016
vt 0.970385 0.274830
vt 0.900318 0.121463
vt 0.987155 0.506418
vt 0.984125 0.529219
vt 0.852081 0.502140
vt 0.578384 0.503124
vt 0.964452 0.015132
vt 0.958074 0.015230
vt 0.897722 0.115287
vt 0.712106 0.144683
vt 0.866921 0.015457
vt 0.623395 0.146102
vt 0.658321 0.535280
vt 0.682942 0.529511
vt 0.682941 0.535280
vt 0.643696 0.023736
vt 0.643222 0.051133
vt 0.625700 0.041024
vt 0.817434 0.553390
vt 0.792814 0.547621
vt 0.817434 0.547621
vt 0.768194 0.553390
vt 0.792814 0.553390
vt 0.678671 0.024593
vt 0.661070 0.041447
vt 0.842055 0.553390
vt 0.842055 0.547621
vt 0.707562 0.529511
vt 0.732182 0.535280
vt 0.707562 0.535280
vt 0.607203 0.059274
vt 0.633701 0.529511
vt 0.633701 0.535280
vt 0.608756 0.023397
vt 0.626462 0.006242
vt 0.743573 0.547621
vt 0.768194 0.547621
vt 0.679099 0.059615
vt 0.643246 0.077380
vt 0.643436 0.104971
vt 0.625775 0.087721
vt 0.682784 0.547621
vt 0.658164 0.553390
vt 0.658164 0.547621
vt 0.817591 0.535280
vt 0.792971 0.529511
vt 0.817591 0.529511
vt 0.707405 0.553390
vt 0.732025 0.547621
vt 0.732025 0.553390
vt 0.768351 0.529511
vt 0.792971 0.535280
vt 0.768351 0.535280
vt 0.608688 0.105274
vt 0.842212 0.529511
vt 0.743730 0.529511
vt 0.678223 0.104680
vt 0.661006 0.122156
vt 0.707405 0.547621
vt 0.633544 0.553390
vt 0.660791 0.087564
vt 0.678912 0.069927
vt 0.607306 0.069906
vt 0.737956 0.535280
vt 0.743730 0.535280
vt 0.630632 0.064395
vt 0.604888 0.064617
vt 0.643234 0.073752
vt 0.642672 0.055417
vt 0.635580 0.064553
vt 0.732182 0.529511
vt 0.655372 0.064367
vt 0.651180 0.064050
vt 0.737799 0.553390
vt 0.737799 0.547621
vt 0.585845 0.710117
vt 0.589400 0.675292
vt 0.590132 0.711408
vt 0.591325 0.714984
vt 0.586483 0.762160
vt 0.586406 0.714985
vt 0.540527 0.710170
vt 0.590231 0.765745
vt 0.585071 0.800660
vt 0.585883 0.767015
vt 0.540032 0.762195
vt 0.536176 0.711435
vt 0.541185 0.676903
vt 0.539930 0.715011
vt 0.535113 0.762175
vt 0.535008 0.715035
vt 0.540599 0.767079
vt 0.537240 0.802295
vt 0.536315 0.765784
vt 0.541051 0.672091
vt 0.585129 0.676872
vt 0.537728 0.849724
vt 0.541357 0.805604
vt 0.542338 0.849614
vt 0.541483 0.800733
vt 0.585154 0.805551
vt 0.584341 0.849544
vt 0.589691 0.806146
vt 0.588961 0.849634
vt 0.503789 0.715105
vt 0.622631 0.762041
vt 0.622541 0.714923
vt 0.536981 0.675287
vt 0.585311 0.672081
vt 0.589248 0.802251
vt 0.420768 0.665399
vt 0.390702 0.662421
vt 0.421492 0.662260
vt 0.424389 0.661284
vt 0.459344 0.664984
vt 0.424444 0.665103
vt 0.420789 0.699700
vt 0.462278 0.662088
vt 0.491561 0.665524
vt 0.462944 0.665325
vt 0.459403 0.700029
vt 0.421493 0.702897
vt 0.391493 0.699526
vt 0.424431 0.700028
vt 0.459436 0.703851
vt 0.424384 0.703836
vt 0.463074 0.699717
vt 0.493848 0.702004
vt 0.462415 0.702845
vt 0.387817 0.699665
vt 0.391489 0.665594
vt 0.528091 0.703440
vt 0.495425 0.698564
vt 0.528368 0.699626
vt 0.492002 0.698935
vt 0.494992 0.665955
vt 0.528956 0.664852
vt 0.493428 0.662518
vt 0.528776 0.661122
vt 0.424379 0.732496
vt 0.459389 0.632525
vt 0.424303 0.632627
vt 0.390680 0.702645
vt 0.387837 0.665418
vt 0.672864 0.669353
vt 0.675843 0.639287
vt 0.676003 0.670077
vt 0.676980 0.672974
vt 0.673279 0.707929
vt 0.673160 0.673029
vt 0.638564 0.669374
vt 0.676175 0.710863
vt 0.672739 0.740146
vt 0.672939 0.711529
vt 0.638235 0.707988
vt 0.635367 0.670078
vt 0.638738 0.640078
vt 0.638235 0.673016
vt 0.634413 0.708021
vt 0.634428 0.672969
vt 0.638547 0.711660
vt 0.636260 0.742433
vt 0.635418 0.711000
vt 0.638598 0.636402
vt 0.672669 0.640074
vt 0.634824 0.776676
vt 0.639699 0.744010
vt 0.638637 0.776953
vt 0.639329 0.740587
vt 0.672308 0.743577
vt 0.673412 0.777541
vt 0.675746 0.742012
vt 0.677141 0.777361
vt 0.605767 0.672964
vt 0.705739 0.707974
vt 0.705637 0.672888
vt 0.635619 0.639265
vt 0.672846 0.636422
vt 0.742839 0.743968
vt 0.744751 0.681837
vt 0.839998 0.894204
vt 0.832880 0.683837
vt 0.891207 0.743205
vt 0.934217 0.577375
vt 0.996349 0.579287
vt 0.783982 0.674534
vt 0.994348 0.667416
vt 0.934980 0.725743
vt 0.076625 0.655704
vt 0.076636 0.681895
vt 0.147001 0.685912
vt 0.897556 0.904244
vt 0.952153 0.860147
vt 0.985069 0.904136
vt 0.397124 0.507224
vt 0.476003 0.529752
vt 0.416769 0.148539
vt 0.014319 0.024406
vt 0.449647 0.625544
vt 0.411019 0.277097
vt 0.469837 0.017390
vt 0.461563 0.049963
vt 0.417583 0.233329
vt 0.477622 0.134531
vt 0.574149 0.078560
vt 0.582423 0.045987
vt 0.152241 0.996136
vt 0.161721 0.924092
vt 0.153924 0.744334
vt 0.154133 0.642200
vt 0.732467 0.961361
vt 0.692062 0.957867
vt 0.682621 0.784250
vt 0.963900 0.092088
vt 0.832317 0.126400
vt 0.658321 0.529511
vt 0.661631 0.006844
vt 0.743573 0.553390
vt 0.682784 0.553390
vt 0.626252 0.122448
vt 0.842211 0.535280
vt 0.633544 0.547621
vt 0.737956 0.529511
vt 0.681354 0.064818
vt 0.591406 0.762117
vt 0.536809 0.806214
vt 0.503893 0.762225
vt 0.459409 0.661170
vt 0.459460 0.732480
vt 0.677094 0.707995
vt 0.605783 0.708045
s 1
usemtl shader
f 3/1/1 21/2/2 1/3/3
f 1/4/3 5/5/4 2/6/5
f 2/6/5 7/7/6 3/1/1
f 6/8/7 24/9/8 4/10/9
f 4/10/9 11/11/10 5/5/4
f 9/12/11 13/13/12 7/7/6
f 8/14/13 10/15/14 9/16/11
f 12/17/15 17/18/16 10/19/14
f 15/20/17 19/21/18 13/13/12
f 14/22/19 16/23/20 15/20/17
f 18/24/21 23/25/22 16/23/20
f 20/26/23 22/27/24 21/28/2
f 5/5/4 8/14/13 2/6/5
f 10/15/14 14/29/19 9/16/11
f 16/23/20 20/26/23 15/20/17
f 22/30/24 1/4/3 21/31/2
f 24/9/8 12/17/15 4/10/9
f 3/1/1 13/13/12 19/21/18
f 1/3/3 2/6/5 3/1/1
f 4/10/9 5/5/4 6/8/7
f 7/7/6 8/14/13 9/12/11
f 10/19/14 11/11/10 12/17/15
f 13/13/12 14/22/19 15/20/17
f 16/23/20 17/32/16 18/24/21
f 19/21/18 20/26/23 21/28/2
f 22/27/24 23/25/22 24/33/8
f 27/34/1 45/35/2 25/36/3
f 25/37/3 29/38/4 26/39/25
f 26/39/25 31/40/6 27/34/1
f 30/41/7 48/42/8 28/43/9
f 28/43/9 35/44/10 29/38/4
f 33/45/11 37/46/12 31/40/6
f 32/47/13 34/48/14 33/49/11
f 36/50/15 41/51/16 34/52/14
f 39/53/17 43/54/18 37/46/12
f 38/55/19 40/56/20 39/53/17
f 42/57/21 47/58/22 40/56/20
f 44/59/23 46/60/24 45/61/2
f 29/38/4 32/47/13 26/39/25
f 34/48/14 38/62/19 33/49/11
f 40/56/20 44/59/23 39/53/17
f 46/63/24 25/37/3 45/64/2
f 48/42/8 36/50/15 28/43/9
f 27/34/1 37/46/12 43/54/18
f 25/36/3 26/39/25 27/34/1
f 28/43/9 29/38/4 30/41/7
f 31/40/6 32/47/13 33/45/11
f 34/52/14 35/44/10 36/50/15
f 37/46/12 38/55/19 39/53/17
f 40/56/20 41/65/16 42/57/21
f 43/54/18 44/59/23 45/61/2
f 46/60/24 47/58/22 48/66/8
f 51/67/26 69/68/27 49/69/28
f 49/70/28 53/71/29 50/72/30
f 50/72/30 55/73/31 51/74/26
f 54/75/32 72/76/33 52/77/34
f 52/78/34 59/79/35 53/71/29
f 57/80/36 61/81/37 55/82/31
f 56/83/38 58/84/39 57/80/36
f 60/85/40 65/86/41 58/84/39
f 63/87/42 67/88/43 61/89/37
f 62/90/44 64/91/45 63/87/42
f 66/92/46 71/93/47 64/91/45
f 68/94/48 70/95/49 69/96/27
f 53/71/29 56/83/38 50/72/30
f 58/84/39 62/90/44 57/80/36
f 64/91/45 68/94/48 63/87/42
f 70/95/49 49/97/28 69/96/27
f 72/76/33 60/85/40 52/77/34
f 51/67/26 61/81/37 67/98/43
f 49/70/28 50/72/30 51/74/26
f 52/78/34 53/71/29 54/99/32
f 55/73/31 56/83/38 57/80/36
f 58/84/39 59/79/35 60/100/40
f 61/89/37 62/90/44 63/87/42
f 64/91/45 65/86/41 66/92/46
f 67/88/43 68/94/48 69/96/27
f 70/95/49 71/93/47 72/101/33
f 75/102/1 93/103/2 73/104/3
f 73/105/3 77/106/50 74/107/5
f 74/107/5 79/108/6 75/102/1
f 78/109/7 96/110/8 76/111/9
f 76/111/9 83/112/51 77/106/50
f 81/113/11 85/114/12 79/108/6
f 80/115/13 82/116/14 81/117/11
f 84/118/15 89/119/16 82/120/14
f 87/121/52 91/122/18 85/114/12
f 86/123/19 88/124/53 87/125/52
f 90/126/54 95/127/55 88/124/53
f 92/128/23 94/129/24 93/130/2
f 77/106/50 80/115/13 74/107/5
f 82/116/14 86/131/19 81/117/11
f 88/124/53 92/128/23 87/125/52
f 94/132/24 73/105/3 93/133/2
f 96/110/8 84/118/15 76/111/9
f 75/102/1 85/114/12 91/122/18
f 73/104/3 74/107/5 75/102/1
f 76/111/9 77/106/50 78/109/7
f 79/108/6 80/115/13 81/113/11
f 82/120/14 83/112/51 84/118/15
f 85/114/12 86/134/19 87/121/52
f 88/124/53 89/119/16 90/126/54
f 91/122/18 92/135/23 93/103/2
f 94/136/24 95/127/55 96/110/8
f 98/137/56 100/138/57 97/139/58
f 99/140/59 133/141/60 100/138/57
f 101/142/61 110/143/62 102/144/63
f 104/145/64 101/142/61 102/144/63
f 142/146/65 103/147/66 104/145/64
f 132/148/67 106/149/68 105/150/69
f 112/151/70 105/150/69 106/149/68
f 107/152/71 138/153/72 108/154/73
f 108/154/73 109/155/74 107/152/71
f 116/156/75 109/155/74 108/154/73
f 110/143/62 119/157/76 102/144/63
f 97/139/58 123/158/77 98/137/56
f 113/159/78 111/160/79 112/151/70
f 113/159/78 156/161/80 114/162/81
f 118/163/82 115/164/83 116/156/75
f 152/165/84 117/166/85 118/163/82
f 120/167/86 122/168/87 119/157/76
f 121/169/88 154/170/89 122/168/87
f 124/171/90 125/172/91 123/158/77
f 158/173/92 125/172/91 126/174/93
f 127/175/94 130/176/95 128/177/96
f 129/178/97 139/179/98 130/176/95
f 127/175/94 131/180/99 132/148/67
f 135/181/100 133/141/60 134/182/101
f 141/183/102 136/184/103 135/181/100
f 137/185/104 140/186/105 138/153/72
f 143/187/106 152/188/84 144/189/107
f 145/190/108 143/187/106 144/189/107
f 156/191/80 146/192/109 145/190/108
f 154/170/89 148/193/110 147/194/111
f 148/193/110 150/195/112 147/194/111
f 149/196/113 158/173/92 150/195/112
f 148/197/110 146/192/109 149/198/113
f 128/199/96 135/200/100 134/201/101
f 137/185/104 101/202/61 103/203/66
f 98/137/56 131/180/99 99/140/59
f 111/160/79 108/154/73 105/150/69
f 115/164/83 110/204/62 109/155/74
f 102/144/63 124/171/90 97/139/58
f 98/137/56 112/151/70 106/149/68
f 117/166/85 120/205/86 115/164/83
f 123/158/77 113/159/78 112/151/70
f 103/203/66 139/179/98 137/185/104
f 141/206/102 130/176/95 139/179/98
f 140/186/105 129/178/97 127/175/94
f 136/184/103 142/146/65 133/141/60
f 99/140/59 128/177/96 134/182/101
f 138/153/72 105/150/69 108/154/73
f 104/145/64 97/139/58 100/138/57
f 104/145/64 133/141/60 142/146/65
f 138/153/72 127/175/94 132/148/67
f 109/155/74 101/202/61 107/152/71
f 148/197/110 151/207/114 143/187/106
f 153/208/115 117/166/85 151/209/114
f 113/159/78 157/210/116 155/211/117
f 157/212/116 146/192/109 155/213/117
f 152/165/84 114/162/81 156/161/80
f 126/174/93 119/157/76 122/168/87
f 145/190/108 152/188/84 156/191/80
f 116/156/75 114/162/81 118/163/82
f 158/173/92 147/194/111 150/195/112
f 158/173/92 122/168/87 154/170/89
s 0
f 173/214/118 175/215/118 174/216/118
f 163/217/119 162/218/120 161/219/121
f 168/220/122 169/221/122 167/222/122
f 166/223/123 169/221/123 164/224/123
f 169/225/120 162/218/120 164/226/120
f 170/227/118 160/228/118 162/229/118
f 171/230/118 161/231/118 159/232/118
f 161/219/121 172/233/124 163/217/125
f 174/216/122 162/234/122 160/235/122
f 162/218/120 176/236/120 161/219/126
f 161/231/127 173/214/127 159/232/127
f 177/237/122 166/223/122 164/224/122
f 163/217/125 177/238/120 164/226/120
f 183/239/120 182/240/128 181/241/129
f 198/242/123 196/243/123 195/244/123
f 192/245/127 190/246/127 189/247/127
f 186/248/123 188/249/123 184/250/123
f 190/246/118 181/251/118 179/252/118
f 191/253/120 183/239/120 181/241/129
f 183/254/123 189/247/123 185/255/123
f 181/251/127 193/256/127 179/252/127
f 183/239/120 196/257/120 184/258/120
f 196/243/122 186/248/122 184/250/122
f 185/259/127 195/244/127 183/260/127
f 184/258/120 188/261/120 182/240/130
f 182/240/130 194/262/131 181/241/129
f 194/262/132 182/240/132 205/263/132
f 180/264/133 205/265/133 182/266/133
f 200/267/134 163/268/134 199/269/134
f 172/233/135 199/270/135 163/217/135
f 204/271/136 163/268/137 165/272/137
f 203/273/120 177/238/120 163/217/120
f 202/274/138 178/275/139 177/237/139
f 202/274/140 187/276/141 201/277/142
f 203/273/120 188/261/120 202/278/120
f 204/271/143 182/266/144 203/279/145
f 194/280/146 206/281/146 193/256/146
f 171/230/147 199/269/147 172/282/147
s 1
f 207/283/148 225/284/149 227/285/150
f 207/286/148 211/287/151 208/288/152
f 209/289/153 214/290/154 213/291/155
f 210/292/156 228/293/157 230/294/158
f 211/295/151 218/296/159 217/297/160
f 215/298/161 219/299/162 213/291/155
f 214/300/154 216/301/163 215/298/161
f 216/301/163 224/302/164 223/303/165
f 219/299/162 226/304/166 225/284/149
f 221/305/167 223/303/165 222/306/168
f 224/302/164 229/307/169 222/308/168
f 226/309/166 228/310/157 227/311/150
f 211/287/151 214/300/154 208/288/152
f 215/298/161 223/303/165 220/312/170
f 222/306/168 226/309/166 221/305/167
f 228/310/157 207/313/148 227/311/150
f 210/292/156 224/302/164 218/296/159
f 209/289/153 219/299/162 225/284/149
f 207/283/148 208/314/152 209/289/153
f 210/292/156 211/295/151 212/315/171
f 213/291/155 214/290/154 215/298/161
f 216/301/163 217/297/160 218/296/159
f 219/299/162 220/312/170 221/316/167
f 222/308/168 223/303/165 224/302/164
f 225/284/149 226/304/166 227/285/150
f 228/293/157 229/307/169 230/294/158
f 233/317/172 251/318/173 231/319/174
f 262/320/175 236/321/176 235/322/177
f 232/323/178 237/324/179 233/325/172
f 236/326/176 254/327/180 234/328/181
f 234/329/181 241/330/182 235/322/177
f 239/331/183 243/332/184 237/333/179
f 261/334/185 240/335/186 260/336/187
f 242/337/188 247/338/189 240/335/186
f 245/339/190 249/340/191 243/341/184
f 258/342/192 247/338/189 246/343/193
f 248/344/194 253/345/195 246/343/193
f 257/346/196 252/347/197 256/348/198
f 262/320/175 241/330/182 261/334/185
f 260/336/187 247/338/189 259/349/199
f 258/342/192 253/345/195 257/346/196
f 256/350/198 236/321/176 255/351/200
f 254/327/180 242/337/188 234/328/181
f 233/317/172 243/332/184 249/352/191
f 231/353/174 232/323/178 233/325/172
f 234/329/181 235/322/177 236/321/176
f 237/324/179 238/354/201 239/331/183
f 240/335/186 241/330/182 242/355/188
f 243/341/184 244/356/202 245/339/190
f 246/343/193 247/338/189 248/344/194
f 249/340/191 250/357/203 251/358/173
f 252/347/197 253/345/195 254/359/180
f 256/350/198 231/353/174 251/360/173
f 251/358/173 257/346/196 256/348/198
f 258/342/192 250/357/203 245/339/190
f 244/356/202 258/342/192 245/339/190
f 260/336/187 244/356/202 239/331/183
f 239/331/183 261/334/185 260/336/187
f 262/320/175 238/354/201 232/323/178
f 231/353/174 262/320/175 232/323/178
f 264/361/204 266/362/205 265/363/206
f 265/363/206 299/364/207 300/365/208
f 267/366/209 268/367/210 276/368/211
f 267/366/209 270/369/212 268/367/210
f 269/370/213 308/371/214 270/369/212
f 272/372/215 298/373/216 271/374/217
f 271/374/217 278/375/218 272/372/215
f 273/376/219 304/377/220 303/378/221
f 274/379/222 273/376/219 275/380/223
f 275/380/223 282/381/224 274/379/222
f 276/368/211 285/382/225 286/383/226
f 263/384/227 289/385/228 290/386/229
f 277/387/230 279/388/231 278/375/218
f 279/388/231 322/389/232 321/390/233
f 281/391/234 284/392/235 282/381/224
f 283/393/236 318/394/237 284/392/235
f 286/383/226 288/395/238 287/396/239
f 287/396/239 320/397/240 319/398/241
f 290/386/229 291/399/242 292/400/243
f 291/399/242 324/401/244 292/400/243
f 293/402/245 296/403/246 295/404/247
f 296/403/246 306/405/248 295/404/247
f 297/406/249 293/402/245 298/373/216
f 299/364/207 301/407/250 300/365/208
f 301/407/250 308/371/214 307/408/251
f 303/378/221 306/405/248 305/409/252
f 309/410/253 318/394/237 317/411/254
f 309/410/253 311/412/255 310/413/256
f 312/414/257 322/389/232 311/412/255
f 314/415/258 320/416/240 313/417/259
f 314/415/258 316/418/260 315/419/261
f 315/419/261 324/420/244 323/421/262
f 312/422/257 314/415/258 315/419/261
f 294/423/263 301/424/250 296/425/246
f 303/426/221 267/366/209 273/427/219
f 297/406/249 264/361/204 265/363/206
f 274/379/222 277/387/230 271/374/217
f 276/368/211 281/428/234 275/429/223
f 268/367/210 290/386/229 285/382/225
f 264/361/204 278/375/218 289/385/228
f 286/383/226 283/430/236 281/428/234
f 289/385/228 279/388/231 291/399/242
f 305/431/252 269/370/213 303/426/221
f 296/432/246 307/408/251 305/431/252
f 306/405/248 293/402/245 295/404/247
f 302/433/264 299/364/207 308/371/214
f 294/434/263 265/363/206 300/365/208
f 271/374/217 304/377/220 274/379/222
f 270/369/212 263/384/227 268/367/210
f 299/364/207 270/369/212 308/371/214
f 304/377/220 293/402/245 306/405/248
f 267/366/209 275/429/223 273/427/219
f 317/435/254 314/415/258 309/436/253
f 283/430/236 319/398/241 317/437/254
f 279/388/231 323/438/262 291/399/242
f 312/422/257 323/421/262 321/439/233
f 280/440/265 318/394/237 322/389/232
f 292/400/243 285/382/225 290/386/229
f 318/394/237 311/412/255 322/389/232
f 280/440/265 282/381/224 284/392/235
f 324/420/244 313/417/259 320/416/240
f 324/401/244 288/395/238 292/400/243
s 0
f 340/441/266 342/442/266 339/443/266
s 1
f 328/444/267 329/445/267 327/446/267
s 0
f 334/447/268 335/448/268 336/449/268
f 332/450/269 335/448/269 333/451/269
s 1
f 328/444/267 335/452/267 330/453/267
s 0
f 326/454/266 336/449/266 328/455/266
f 327/456/266 337/457/266 325/458/266
s 1
f 327/446/267 329/445/267 338/459/267
s 0
f 328/460/268 340/441/268 326/461/268
s 1
f 328/444/267 342/462/267 341/463/267
s 0
f 325/458/270 342/442/270 327/456/270
f 332/450/268 343/464/268 330/465/268
s 1
f 329/445/267 330/453/267 343/466/267
f 348/467/267 349/468/267 347/469/267
s 0
f 362/470/269 364/471/269 361/472/269
f 355/473/270 357/474/270 358/475/270
f 352/476/269 354/477/269 353/478/269
f 347/479/266 356/480/266 345/481/266
s 1
f 349/468/267 357/482/267 347/469/267
s 0
f 349/483/269 355/473/269 358/475/269
f 345/481/270 360/484/270 347/479/270
s 1
f 349/468/267 362/485/267 361/486/267
s 0
f 352/476/268 362/470/268 350/487/268
f 351/488/270 361/472/270 364/471/270
s 1
f 350/489/267 348/467/267 354/490/267
f 348/467/267 347/469/267 360/491/267
f 367/492/271 360/484/272 359/493/273
f 365/494/267 360/491/267 368/495/267
f 365/494/274 346/496/275 348/467/275
f 365/494/274 331/497/276 366/498/274
f 338/499/277 367/492/271 337/457/278
f 338/459/267 365/494/267 368/495/267
f 331/497/279 371/500/271 372/501/271
f 343/466/267 371/500/267 329/445/267
f 343/464/280 369/502/281 370/503/274
f 370/503/274 353/478/282 354/477/282
f 371/500/267 354/490/267 348/467/267
f 371/500/271 346/496/283 372/501/271
f 375/504/1 393/505/2 373/506/3
f 373/507/3 377/508/4 374/509/5
f 374/509/5 379/510/6 375/504/1
f 378/511/7 396/512/8 376/513/9
f 376/513/9 383/514/10 377/508/4
f 381/515/11 385/516/12 379/510/6
f 380/517/13 382/518/14 381/519/11
f 384/520/15 389/521/16 382/522/14
f 387/523/52 391/524/18 385/516/12
f 386/525/19 388/526/20 387/527/52
f 390/528/54 395/529/22 388/526/20
f 392/530/23 394/531/24 393/532/2
f 377/508/4 380/517/13 374/509/5
f 382/518/14 386/533/19 381/519/11
f 388/526/20 392/530/23 387/527/52
f 394/534/24 373/507/3 393/535/2
f 396/512/8 384/520/15 376/513/9
f 375/504/1 385/516/12 391/524/18
f 373/506/3 374/509/5 375/504/1
f 376/513/9 377/508/4 378/511/7
f 379/510/6 380/517/13 381/515/11
f 382/522/14 383/514/10 384/520/15
f 385/516/12 386/536/19 387/523/52
f 388/526/20 389/521/16 390/528/54
f 391/524/18 392/537/23 393/505/2
f 394/538/24 395/529/22 396/512/8
f 399/539/284 417/540/285 397/541/286
f 397/542/286 401/543/287 398/544/288
f 398/544/288 403/545/289 399/539/284
f 402/546/290 420/547/291 400/548/292
f 400/548/292 407/549/293 401/543/287
f 405/550/294 409/551/295 403/545/289
f 404/552/296 406/553/297 405/554/294
f 408/555/298 413/556/299 406/557/297
f 411/558/300 415/559/301 409/551/295
f 410/560/302 412/561/303 411/562/300
f 414/563/304 419/564/305 412/561/303
f 416/565/306 418/566/307 417/567/285
f 401/543/287 404/552/296 398/544/288
f 406/553/297 410/568/302 405/554/294
f 412/561/303 416/565/306 411/562/300
f 418/569/307 397/542/286 417/570/285
f 420/547/291 408/555/298 400/548/292
f 399/539/284 409/551/295 415/559/301
f 397/541/286 398/544/288 399/539/284
f 400/548/292 401/543/287 402/546/290
f 403/545/289 404/552/296 405/550/294
f 406/557/297 407/549/293 408/555/298
f 409/551/295 410/571/302 411/558/300
f 412/561/303 413/556/299 414/563/304
f 415/559/301 416/572/306 417/540/285
f 418/566/307 419/564/305 420/547/291
f 423/573/284 441/574/285 421/575/286
f 421/576/286 425/577/287 422/578/288
f 422/578/288 427/579/289 423/573/284
f 426/580/308 444/581/291 424/582/292
f 424/582/292 431/583/293 425/577/287
f 429/584/294 433/585/295 427/579/289
f 428/586/296 430/587/297 429/588/294
f 432/589/309 437/590/299 430/591/297
f 435/592/300 439/593/301 433/585/295
f 434/594/302 436/595/303 435/596/300
f 438/597/310 443/598/305 436/595/303
f 440/599/306 442/600/307 441/601/285
f 425/577/287 428/586/296 422/578/288
f 430/587/297 434/602/302 429/588/294
f 436/595/303 440/599/306 435/596/300
f 442/603/307 421/576/286 441/604/285
f 444/581/291 432/589/309 424/582/292
f 423/573/284 433/585/295 439/593/301
f 421/575/286 422/578/288 423/573/284
f 424/582/292 425/577/287 426/580/308
f 427/579/289 428/586/296 429/584/294
f 430/591/297 431/583/293 432/589/309
f 433/585/295 434/605/302 435/592/300
f 436/595/303 437/590/299 438/597/310
f 439/593/301 440/606/306 441/574/285
f 442/600/307 443/598/305 444/581/291
f 3/1/1 19/21/18 21/2/2
f 1/4/3 6/607/7 5/5/4
f 2/6/5 8/14/13 7/7/6
f 6/8/7 22/608/24 24/9/8
f 4/10/9 12/17/15 11/11/10
f 9/12/11 14/609/19 13/13/12
f 8/14/13 11/11/10 10/15/14
f 12/17/15 18/610/21 17/18/16
f 15/20/17 20/26/23 19/21/18
f 14/22/19 17/32/16 16/23/20
f 18/24/21 24/33/8 23/25/22
f 20/26/23 23/25/22 22/27/24
f 5/5/4 11/11/10 8/14/13
f 10/15/14 17/611/16 14/29/19
f 16/23/20 23/25/22 20/26/23
f 22/30/24 6/607/7 1/4/3
f 24/9/8 18/610/21 12/17/15
f 3/1/1 7/7/6 13/13/12
f 27/34/1 43/54/18 45/35/2
f 25/37/3 30/612/7 29/38/4
f 26/39/25 32/47/13 31/40/6
f 30/41/7 46/613/24 48/42/8
f 28/43/9 36/50/15 35/44/10
f 33/45/11 38/614/19 37/46/12
f 32/47/13 35/44/10 34/48/14
f 36/50/15 42/615/21 41/51/16
f 39/53/17 44/59/23 43/54/18
f 38/55/19 41/65/16 40/56/20
f 42/57/21 48/66/8 47/58/22
f 44/59/23 47/58/22 46/60/24
f 29/38/4 35/44/10 32/47/13
f 34/48/14 41/616/16 38/62/19
f 40/56/20 47/58/22 44/59/23
f 46/63/24 30/612/7 25/37/3
f 48/42/8 42/615/21 36/50/15
f 27/34/1 31/40/6 37/46/12
f 51/67/26 67/98/43 69/68/27
f 49/70/28 54/99/32 53/71/29
f 50/72/30 56/83/38 55/73/31
f 54/75/32 70/617/49 72/76/33
f 52/78/34 60/100/40 59/79/35
f 57/80/36 62/90/44 61/81/37
f 56/83/38 59/79/35 58/84/39
f 60/85/40 66/618/46 65/86/41
f 63/87/42 68/94/48 67/88/43
f 62/90/44 65/86/41 64/91/45
f 66/92/46 72/101/33 71/93/47
f 68/94/48 71/93/47 70/95/49
f 53/71/29 59/79/35 56/83/38
f 58/84/39 65/86/41 62/90/44
f 64/91/45 71/93/47 68/94/48
f 70/95/49 54/619/32 49/97/28
f 72/76/33 66/618/46 60/85/40
f 51/67/26 55/82/31 61/81/37
f 75/102/1 91/122/18 93/103/2
f 73/105/3 78/620/7 77/106/50
f 74/107/5 80/115/13 79/108/6
f 78/109/7 94/136/24 96/110/8
f 76/111/9 84/118/15 83/112/51
f 81/113/11 86/134/19 85/114/12
f 80/115/13 83/112/51 82/116/14
f 84/118/15 90/126/54 89/119/16
f 87/121/52 92/135/23 91/122/18
f 86/123/19 89/621/16 88/124/53
f 90/126/54 96/110/8 95/127/55
f 92/128/23 95/127/55 94/129/24
f 77/106/50 83/112/51 80/115/13
f 82/116/14 89/622/16 86/131/19
f 88/124/53 95/127/55 92/128/23
f 94/132/24 78/620/7 73/105/3
f 96/110/8 90/126/54 84/118/15
f 75/102/1 79/108/6 85/114/12
f 98/137/56 99/140/59 100/138/57
f 99/140/59 134/182/101 133/141/60
f 104/145/64 103/147/66 101/142/61
f 142/146/65 141/183/102 103/147/66
f 132/148/67 131/180/99 106/149/68
f 112/151/70 111/160/79 105/150/69
f 107/152/71 137/185/104 138/153/72
f 116/156/75 115/164/83 109/155/74
f 110/143/62 120/167/86 119/157/76
f 97/139/58 124/171/90 123/158/77
f 113/159/78 114/162/81 111/160/79
f 113/159/78 155/211/117 156/161/80
f 118/163/82 117/166/85 115/164/83
f 152/165/84 151/209/114 117/166/85
f 120/167/86 121/169/88 122/168/87
f 121/169/88 153/623/115 154/170/89
f 124/171/90 126/174/93 125/172/91
f 158/173/92 157/210/116 125/172/91
f 127/175/94 129/178/97 130/176/95
f 129/178/97 140/186/105 139/179/98
f 127/175/94 128/177/96 131/180/99
f 135/181/100 136/184/103 133/141/60
f 141/183/102 142/146/65 136/184/103
f 137/185/104 139/179/98 140/186/105
f 143/187/106 151/207/114 152/188/84
f 145/190/108 146/192/109 143/187/106
f 156/191/80 155/213/117 146/192/109
f 154/170/89 153/623/115 148/193/110
f 148/193/110 149/196/113 150/195/112
f 149/196/113 157/210/116 158/173/92
f 148/197/110 143/187/106 146/192/109
f 128/199/96 130/624/95 135/200/100
f 137/185/104 107/152/71 101/202/61
f 98/137/56 106/149/68 131/180/99
f 111/160/79 116/156/75 108/154/73
f 115/164/83 120/205/86 110/204/62
f 102/144/63 119/157/76 124/171/90
f 98/137/56 123/158/77 112/151/70
f 117/166/85 121/625/88 120/205/86
f 123/158/77 125/172/91 113/159/78
f 103/203/66 141/206/102 139/179/98
f 141/206/102 135/626/100 130/176/95
f 99/140/59 131/180/99 128/177/96
f 138/153/72 132/148/67 105/150/69
f 104/145/64 102/144/63 97/139/58
f 104/145/64 100/138/57 133/141/60
f 138/153/72 140/186/105 127/175/94
f 109/155/74 110/204/62 101/202/61
f 148/197/110 153/627/115 151/207/114
f 153/208/115 121/625/88 117/166/85
f 113/159/78 125/172/91 157/210/116
f 157/212/116 149/198/113 146/192/109
f 152/165/84 118/163/82 114/162/81
f 126/174/93 124/171/90 119/157/76
f 145/190/108 144/189/107 152/188/84
f 116/156/75 111/160/79 114/162/81
f 158/173/92 154/170/89 147/194/111
f 158/173/92 126/174/93 122/168/87
s 0
f 173/214/118 176/628/118 175/215/118
f 163/217/311 164/226/120 162/218/120
f 168/220/122 170/227/122 169/221/122
f 166/223/123 167/222/123 169/221/123
f 169/225/120 170/629/120 162/218/120
f 170/227/118 168/220/118 160/228/118
f 171/230/118 172/282/118 161/231/118
f 174/216/122 175/215/122 162/234/122
f 162/218/120 175/630/120 176/236/120
f 161/231/127 176/628/127 173/214/127
f 177/237/122 178/275/122 166/223/122
f 183/239/120 184/258/120 182/240/312
f 198/242/123 197/631/123 196/243/123
f 192/245/127 191/632/127 190/246/127
f 186/248/123 187/276/123 188/249/123
f 190/246/118 191/632/118 181/251/118
f 191/253/120 192/633/120 183/239/120
f 183/254/123 192/245/123 189/247/123
f 181/251/127 194/280/127 193/256/127
f 183/239/120 195/634/120 196/257/120
f 196/243/122 197/631/122 186/248/122
f 185/259/127 198/242/127 195/244/127
f 180/264/313 206/281/313 205/265/313
f 200/267/314 165/272/314 163/268/314
f 204/271/315 203/279/316 163/268/317
f 203/273/120 202/278/120 177/238/120
f 202/274/318 201/277/319 178/275/139
f 202/274/320 188/249/141 187/276/141
f 203/273/120 182/240/120 188/261/120
f 204/271/321 180/264/322 182/266/322
f 194/280/323 205/265/323 206/281/323
f 171/230/324 200/267/324 199/269/324
s 1
f 207/283/148 209/289/153 225/284/149
f 207/286/148 212/635/171 211/287/151
f 209/289/153 208/314/152 214/290/154
f 210/292/156 212/315/171 228/293/157
f 211/295/151 210/292/156 218/296/159
f 215/298/161 220/312/170 219/299/162
f 214/300/154 217/636/160 216/301/163
f 216/301/163 218/296/159 224/302/164
f 219/299/162 221/316/167 226/304/166
f 221/305/167 220/312/170 223/303/165
f 224/302/164 230/294/158 229/307/169
f 226/309/166 229/637/169 228/310/157
f 211/287/151 217/636/160 214/300/154
f 215/298/161 216/301/163 223/303/165
f 222/306/168 229/637/169 226/309/166
f 228/310/157 212/638/171 207/313/148
f 210/292/156 230/294/158 224/302/164
f 209/289/153 213/291/155 219/299/162
f 233/317/172 249/352/191 251/318/173
f 262/320/175 255/351/200 236/321/176
f 232/323/178 238/354/201 237/324/179
f 236/326/176 252/639/197 254/327/180
f 234/329/181 242/355/188 241/330/182
f 239/331/183 244/356/202 243/332/184
f 261/334/185 241/330/182 240/335/186
f 242/337/188 248/640/194 247/338/189
f 245/339/190 250/357/203 249/340/191
f 258/342/192 259/349/199 247/338/189
f 248/344/194 254/359/180 253/345/195
f 257/346/196 253/345/195 252/347/197
f 262/320/175 235/322/177 241/330/182
f 260/336/187 240/335/186 247/338/189
f 258/342/192 246/343/193 253/345/195
f 256/350/198 252/641/197 236/321/176
f 254/327/180 248/640/194 242/337/188
f 233/317/172 237/333/179 243/332/184
f 256/350/198 255/351/200 231/353/174
f 251/358/173 250/357/203 257/346/196
f 258/342/192 257/346/196 250/357/203
f 244/356/202 259/349/199 258/342/192
f 260/336/187 259/349/199 244/356/202
f 239/331/183 238/354/201 261/334/185
f 262/320/175 261/334/185 238/354/201
f 231/353/174 255/351/200 262/320/175
f 264/361/204 263/384/227 266/362/205
f 265/363/206 266/362/205 299/364/207
f 267/366/209 269/370/213 270/369/212
f 269/370/213 307/408/251 308/371/214
f 272/372/215 297/406/249 298/373/216
f 271/374/217 277/387/230 278/375/218
f 273/376/219 274/379/222 304/377/220
f 275/380/223 281/391/234 282/381/224
f 276/368/211 268/367/210 285/382/225
f 263/384/227 264/361/204 289/385/228
f 277/387/230 280/440/265 279/388/231
f 279/388/231 280/440/265 322/389/232
f 281/391/234 283/393/236 284/392/235
f 283/393/236 317/411/254 318/394/237
f 286/383/226 285/382/225 288/395/238
f 287/396/239 288/395/238 320/397/240
f 290/386/229 289/385/228 291/399/242
f 291/399/242 323/438/262 324/401/244
f 293/402/245 294/434/263 296/403/246
f 296/403/246 305/409/252 306/405/248
f 297/406/249 294/434/263 293/402/245
f 299/364/207 302/433/264 301/407/250
f 301/407/250 302/433/264 308/371/214
f 303/378/221 304/377/220 306/405/248
f 309/410/253 310/413/256 318/394/237
f 309/410/253 312/414/257 311/412/255
f 312/414/257 321/390/233 322/389/232
f 314/415/258 319/642/241 320/416/240
f 314/415/258 313/417/259 316/418/260
f 315/419/261 316/418/260 324/420/244
f 312/422/257 309/436/253 314/415/258
f 294/423/263 300/643/208 301/424/250
f 303/426/221 269/370/213 267/366/209
f 297/406/249 272/372/215 264/361/204
f 274/379/222 282/381/224 277/387/230
f 276/368/211 286/383/226 281/428/234
f 268/367/210 263/384/227 290/386/229
f 264/361/204 272/372/215 278/375/218
f 286/383/226 287/396/239 283/430/236
f 289/385/228 278/375/218 279/388/231
f 305/431/252 307/408/251 269/370/213
f 296/432/246 301/407/250 307/408/251
f 294/434/263 297/406/249 265/363/206
f 271/374/217 298/373/216 304/377/220
f 270/369/212 266/362/205 263/384/227
f 299/364/207 266/362/205 270/369/212
f 304/377/220 298/373/216 293/402/245
f 267/366/209 276/368/211 275/429/223
f 317/435/254 319/642/241 314/415/258
f 283/430/236 287/396/239 319/398/241
f 279/388/231 321/390/233 323/438/262
f 312/422/257 315/419/261 323/421/262
f 280/440/265 284/392/235 318/394/237
f 292/400/243 288/395/238 285/382/225
f 318/394/237 310/413/256 311/412/255
f 280/440/265 277/387/230 282/381/224
f 324/420/244 316/418/260 313/417/259
f 324/401/244 320/397/240 288/395/238
s 0
f 340/441/266 341/644/266 342/442/266
s 1
f 328/444/267 330/453/267 329/445/267
s 0
f 334/447/268 333/451/268 335/448/268
f 332/450/269 330/465/269 335/448/269
s 1
f 328/444/267 336/645/267 335/452/267
s 0
f 326/454/266 334/447/266 336/449/266
f 327/456/266 338/499/266 337/457/266
f 328/460/268 341/644/268 340/441/268
s 1
f 328/444/267 327/446/267 342/462/267
s 0
f 325/458/270 339/443/270 342/442/270
f 332/450/268 344/646/268 343/464/268
s 1
f 348/467/267 350/489/267 349/468/267
s 0
f 362/470/269 363/647/269 364/471/269
f 355/473/270 356/480/270 357/474/270
f 352/476/269 350/487/269 354/477/269
f 347/479/266 357/474/266 356/480/266
s 1
f 349/468/267 358/648/267 357/482/267
s 0
f 349/483/269 351/649/269 355/473/269
f 345/481/270 359/493/270 360/484/270
s 1
f 349/468/267 350/489/267 362/485/267
s 0
f 352/476/268 363/647/268 362/470/268
f 351/488/270 349/650/270 361/472/270
s 1
f 367/492/271 368/651/271 360/484/272
f 365/494/267 348/467/267 360/491/267
f 365/494/274 366/498/274 346/496/275
f 365/494/274 329/445/276 331/497/276
f 338/499/277 368/651/271 367/492/271
f 338/459/267 329/445/267 365/494/267
f 331/497/279 329/445/279 371/500/271
f 343/466/267 370/652/267 371/500/267
f 343/464/280 344/646/280 369/502/281
f 370/503/274 369/502/281 353/478/282
f 371/500/267 370/652/267 354/490/267
f 371/500/271 348/467/283 346/496/283
f 375/504/1 391/524/18 393/505/2
f 373/507/3 378/653/7 377/508/4
f 374/509/5 380/517/13 379/510/6
f 378/511/7 394/538/24 396/512/8
f 376/513/9 384/520/15 383/514/10
f 381/515/11 386/536/19 385/516/12
f 380/517/13 383/514/10 382/518/14
f 384/520/15 390/528/54 389/521/16
f 387/523/52 392/537/23 391/524/18
f 386/525/19 389/654/16 388/526/20
f 390/528/54 396/512/8 395/529/22
f 392/530/23 395/529/22 394/531/24
f 377/508/4 383/514/10 380/517/13
f 382/518/14 389/655/16 386/533/19
f 388/526/20 395/529/22 392/530/23
f 394/534/24 378/653/7 373/507/3
f 396/512/8 390/528/54 384/520/15
f 375/504/1 379/510/6 385/516/12
f 399/539/284 415/559/301 417/540/285
f 397/542/286 402/656/290 401/543/287
f 398/544/288 404/552/296 403/545/289
f 402/546/290 418/566/307 420/547/291
f 400/548/292 408/555/298 407/549/293
f 405/550/294 410/571/302 409/551/295
f 404/552/296 407/549/293 406/553/297
f 408/555/298 414/563/304 413/556/299
f 411/558/300 416/572/306 415/559/301
f 410/560/302 413/556/299 412/561/303
f 414/563/304 420/547/291 419/564/305
f 416/565/306 419/564/305 418/566/307
f 401/543/287 407/549/293 404/552/296
f 406/553/297 413/657/299 410/568/302
f 412/561/303 419/564/305 416/565/306
f 418/569/307 402/656/290 397/542/286
f 420/547/291 414/563/304 408/555/298
f 399/539/284 403/545/289 409/551/295
f 423/573/284 439/593/301 441/574/285
f 421/576/286 426/658/308 425/577/287
f 422/578/288 428/586/296 427/579/289
f 426/580/308 442/600/307 444/581/291
f 424/582/292 432/589/309 431/583/293
f 429/584/294 434/605/302 433/585/295
f 428/586/296 431/583/293 430/587/297
f 432/589/309 438/597/310 437/590/299
f 435/592/300 440/606/306 439/593/301
f 434/594/302 437/590/299 436/595/303
f 438/597/310 444/581/291 443/598/305
f 440/599/306 443/598/305 442/600/307
f 425/577/287 431/583/293 428/586/296
f 430/587/297 437/659/299 434/602/302
f 436/595/303 443/598/305 440/599/306
f 442/603/307 426/658/308 421/576/286
f 444/581/291 438/597/310 432/589/309
f 423/573/284 427/579/289 433/585/295
