# Blender 4.2.1 LTS
# www.blender.org
mtllib tree01_leaf.mtl
o leaves
v -1.814241 10.340427 -1.153008
v -2.352105 6.128130 -0.618531
v 0.664740 6.128130 2.417430
v 1.202605 10.340427 1.882952
v -2.682817 9.762076 -0.011026
v -4.226346 10.111901 3.965599
v -0.244668 10.552958 5.472290
v 1.298861 10.203134 1.495665
v -1.306882 10.389043 -0.898621
v -5.099409 8.426071 -1.184790
v -4.677124 7.023906 2.836903
v -0.884597 8.986878 3.123073
v -3.489349 8.767514 1.051767
v -3.497246 6.381214 4.604782
v 0.467470 7.715544 5.509766
v 0.475367 10.101844 1.956751
v -3.079555 9.231114 0.161762
v -6.522851 10.202387 2.510962
v -4.130433 10.103495 6.058491
v -0.687137 9.132220 3.709291
v -3.541467 9.153008 0.645328
v -6.047343 6.053170 2.204169
v -3.538022 5.762104 5.659163
v -1.032146 8.861941 4.100322
v -4.679962 9.227385 1.857803
v -6.163638 10.983786 5.467811
v -2.325107 10.477119 7.291919
v -0.841431 8.720718 3.681911
v -3.517314 10.169296 1.026058
v -6.681701 11.749907 3.435773
v -7.215020 7.911729 5.253016
v -4.050632 6.331119 2.843301
v 1.545602 9.832606 1.629136
v 2.746877 6.566552 -0.862495
v 0.712636 8.348941 -4.179625
v -0.488639 11.614995 -1.687994
v 1.001830 10.427291 2.038173
v 5.138220 11.518825 2.169421
v 5.293116 11.446070 -2.107157
v 1.156725 10.354535 -2.238405
v 1.358814 10.548264 1.919984
v 3.657829 7.075494 2.906290
v 4.235302 6.274987 -1.258337
v 1.936287 9.747757 -2.244642
v 3.725875 9.698125 1.271432
v 6.766815 9.683719 -1.740358
v 3.776024 10.174203 -4.762443
v 0.735083 10.188609 -1.750653
v 2.006719 10.092595 1.583580
v 5.881046 9.432223 3.278247
v 7.459471 8.671686 -0.626694
v 3.585143 9.332059 -2.321360
v 4.320779 9.150403 1.405044
v 7.038733 6.448823 -0.500893
v 5.154345 7.210340 -4.267533
v 2.436391 9.911920 -2.361596
v 3.928436 9.457334 1.642697
v 7.476558 11.848455 1.751130
v 7.607125 11.848709 -2.526877
v 4.059003 9.457587 -2.635310
v 4.153099 10.266355 1.212401
v 7.640139 8.529301 2.984858
v 8.421518 6.396441 -0.642644
v 4.934478 8.133495 -2.415101
v -0.453124 10.551358 -2.325798
v -4.599865 9.594215 -1.871025
v -4.427684 10.798029 2.232582
v -0.280944 11.755172 1.777809
v 1.237073 11.181613 -1.125809
v 0.255456 11.061886 -5.290003
v -3.858693 10.417415 -4.301652
v -2.877076 10.537143 -0.137459
v -0.309798 10.241376 -2.882524
v -2.804282 6.806831 -3.430120
v -4.707766 7.591051 0.322232
v -2.213283 11.025596 0.869829
v -0.614597 10.472330 -3.229090
v -4.003700 12.140466 -5.241478
v -6.202939 12.101571 -1.569934
v -2.813836 10.433435 0.442454
v -0.298116 10.765048 -2.647676
v -1.242165 8.303545 -6.019349
v -5.016294 7.329429 -4.251455
v -4.072245 9.790931 -0.879784
v -2.818253 11.317231 -4.203017
v -6.811729 9.816194 -4.545700
v -6.754175 8.718722 -0.409199
v -2.760699 10.219760 -0.066516
v -1.081946 9.884018 -3.214573
v -1.979735 11.769661 -6.950443
v -6.026236 12.352583 -5.683781
v -5.128447 10.466940 -1.947911
v -2.250973 10.159127 -4.729317
v -5.211046 7.935534 -6.876874
v -7.792452 8.077623 -3.465928
v -4.832378 10.301217 -1.318371
v -1.761068 11.524177 1.565642
v 0.143759 12.525611 5.265259
v 3.928699 12.684684 3.273443
v 2.023872 11.683249 -0.426174
v -1.592198 11.986253 0.207036
v -3.879763 9.755293 3.054540
v -0.265136 8.477048 4.956900
v 2.022428 10.708007 2.109396
v -1.278323 10.767569 3.176858
v 1.665649 9.460166 5.995036
v 4.754753 10.279734 3.148256
v 1.810780 11.587135 0.330078
v -1.716105 10.994555 1.697934
v -3.004394 12.399456 5.530030
v 1.063398 12.512226 6.856213
v 2.351686 11.107325 3.024117
v -1.689982 10.912610 3.346360
v -1.201472 7.599558 6.011590
v 3.008621 7.600581 5.241191
v 2.520111 10.913632 2.575962
v -1.427769 10.961648 4.505083
v 0.389961 12.686810 7.974676
v 4.229182 12.403271 6.104278
v 2.411453 10.678109 2.634685
v -1.183308 10.848966 2.854687
v -3.847805 10.418988 6.176430
v -0.504518 10.335058 8.847345
v 2.159980 10.765035 5.525602
v -1.405264 10.687256 5.862976
v 0.698109 9.651424 9.443657
v 4.415790 9.936228 7.342196
v 2.312416 10.972059 3.761515
v 1.697152 12.150366 1.232405
v 4.760755 13.473700 -1.447433
v 1.954989 13.424885 -4.679104
v -1.108613 12.101551 -1.999266
v 2.224848 12.148570 0.497124
v 3.905795 8.518611 -1.024790
v 0.580643 8.094557 -3.685981
v -1.100304 11.724515 -2.164068
v 3.007899 11.865780 -1.239436
v 3.112667 13.057876 -5.348734
v -1.162726 12.925018 -5.496280
v -1.267495 11.732922 -1.386982
v 1.812082 11.929679 0.285661
v 5.869906 11.443336 -0.985530
v 4.551241 11.028313 -5.036119
v 0.493416 11.514657 -3.764929
v 3.516831 11.156450 -2.382990
v 2.780785 8.799961 -5.879215
v -1.391929 9.715716 -5.617978
v -0.655883 12.072206 -2.121753
v 3.451262 11.462551 -1.599007
v 5.488794 13.365049 -4.846679
v 1.841820 13.449651 -7.085167
v -0.195712 11.547153 -3.837495
v 3.399185 11.642232 -1.735613
v 5.964788 9.021007 -3.941349
v 2.941444 8.584499 -6.939223
v 0.375841 11.205726 -4.733488
v 4.303344 11.552253 -3.622804
v 4.344780 12.617594 -7.767889
v 0.077095 12.316207 -7.888011
v 0.035659 11.250867 -3.742926
v 3.003241 11.198586 -2.358391
v 7.026249 10.690558 -3.727955
v 5.861770 11.997909 -7.633493
v 1.838761 12.505938 -6.263928
v -1.704540 12.065855 -1.493714
v -3.530754 9.002292 0.872279
v -1.027514 10.063017 4.177889
v 0.798699 13.126581 1.811896
v -1.487447 12.466808 -1.789120
v -4.997158 14.761004 -0.930638
v -3.979854 14.761633 3.226704
v -0.470142 12.467438 2.368223
v -1.128409 12.711819 -1.651233
v -4.510465 10.305267 -2.694600
v -5.343774 9.676778 1.456183
v -1.961719 12.083328 2.499550
v -3.761477 12.469262 -0.737923
v -6.283168 13.028101 2.674872
v -2.857113 12.856827 5.234407
v -0.335422 12.297988 1.821612
v -1.919212 12.249599 -1.324073
v -5.844021 13.202459 -2.740524
v -7.248773 13.417674 1.296648
v -3.323964 12.464814 2.713099
v -4.255704 12.125720 -0.956658
v -7.054990 9.621303 1.095243
v -4.774890 10.022141 4.695087
v -1.975604 12.526559 2.643187
v -4.496343 12.448291 -0.970811
v -7.471318 15.192792 0.420461
v -5.833339 14.967104 4.368180
v -2.858364 12.222602 2.976909
v -3.673163 12.450414 -0.941775
v -7.691751 11.391689 -1.965713
v -8.720427 11.279645 2.187319
v -4.701838 12.338368 3.211257
v -6.341549 12.613855 -0.124050
v -9.102601 13.022738 3.120608
v -5.868077 12.737582 5.908970
v -3.107026 12.328699 2.664311
v -1.357007 12.910522 1.305505
v 0.513258 14.366263 4.869397
v 4.243598 14.660121 2.791750
v 2.373333 13.204380 -0.772142
v 0.274429 12.872910 2.533137
v 3.249993 9.923248 3.407158
v 4.700337 10.195884 -0.610376
v 1.724773 13.145546 -1.484397
v 0.955603 13.273692 2.868418
v 4.163464 16.059311 3.386453
v 5.267941 15.550562 -0.717169
v 2.060081 12.764941 -1.235204
v -0.013449 13.128372 1.938344
v 1.644242 12.298898 5.796120
v 5.566381 12.186331 4.086568
v 3.908689 13.015804 0.228793
v 2.956948 13.123634 3.442863
v 7.110488 12.770556 2.472375
v 6.137625 12.782209 -1.695574
v 1.984085 13.135288 -0.725086
v 1.412034 12.847339 3.031027
v 3.529284 15.327361 5.803235
v 6.587266 15.982841 2.881335
v 4.470016 13.502818 0.109127
v 2.434718 13.288498 3.706451
v 5.923510 11.682777 5.595472
v 7.961445 11.682950 1.831801
v 4.472653 13.288670 -0.057220
v 3.428932 13.934149 4.110537
v 6.373447 17.039745 4.051340
v 7.292377 16.090878 -0.019732
v 4.347862 12.985283 0.039465
v 2.447012 13.346200 3.295893
v 4.268361 13.980559 7.116714
v 8.048679 14.608142 5.210477
v 6.227329 13.973783 1.389656
v 0.911867 13.197989 -2.313946
v -2.678164 11.820350 -4.193357
v -4.810067 12.368479 -0.522807
v -1.220036 13.746117 1.356604
v 1.767655 13.222891 -1.138327
v 1.874393 15.968252 -4.420095
v -2.367347 16.466522 -4.141228
v -2.474085 13.721163 -0.859459
v 1.554096 13.597173 -1.920007
v 1.005016 11.287920 -5.481505
v -3.207450 11.143102 -4.738165
v -2.658370 13.452353 -1.176667
v 0.596519 14.037985 -3.656921
v -2.495206 16.297848 -5.568113
v -5.136380 15.438398 -2.311742
v -2.044654 13.178537 -0.400550
v 1.121622 13.539786 -2.123273
v 2.026865 13.912045 -6.289849
v -2.150335 14.220206 -7.169869
v -3.055578 13.847949 -3.003293
v -0.102036 12.669083 -4.680913
v -3.798366 12.213497 -6.789940
v -5.920200 13.740331 -3.400987
v -2.223870 14.195917 -1.291961
v 0.503462 13.712848 -4.267437
v -0.128605 17.147907 -6.741151
v -4.115870 17.504671 -5.226939
v -3.483802 14.069612 -2.753224
v 0.381167 14.007269 -4.375298
v -0.483325 13.349046 -8.515079
v -4.675068 13.503380 -7.664277
v -3.810576 14.161604 -3.524494
v -0.759525 14.859060 -6.101304
v -4.027403 17.151630 -7.645160
v -6.400325 16.050392 -4.257695
v -3.132447 13.757822 -2.713839
v -1.066863 13.550941 -1.422842
v -4.871972 14.781205 0.102280
v -3.086740 15.584538 3.908329
v 0.718370 14.354272 2.383207
v -2.531118 14.043731 1.052747
v -2.368730 12.670884 5.103343
v 1.908174 12.733951 4.953258
v 1.745786 14.106797 0.902661
v -2.531823 14.248492 0.486963
v -3.497782 17.993603 2.319850
v 0.291406 17.996965 4.309937
v 1.257365 14.251855 2.477051
v -2.239204 14.327972 0.282274
v -5.430277 13.609846 3.042664
v -2.662847 13.833069 6.299948
v 0.528227 14.551195 3.539559
v -2.987132 15.320925 3.061743
v -1.224024 17.232899 6.460890
v 2.650850 15.951486 5.171806
v 0.887742 14.039513 1.772658
v -2.628612 14.177267 1.488891
v -5.551470 16.788509 3.208401
v -2.624075 18.247469 5.968873
v 0.298782 15.636225 4.249363
v -3.435106 15.400775 3.007495
v -4.090439 15.462933 7.236571
v 0.122311 15.091666 7.894831
v 0.777644 15.029510 3.665755
v -3.422090 15.794604 2.751140
v -3.455169 19.918400 3.896398
v 0.345213 19.419971 5.800884
v 0.378292 15.296176 4.655627
v -3.006124 15.454186 2.411204
v -6.438705 16.460281 4.761427
v -3.897777 17.369076 8.083500
v -0.465195 16.362980 5.733278
v 2.368433 14.859124 0.573782
v 3.710194 15.850435 -3.367714
v -0.160387 14.896102 -4.925355
v -1.502149 13.904792 -0.983860
v 0.768173 13.848507 1.615416
v 3.712323 16.743586 2.741872
v 3.871669 18.152781 -1.296343
v 0.927519 15.257702 -2.422798
v 2.480912 14.855629 1.163688
v 5.981695 14.051293 -1.163534
v 3.594556 13.934469 -4.714072
v 0.093773 14.738806 -2.386850
v 2.850473 15.566209 0.915120
v 3.429839 19.489998 -0.693177
v 1.014815 18.461008 -4.073597
v 0.435449 14.537219 -2.465301
v 1.785925 14.832267 1.107052
v 5.944343 15.600216 1.767519
v 6.413979 16.611105 -2.364787
v 2.255561 15.843156 -3.025254
v 4.279159 16.167053 -0.310950
v 5.703243 17.316240 -4.180027
v 1.951664 16.179882 -5.898383
v 0.527580 15.030696 -2.029306
v 3.194709 15.186748 0.619903
v 5.317359 18.829779 1.355478
v 4.420964 20.153698 -2.614674
v 2.298314 16.510668 -3.350250
v 3.937018 16.198404 0.436254
v 7.849204 16.801983 -1.191286
v 6.205572 16.799412 -5.143105
v 2.293386 16.195833 -3.515564
v 4.360944 17.278526 0.123004
v 4.495114 21.205967 -1.572758
v 2.583987 19.743118 -5.111977
v 2.449816 15.815678 -3.416215
v 3.533381 16.106522 0.209011
v 6.964313 18.334171 1.467853
v 7.328731 19.992966 -2.460760
v 3.897799 17.765316 -3.719602
v -1.128954 15.314691 -2.093899
v -5.073531 15.703007 -0.478990
v -3.565281 14.797573 3.422776
v 0.379295 14.409257 1.807868
v 0.217834 14.577772 -2.082797
v -0.547359 18.485035 -3.653203
v -2.539036 19.555546 -0.019248
v -1.773843 15.648283 1.551158
v -0.213659 15.326047 -2.298880
v -4.014657 15.157861 -4.259118
v -5.981427 15.371510 -0.463783
v -2.180430 15.539697 1.496455
v -1.520174 16.673361 -2.443184
v -3.355658 20.156364 -0.764468
v -3.371540 18.291317 3.087772
v -1.536056 14.808314 1.409056
v -0.407447 15.178180 -1.892235
v -1.948283 17.332426 -5.254294
v -4.902222 19.142220 -2.740872
v -3.361387 16.987972 0.621187
v -2.767468 16.910002 -2.752945
v -6.781209 17.758362 -1.532874
v -5.764926 16.761675 2.503485
v -1.751186 15.913316 1.283414
v -1.810599 16.444344 -2.795028
v -2.314188 20.621765 -3.578568
v -3.891462 21.170767 0.362143
v -3.387873 16.993343 1.145683
v -1.568984 16.805346 -2.576902
v -4.652678 17.738295 -5.394496
v -7.413784 18.327097 -2.177664
v -4.330090 17.394148 0.639930
v -2.740305 18.416388 -2.975138
v -5.156942 21.763840 -1.846943
v -6.105630 19.832085 1.852613
v -3.688993 16.484632 0.724418
v -1.979369 16.884808 -2.474013
v -2.456387 19.865843 -5.507867
v -5.490053 21.767193 -3.162630
v -5.013036 18.786156 -0.128776
v -1.574372 16.415812 1.119492
v 1.163731 19.130564 2.977263
v 4.392686 17.374371 0.784536
v 1.654582 14.659620 -1.073236
v -1.998553 16.021585 0.662298
v -2.744219 19.343758 -1.931070
v 1.371578 19.351002 -3.105196
v 2.117243 16.028830 -0.511828
v 1.974363 15.702661 -0.306171
v 2.736792 18.698593 -3.266152
v -1.101133 20.431490 -2.500777
v -1.863562 17.435556 0.459204
v 1.440189 18.402935 -0.827462
v -0.904641 21.690901 0.590089
v -3.719807 18.950886 2.288782
v -1.374976 15.662921 0.871230
v 0.126471 16.283819 -1.747017
v 1.312008 19.657288 -4.099167
v 1.039993 22.164185 -0.640863
v -0.145544 18.790716 1.711288
v -1.542955 18.576881 -1.449088
v -3.292125 21.338766 1.313301
v -0.361886 20.265009 4.242317
v 1.387285 17.503124 1.479928
v -0.792256 18.799681 -1.956763
v 1.461611 22.433483 -2.141069
v 2.755156 21.835859 1.894769
v 0.501290 18.202059 2.079076
v 1.650483 18.072018 0.619853
v 3.909961 21.217056 -1.202754
v 0.275290 23.143345 -2.384692
v -1.984188 19.998306 -0.562086
v 1.598839 20.707893 0.218668
v -0.469797 24.056913 -1.461573
v -3.944910 21.624409 -2.031583
v -1.876274 18.275391 -0.351342
v 1.735479 19.006676 0.318444
v 3.385413 22.745625 1.589814
v -0.286027 24.705458 0.590828
v -1.935962 20.966511 -0.680542
vn -0.6981 0.1772 0.6937
vn -0.0670 0.9913 -0.1132
vn -0.4529 0.8260 0.3355
vn -0.3767 0.7694 0.5159
vn 0.2008 0.9736 -0.1083
vn -0.5599 0.6862 0.4644
vn 0.2747 0.9042 -0.3270
vn 0.6617 0.2438 0.7090
vn 0.8339 0.4942 -0.2458
vn -0.2543 0.9668 -0.0257
vn 0.8326 0.5538 0.0090
vn 0.0830 0.9934 0.0791
vn 0.2111 0.9719 -0.1040
vn 0.6347 0.7549 -0.1649
vn -0.5584 0.8294 -0.0170
vn 0.5504 0.7661 -0.3319
vn -0.2443 0.9332 -0.2635
vn -0.1530 0.9882 0.0076
vn -0.6801 0.5679 -0.4637
vn 0.3301 0.9209 0.2075
vn -0.4169 0.7858 -0.4569
vn -0.3595 0.9007 0.2440
vn 0.2493 0.8873 0.3880
vn -0.3974 0.8538 -0.3363
vn -0.1410 0.9715 -0.1904
vn -0.0330 0.7994 0.5998
vn 0.0771 0.9327 0.3522
vn 0.0781 0.9442 -0.3199
vn 0.1392 0.6331 0.7615
vn -0.1224 0.9128 -0.3897
vn -0.0475 0.9947 0.0907
vn 0.0632 0.9680 0.2429
vn -0.2406 0.9509 0.1945
vn 0.4921 0.5205 -0.6978
vn -0.0394 0.9599 0.2775
vn 0.0787 0.9888 -0.1269
vn 0.1412 0.8069 -0.5736
vn -0.2175 0.8956 0.3882
vn 0.3764 0.7839 -0.4938
vn -0.0752 0.9660 0.2475
vn 0.2061 0.9448 0.2548
vn -0.6898 0.6529 0.3129
vn 0.5206 0.8442 -0.1275
vn -0.5811 0.8138 0.0066
vn 0.1100 0.9906 -0.0809
vn 0.2266 0.9736 0.0270
vn -0.5371 0.8055 0.2505
vn 0.6086 0.7655 -0.2088
vn -0.2463 0.9686 -0.0349
vn 0.1127 0.9932 -0.0292
vn -0.2223 0.9379 -0.2664
vn 0.6339 0.7218 0.2778
vn -0.6096 0.7498 -0.2570
vn 0.1011 0.9807 0.1674
vn 0.0810 0.9966 -0.0161
vn -0.4948 0.8005 -0.3382
vn 0.3299 0.9270 0.1787
vn -0.6933 0.6514 -0.3083
vn -0.1969 0.9780 -0.0685
vn -0.2198 0.9381 -0.2678
vn 0.1311 0.7583 0.6386
vn -0.1219 0.8413 -0.5267
vn 0.3121 0.8252 0.4709
vn 0.0522 0.9936 0.1001
vn 0.0915 0.9281 -0.3609
vn 0.3321 0.5907 0.7354
vn 0.0043 0.9874 -0.1579
vn 0.3311 0.8043 0.4934
vn 0.1887 0.9392 -0.2868
vn -0.0027 0.9470 0.3211
vn 0.4065 0.4841 -0.7749
vn -0.1613 0.9844 0.0696
vn 0.1032 0.8431 -0.5278
vn 0.2565 0.7152 -0.6501
vn 0.0879 0.9961 -0.0010
vn 0.4599 0.2410 -0.8546
vn 0.0659 0.9485 -0.3098
vn -0.2896 0.9469 0.1396
vn -0.7249 0.6588 0.2013
vn 0.1411 0.9818 -0.1271
vn -0.8144 0.3189 0.4848
vn -0.2097 0.9550 0.2098
vn -0.3478 0.9260 0.1470
vn -0.8427 0.4240 0.3317
vn -0.1304 0.9900 0.0536
vn -0.8942 0.2028 0.3990
vn -0.5917 0.7608 0.2664
vn 0.1625 0.9731 0.1630
vn 0.8669 0.3225 0.3801
vn -0.0120 0.9980 -0.0624
vn 0.9034 0.3845 0.1899
vn 0.6277 0.7536 0.1952
vn 0.2533 0.9521 0.1713
vn 0.9221 0.1758 0.3446
vn 0.2544 0.9662 0.0415
vn 0.7950 0.4296 0.4282
vn 0.6965 0.5635 0.4442
vn -0.1469 0.6552 -0.7410
vn -0.2119 -0.6305 -0.7467
vn 0.4052 0.5883 0.6998
vn 0.5169 -0.0004 0.8560
vn 0.9588 -0.1889 0.2123
vn 0.6035 0.7216 -0.3393
vn 0.7946 -0.5096 -0.3301
vn -0.0113 0.5074 0.8616
vn -0.3273 0.2544 0.9100
vn -0.3399 -0.1648 0.9259
vt 1.000000 0.000000
vt 0.000000 1.000000
vt 0.000000 0.000000
vt 1.000000 1.000000
s 0
usemtl Leav_material
f 1/1/1 3/2/1 4/3/1
f 6/4/2 8/3/2 5/1/2
f 10/4/3 12/3/3 9/1/3
f 13/1/4 15/2/4 16/3/4
f 17/1/5 19/2/5 20/3/5
f 22/4/6 24/3/6 21/1/6
f 26/4/7 28/3/7 25/1/7
f 30/4/8 32/3/8 29/1/8
f 34/4/9 36/3/9 33/1/9
f 38/4/10 40/3/10 37/1/10
f 42/4/11 44/3/11 41/1/11
f 46/4/12 48/3/12 45/1/12
f 50/4/13 52/3/13 49/1/13
f 54/4/14 56/3/14 53/1/14
f 57/1/15 59/2/15 60/3/15
f 61/1/16 63/2/16 64/3/16
f 65/1/17 67/2/17 68/3/17
f 70/4/18 72/3/18 69/1/18
f 73/1/19 75/2/19 76/3/19
f 77/1/20 79/2/20 80/3/20
f 82/4/21 84/3/21 81/1/21
f 85/1/22 87/2/22 88/3/22
f 90/4/23 92/3/23 89/1/23
f 93/1/24 95/2/24 96/3/24
f 98/4/25 100/3/25 97/1/25
f 102/4/26 104/3/26 101/1/26
f 106/4/27 108/3/27 105/1/27
f 110/4/28 112/3/28 109/1/28
f 114/4/29 116/3/29 113/1/29
f 118/4/30 120/3/30 117/1/30
f 122/4/31 124/3/31 121/1/31
f 125/1/32 127/2/32 128/3/32
f 130/4/33 132/3/33 129/1/33
f 134/4/34 136/3/34 133/1/34
f 138/4/35 140/3/35 137/1/35
f 142/4/36 144/3/36 141/1/36
f 145/1/37 147/2/37 148/3/37
f 150/4/38 152/3/38 149/1/38
f 154/4/39 156/3/39 153/1/39
f 158/4/40 160/3/40 157/1/40
f 162/4/41 164/3/41 161/1/41
f 166/4/42 168/3/42 165/1/42
f 169/1/43 171/2/43 172/3/43
f 174/4/44 176/3/44 173/1/44
f 178/4/45 180/3/45 177/1/45
f 182/4/46 184/3/46 181/1/46
f 186/4/47 188/3/47 185/1/47
f 189/1/48 191/2/48 192/3/48
f 194/4/49 196/3/49 193/1/49
f 198/4/50 200/3/50 197/1/50
f 201/1/51 203/2/51 204/3/51
f 206/4/52 208/3/52 205/1/52
f 210/4/53 212/3/53 209/1/53
f 214/4/54 216/3/54 213/1/54
f 218/4/55 220/3/55 217/1/55
f 222/4/56 224/3/56 221/1/56
f 225/1/57 227/2/57 228/3/57
f 230/4/58 232/3/58 229/1/58
f 234/4/59 236/3/59 233/1/59
f 238/4/60 240/3/60 237/1/60
f 242/4/61 244/3/61 241/1/61
f 246/4/62 248/3/62 245/1/62
f 249/1/63 251/2/63 252/3/63
f 254/4/64 256/3/64 253/1/64
f 257/1/65 259/2/65 260/3/65
f 261/1/66 263/2/66 264/3/66
f 266/4/67 268/3/67 265/1/67
f 270/4/68 272/3/68 269/1/68
f 273/1/69 275/2/69 276/3/69
f 278/4/70 280/3/70 277/1/70
f 282/4/71 284/3/71 281/1/71
f 285/1/72 287/2/72 288/3/72
f 290/4/73 292/3/73 289/1/73
f 293/1/74 295/2/74 296/3/74
f 298/4/75 300/3/75 297/1/75
f 302/4/76 304/3/76 301/1/76
f 306/4/77 308/3/77 305/1/77
f 309/1/78 311/2/78 312/3/78
f 314/4/79 316/3/79 313/1/79
f 317/1/80 319/2/80 320/3/80
f 322/4/81 324/3/81 321/1/81
f 326/4/82 328/3/82 325/1/82
f 330/4/83 332/3/83 329/1/83
f 334/4/84 336/3/84 333/1/84
f 338/4/85 340/3/85 337/1/85
f 342/4/86 344/3/86 341/1/86
f 345/1/87 347/2/87 348/3/87
f 350/4/88 352/3/88 349/1/88
f 353/1/89 355/2/89 356/3/89
f 358/4/90 360/3/90 357/1/90
f 362/4/91 364/3/91 361/1/91
f 366/4/92 368/3/92 365/1/92
f 369/1/93 371/2/93 372/3/93
f 374/4/94 376/3/94 373/1/94
f 378/4/95 380/3/95 377/1/95
f 381/1/96 383/2/96 384/3/96
f 385/1/97 387/2/97 388/3/97
f 390/4/98 392/3/98 389/1/98
f 393/1/99 395/2/99 396/3/99
f 398/4/100 400/3/100 397/1/100
f 402/4/101 404/3/101 401/1/101
f 406/4/102 408/3/102 405/1/102
f 410/4/103 412/3/103 409/1/103
f 413/1/104 415/2/104 416/3/104
f 418/4/105 420/3/105 417/1/105
f 422/4/106 424/3/106 421/1/106
f 426/4/107 428/3/107 425/1/107
f 1/1/1 2/4/1 3/2/1
f 6/4/2 7/2/2 8/3/2
f 10/4/3 11/2/3 12/3/3
f 13/1/4 14/4/4 15/2/4
f 17/1/5 18/4/5 19/2/5
f 22/4/6 23/2/6 24/3/6
f 26/4/7 27/2/7 28/3/7
f 30/4/8 31/2/8 32/3/8
f 34/4/9 35/2/9 36/3/9
f 38/4/10 39/2/10 40/3/10
f 42/4/11 43/2/11 44/3/11
f 46/4/12 47/2/12 48/3/12
f 50/4/13 51/2/13 52/3/13
f 54/4/14 55/2/14 56/3/14
f 57/1/15 58/4/15 59/2/15
f 61/1/16 62/4/16 63/2/16
f 65/1/17 66/4/17 67/2/17
f 70/4/18 71/2/18 72/3/18
f 73/1/19 74/4/19 75/2/19
f 77/1/20 78/4/20 79/2/20
f 82/4/21 83/2/21 84/3/21
f 85/1/22 86/4/22 87/2/22
f 90/4/23 91/2/23 92/3/23
f 93/1/24 94/4/24 95/2/24
f 98/4/25 99/2/25 100/3/25
f 102/4/26 103/2/26 104/3/26
f 106/4/27 107/2/27 108/3/27
f 110/4/28 111/2/28 112/3/28
f 114/4/29 115/2/29 116/3/29
f 118/4/30 119/2/30 120/3/30
f 122/4/31 123/2/31 124/3/31
f 125/1/32 126/4/32 127/2/32
f 130/4/33 131/2/33 132/3/33
f 134/4/34 135/2/34 136/3/34
f 138/4/35 139/2/35 140/3/35
f 142/4/36 143/2/36 144/3/36
f 145/1/37 146/4/37 147/2/37
f 150/4/38 151/2/38 152/3/38
f 154/4/39 155/2/39 156/3/39
f 158/4/40 159/2/40 160/3/40
f 162/4/41 163/2/41 164/3/41
f 166/4/42 167/2/42 168/3/42
f 169/1/43 170/4/43 171/2/43
f 174/4/44 175/2/44 176/3/44
f 178/4/45 179/2/45 180/3/45
f 182/4/46 183/2/46 184/3/46
f 186/4/47 187/2/47 188/3/47
f 189/1/48 190/4/48 191/2/48
f 194/4/49 195/2/49 196/3/49
f 198/4/50 199/2/50 200/3/50
f 201/1/51 202/4/51 203/2/51
f 206/4/52 207/2/52 208/3/52
f 210/4/53 211/2/53 212/3/53
f 214/4/54 215/2/54 216/3/54
f 218/4/55 219/2/55 220/3/55
f 222/4/56 223/2/56 224/3/56
f 225/1/57 226/4/57 227/2/57
f 230/4/58 231/2/58 232/3/58
f 234/4/59 235/2/59 236/3/59
f 238/4/60 239/2/60 240/3/60
f 242/4/61 243/2/61 244/3/61
f 246/4/62 247/2/62 248/3/62
f 249/1/63 250/4/63 251/2/63
f 254/4/64 255/2/64 256/3/64
f 257/1/65 258/4/65 259/2/65
f 261/1/66 262/4/66 263/2/66
f 266/4/67 267/2/67 268/3/67
f 270/4/68 271/2/68 272/3/68
f 273/1/69 274/4/69 275/2/69
f 278/4/70 279/2/70 280/3/70
f 282/4/71 283/2/71 284/3/71
f 285/1/72 286/4/72 287/2/72
f 290/4/73 291/2/73 292/3/73
f 293/1/74 294/4/74 295/2/74
f 298/4/75 299/2/75 300/3/75
f 302/4/76 303/2/76 304/3/76
f 306/4/77 307/2/77 308/3/77
f 309/1/78 310/4/78 311/2/78
f 314/4/79 315/2/79 316/3/79
f 317/1/80 318/4/80 319/2/80
f 322/4/81 323/2/81 324/3/81
f 326/4/82 327/2/82 328/3/82
f 330/4/83 331/2/83 332/3/83
f 334/4/84 335/2/84 336/3/84
f 338/4/85 339/2/85 340/3/85
f 342/4/86 343/2/86 344/3/86
f 345/1/87 346/4/87 347/2/87
f 350/4/88 351/2/88 352/3/88
f 353/1/89 354/4/89 355/2/89
f 358/4/90 359/2/90 360/3/90
f 362/4/91 363/2/91 364/3/91
f 366/4/92 367/2/92 368/3/92
f 369/1/93 370/4/93 371/2/93
f 374/4/94 375/2/94 376/3/94
f 378/4/95 379/2/95 380/3/95
f 381/1/96 382/4/96 383/2/96
f 385/1/97 386/4/97 387/2/97
f 390/4/98 391/2/98 392/3/98
f 393/1/99 394/4/99 395/2/99
f 398/4/100 399/2/100 400/3/100
f 402/4/101 403/2/101 404/3/101
f 406/4/102 407/2/102 408/3/102
f 410/4/103 411/2/103 412/3/103
f 413/1/104 414/4/104 415/2/104
f 418/4/105 419/2/105 420/3/105
f 422/4/106 423/2/106 424/3/106
f 426/4/107 427/2/107 428/3/107
