# Blender 4.2.1 LTS
# www.blender.org
mtllib tree01.mtl
o tree
v 0.551867 -0.000000 0.471917
v 0.684626 0.000000 -0.241972
v 0.132759 0.000000 -0.713890
v -0.551867 0.000000 -0.471917
v -0.684626 -0.000000 0.241972
v -0.132759 -0.000000 0.713890
v 0.383146 3.026758 0.327776
v 0.475365 3.026758 -0.168121
v 0.092220 3.013307 -0.495896
v -0.383145 2.999855 -0.327775
v -0.475365 2.999855 0.168122
v -0.092220 3.013306 0.495897
v 0.138938 6.025480 0.241083
v 0.216325 6.024688 -0.174990
v -0.105310 6.025464 -0.450047
v -0.504332 6.027031 -0.309031
v -0.581718 6.027823 0.107042
v -0.260083 6.027047 0.382099
v 0.280777 9.026687 0.214674
v 0.343371 9.028629 -0.121564
v 0.083687 9.041300 -0.343784
v -0.238590 9.052028 -0.229766
v -0.301184 9.050085 0.106472
v -0.041500 9.037415 0.328692
v 0.243654 12.053072 0.212750
v 0.291340 12.051889 -0.043682
v 0.093104 12.050956 -0.213194
v -0.152818 12.051203 -0.126273
v -0.200503 12.052385 0.130158
v -0.002267 12.053319 0.299670
v 0.153598 15.068623 0.080628
v 0.186458 15.064283 -0.095929
v 0.049946 15.059927 -0.212619
v -0.119426 15.059910 -0.152751
v -0.152287 15.064249 0.023806
v -0.015775 15.068605 0.140496
v 0.034308 10.846893 0.178235
v -0.118229 10.845578 0.022065
v -0.116775 10.689560 -0.130626
v 0.037216 10.534857 -0.127146
v 0.189753 10.536172 0.029023
v 0.188299 10.692190 0.181714
v -0.687195 10.105124 0.851394
v -0.800750 10.105124 0.732921
v -0.805534 9.982605 0.623848
v -0.696761 9.860085 0.633248
v -0.583206 9.860085 0.751722
v -0.578422 9.982605 0.860794
v -1.495083 9.522923 1.568683
v -1.573203 9.521450 1.491391
v -1.585111 9.433207 1.426970
v -1.518899 9.346436 1.439839
v -1.440779 9.347908 1.517130
v -1.428871 9.436152 1.581552
v -2.274032 9.055021 2.398882
v -2.312152 9.054892 2.358267
v -2.324926 9.007346 2.332211
v -2.299581 8.959929 2.346771
v -2.261461 8.960058 2.387386
v -2.248687 9.007604 2.413442
v -3.257787 9.003815 3.148845
v -3.257787 9.003815 3.148845
v -3.257787 9.003815 3.148845
v -3.257787 9.003815 3.148845
v -3.257787 9.003815 3.148845
v -3.257787 9.003815 3.148845
v 0.127201 11.219190 -0.086343
v 0.155014 11.218790 0.130185
v 0.068001 11.059221 0.251119
v -0.046825 10.900052 0.155524
v -0.074638 10.900452 -0.061005
v 0.012375 11.060020 -0.181938
v 1.132723 10.517739 -0.189498
v 1.153108 10.517739 -0.026663
v 1.099662 10.390913 0.062721
v 1.025832 10.264087 -0.010730
v 1.005447 10.264087 -0.173565
v 1.058892 10.390913 -0.262949
v 2.254595 10.033445 -0.297774
v 2.271851 10.031858 -0.189245
v 2.247735 9.941780 -0.131080
v 2.206363 9.853289 -0.181444
v 2.189107 9.854876 -0.289973
v 2.213223 9.944954 -0.348138
v 3.385819 9.578274 -0.507098
v 3.391404 9.578394 -0.451677
v 3.384170 9.531281 -0.422854
v 3.371351 9.484049 -0.449451
v 3.365766 9.483929 -0.504873
v 3.373000 9.531041 -0.533696
v 4.617479 9.430353 -0.479037
v 4.617479 9.430353 -0.479037
v 4.617479 9.430353 -0.479037
v 4.617479 9.430353 -0.479037
v 4.617479 9.430353 -0.479037
v 4.617479 9.430353 -0.479037
v -0.093367 11.615586 0.070388
v 0.041594 11.613678 -0.101193
v 0.178563 11.446225 -0.130474
v 0.180572 11.280681 0.011826
v 0.045610 11.282589 0.183407
v -0.091359 11.450042 0.212689
v -0.916112 10.989527 -0.604155
v -0.812358 10.989527 -0.731300
v -0.716248 10.859378 -0.758777
v -0.723891 10.729229 -0.659109
v -0.827645 10.729229 -0.531964
v -0.923755 10.859378 -0.504487
v -1.769704 10.544204 -1.367616
v -1.699679 10.544456 -1.452324
v -1.644191 10.453135 -1.478024
v -1.658728 10.361562 -1.419017
v -1.728753 10.361309 -1.334309
v -1.784241 10.452630 -1.308609
v -2.679313 10.218838 -2.134250
v -2.642266 10.219352 -2.175842
v -2.620185 10.171570 -2.194064
v -2.635151 10.123274 -2.170693
v -2.672199 10.122760 -2.129101
v -2.694280 10.170542 -2.110879
v -3.541676 10.230173 -3.023842
v -3.541676 10.230173 -3.023842
v -3.541676 10.230173 -3.023842
v -3.541676 10.230173 -3.023842
v -3.541676 10.230173 -3.023842
v -3.541676 10.230173 -3.023842
v 0.162911 12.043270 0.106865
v -0.053067 12.040722 0.138567
v -0.170638 11.867979 0.075356
v -0.072230 11.697786 -0.019557
v 0.143749 11.700335 -0.051259
v 0.261320 11.873077 0.011952
v 0.302106 11.481218 1.195414
v 0.139123 11.481218 1.214576
v 0.052132 11.347130 1.177380
v 0.128124 11.213041 1.121022
v 0.291107 11.213041 1.101860
v 0.378099 11.347130 1.139056
v 0.374758 11.143909 2.374816
v 0.265573 11.143991 2.387362
v 0.208605 11.051022 2.373574
v 0.260823 10.957970 2.347238
v 0.370009 10.957888 2.334692
v 0.426976 11.050858 2.348481
v 0.520354 10.867651 3.572619
v 0.464743 10.868189 3.575748
v 0.436231 10.820415 3.573015
v 0.463330 10.772104 3.567152
v 0.518941 10.771566 3.564023
v 0.547453 10.819340 3.566756
v 0.453576 10.829657 4.812247
v 0.453576 10.829657 4.812247
v 0.453576 10.829657 4.812247
v 0.453576 10.829657 4.812247
v 0.453576 10.829657 4.812247
v 0.453576 10.829657 4.812247
v -0.014668 12.499599 -0.070213
v 0.172812 12.498554 0.041628
v 0.232430 12.320564 0.153089
v 0.104568 12.143620 0.152710
v -0.082912 12.144665 0.040869
v -0.142530 12.322655 -0.070593
v 0.590663 12.030249 -1.036591
v 0.730318 12.030249 -0.950409
v 0.780604 11.893086 -0.875652
v 0.691236 11.755924 -0.887077
v 0.551581 11.755924 -0.973259
v 0.501295 11.893086 -1.048016
v 1.261197 11.767469 -2.033770
v 1.357472 11.766223 -1.980775
v 1.396285 11.672030 -1.939540
v 1.338823 11.579086 -1.951300
v 1.242548 11.580333 -2.004296
v 1.203735 11.674525 -2.045531
v 1.791081 11.487737 -3.118525
v 1.839929 11.487087 -3.091765
v 1.861234 11.438838 -3.073852
v 1.833690 11.391238 -3.082700
v 1.784841 11.391888 -3.109459
v 1.763536 11.440137 -3.127372
v 2.477841 11.392609 -4.149417
v 2.477841 11.392609 -4.149417
v 2.477841 11.392609 -4.149417
v 2.477841 11.392609 -4.149417
v 2.477841 11.392609 -4.149417
v 2.477841 11.392609 -4.149417
v 0.025811 12.919840 0.151820
v -0.026766 12.919667 -0.060062
v -0.009544 12.735904 -0.176650
v 0.060255 12.552313 -0.081355
v 0.112832 12.552485 0.130527
v 0.095610 12.736249 0.247114
v -1.129704 12.582170 0.410932
v -1.168580 12.582170 0.251497
v -1.167839 12.441577 0.166859
v -1.128222 12.300983 0.241656
v -1.089346 12.300983 0.401091
v -1.090087 12.441577 0.485728
v -2.326199 12.469500 0.669396
v -2.354363 12.469287 0.563162
v -2.364170 12.374103 0.509102
v -2.345813 12.279129 0.561275
v -2.317648 12.279342 0.667509
v -2.307841 12.374527 0.721569
v -3.519388 12.375617 0.988960
v -3.534121 12.375508 0.935241
v -3.543282 12.327251 0.908972
v -3.537711 12.279103 0.936422
v -3.522979 12.279212 0.990140
v -3.513817 12.327469 1.016409
v -4.724288 12.471277 1.270132
v -4.724288 12.471277 1.270132
v -4.724288 12.471277 1.270132
v -4.724288 12.471277 1.270132
v -4.724288 12.471277 1.270132
v -4.724288 12.471277 1.270132
v 0.105729 13.307858 -0.062104
v 0.004602 13.307597 0.131368
v -0.061181 13.119199 0.219896
v -0.025836 12.931061 0.114952
v 0.075292 12.931321 -0.078520
v 0.141075 13.119720 -0.167048
v 1.177512 13.147906 0.528342
v 1.097971 13.147906 0.671883
v 1.057434 13.005789 0.743228
v 1.096437 12.863671 0.671033
v 1.175978 12.863671 0.527492
v 1.216515 13.005789 0.456146
v 2.223190 13.198845 1.173528
v 2.171829 13.198946 1.270692
v 2.154419 13.104282 1.323744
v 2.188370 13.009518 1.279632
v 2.239732 13.009417 1.182468
v 2.257141 13.104080 1.129416
v 3.324939 13.298009 1.724456
v 3.299080 13.298092 1.773792
v 3.295735 13.251132 1.803562
v 3.318249 13.204089 1.783997
v 3.344108 13.204006 1.734661
v 3.347452 13.250966 1.704890
v 4.337171 13.659991 2.342777
v 4.337171 13.659991 2.342777
v 4.337171 13.659991 2.342777
v 4.337171 13.659991 2.342777
v 4.337171 13.659991 2.342777
v 4.337171 13.659991 2.342777
v -0.066261 13.674922 0.053806
v 0.137601 13.674953 -0.024288
v 0.239842 13.485910 -0.062602
v 0.138221 13.296836 -0.022821
v -0.065641 13.296804 0.055273
v -0.167882 13.485847 0.093587
v -0.481982 13.622434 -1.107133
v -0.328474 13.622434 -1.165151
v -0.255156 13.480646 -1.203252
v -0.335346 13.338859 -1.183335
v -0.488854 13.338859 -1.125318
v -0.562172 13.480646 -1.087216
v -0.883386 13.749203 -2.262613
v -0.783248 13.749961 -2.307896
v -0.738389 13.656210 -2.343636
v -0.793668 13.561701 -2.334092
v -0.893807 13.560943 -2.288809
v -0.938666 13.654694 -2.253069
v -1.441226 13.893569 -3.354610
v -1.391788 13.894587 -3.380253
v -1.372188 13.848579 -3.404787
v -1.402025 13.801557 -3.403679
v -1.451463 13.800539 -3.378036
v -1.471064 13.846546 -3.353502
v -1.945986 14.308442 -4.407569
v -1.945986 14.308442 -4.407569
v -1.945986 14.308442 -4.407569
v -1.945986 14.308442 -4.407569
v -1.945986 14.308442 -4.407569
v -1.945986 14.308442 -4.407569
v 0.145030 14.027951 0.009703
v -0.048804 14.028937 -0.075384
v -0.162412 13.850437 -0.081979
v -0.082186 13.670951 -0.003487
v 0.111648 13.669965 0.081601
v 0.225256 13.848465 0.088196
v -0.366461 14.250170 1.112313
v -0.511012 14.250170 1.045743
v -0.599790 14.118116 1.048294
v -0.544019 13.986063 1.117415
v -0.399468 13.986063 1.183985
v -0.310690 14.118116 1.181434
v -0.897224 14.642374 2.146045
v -0.996143 14.644360 2.106377
v -1.061086 14.561096 2.120936
v -1.027111 14.475845 2.175163
v -0.928191 14.473860 2.214831
v -0.863248 14.557123 2.200272
v -1.243598 15.167253 3.206045
v -1.293529 15.167928 3.185366
v -1.328753 15.129104 3.198520
v -1.314047 15.089605 3.232354
v -1.264117 15.088931 3.253033
v -1.228892 15.127755 3.239878
v -1.735659 15.908583 4.072243
v -1.735659 15.908583 4.072243
v -1.735659 15.908583 4.072243
v -1.735659 15.908583 4.072243
v -1.735659 15.908583 4.072243
v -1.735659 15.908583 4.072243
v -0.073055 14.386761 -0.073977
v 0.013684 14.386937 0.107352
v 0.113299 14.224472 0.171270
v 0.126176 14.061829 0.053859
v 0.039438 14.061652 -0.127470
v -0.060178 14.224117 -0.191388
v 0.987798 14.785882 -0.554193
v 1.052742 14.785882 -0.417729
v 1.138417 14.669012 -0.374816
v 1.159148 14.552142 -0.468368
v 1.094203 14.552142 -0.604832
v 1.008528 14.669012 -0.647745
v 1.955247 15.410849 -0.983865
v 2.000552 15.411993 -0.893320
v 2.066049 15.338856 -0.868554
v 2.086240 15.264574 -0.934332
v 2.040934 15.263430 -1.024877
v 1.975438 15.336567 -1.049643
v 2.897943 16.048832 -1.470422
v 2.919960 16.048609 -1.424002
v 2.957004 16.014654 -1.413305
v 2.972030 15.980923 -1.449026
v 2.950013 15.981147 -1.495445
v 2.912969 16.015100 -1.506143
v 3.715590 16.935919 -1.755293
v 3.715590 16.935919 -1.755293
v 3.715590 16.935919 -1.755293
v 3.715590 16.935919 -1.755293
v 3.715590 16.935919 -1.755293
v 3.715590 16.935919 -1.755293
v 0.074852 14.764823 0.093766
v 0.131258 14.766074 -0.088004
v 0.078091 14.625778 -0.205108
v -0.031481 14.484231 -0.140444
v -0.087886 14.482980 0.041326
v -0.034720 14.623276 0.158431
v -0.946968 15.369349 -0.243810
v -0.903204 15.369349 -0.380072
v -0.950811 15.269172 -0.470521
v -1.042180 15.168995 -0.424707
v -1.085944 15.168995 -0.288444
v -1.038338 15.269172 -0.197996
v -1.846768 16.145395 -0.573087
v -1.817901 16.145782 -0.664551
v -1.855549 16.083464 -0.726985
v -1.922066 16.020758 -0.697955
v -1.950933 16.020370 -0.606491
v -1.913285 16.082689 -0.544057
v -2.760337 16.936487 -0.858935
v -2.743554 16.934565 -0.904618
v -2.763654 16.903896 -0.936677
v -2.800536 16.875151 -0.923052
v -2.817319 16.877073 -0.877369
v -2.797220 16.907742 -0.845311
v -3.496202 17.835482 -1.301392
v -3.496202 17.835482 -1.301392
v -3.496202 17.835482 -1.301392
v -3.496202 17.835482 -1.301392
v -3.496202 17.835482 -1.301392
v -3.496202 17.835482 -1.301392
v 0.196113 15.059361 -0.050068
v 0.094950 15.077381 -0.197419
v -0.084077 15.082287 -0.183413
v -0.161942 15.069172 -0.022056
v -0.060779 15.051151 0.125296
v 0.118248 15.046246 0.111290
v 0.195170 16.302076 0.075092
v 0.118922 16.302076 -0.036443
v -0.015785 16.300550 -0.026184
v -0.074245 16.299025 0.095610
v 0.002002 16.299025 0.207145
v 0.136709 16.300550 0.196886
v 0.080407 17.545378 -0.024754
v 0.029572 17.539894 -0.099512
v -0.060371 17.531784 -0.092620
v -0.099480 17.529158 -0.010970
v -0.048645 17.534641 0.063788
v 0.041298 17.542751 0.056896
v -0.118342 18.769785 0.053709
v -0.144136 18.766300 0.015738
v -0.190022 18.764828 0.019137
v -0.210114 18.766840 0.060508
v -0.184320 18.770325 0.098479
v -0.138434 18.771797 0.095079
v -0.100242 19.986593 -0.181046
v -0.100242 19.986593 -0.181046
v -0.100242 19.986593 -0.181046
v -0.100242 19.986593 -0.181046
v -0.100242 19.986593 -0.181046
v -0.100242 19.986593 -0.181046
vn 0.7579 0.0732 0.6482
vn -0.1743 0.0508 0.9834
vn -0.1824 0.0735 0.9805
vn 0.9414 0.0768 -0.3286
vn 0.9403 0.0732 -0.3324
vn 0.1909 0.0508 -0.9803
vn 0.1823 0.0735 -0.9805
vn -0.7569 0.0245 -0.6531
vn -0.7579 0.0738 -0.6481
vn -0.9411 0.0245 0.3374
vn -0.9403 0.0738 0.3323
vn 0.7525 0.0256 0.6581
vn 0.7603 0.0768 0.6450
vn 0.9392 0.0237 -0.3426
vn 0.1626 0.0251 -0.9864
vn -0.7664 0.0282 -0.6417
vn -0.2029 0.0288 0.9788
vn -0.1730 0.0209 0.9847
vn 0.7646 -0.0105 0.6444
vn 0.1928 0.0321 -0.9807
vn -0.7533 0.0639 -0.6546
vn -0.9403 0.0584 0.3354
vn -0.9456 0.0300 0.3241
vn 0.7575 0.0303 0.6521
vn 0.9449 0.0259 -0.3263
vn 0.9436 -0.0048 -0.3311
vn 0.1867 0.0226 -0.9822
vn -0.7620 0.0236 -0.6471
vn -0.9400 0.0279 0.3400
vn 0.7594 0.0511 0.6486
vn -0.1789 0.0313 0.9834
vn 0.9422 0.0270 -0.3338
vn 0.1826 0.0028 -0.9832
vn -0.9427 0.0268 0.3324
vn -0.1831 0.0510 0.9818
vn 0.0134 0.7164 0.6976
vn 0.6724 -0.0188 0.7400
vn -0.0326 0.6888 0.7242
vn -0.6939 0.7191 -0.0378
vn -0.7306 0.6827 0.0097
vn -0.7238 -0.0309 -0.6893
vn -0.0189 -0.7388 -0.6736
vn -0.7095 -0.0428 -0.7034
vn 0.6792 -0.7328 0.0410
vn -0.0442 -0.7736 -0.6321
vn 0.6727 -0.0424 0.7387
vn 0.6865 -0.0198 0.7269
vn 0.0768 0.7858 0.6137
vn -0.6398 0.7617 -0.1024
vn -0.1376 -0.8176 -0.5591
vn 0.5651 -0.8146 0.1307
vn 0.6323 -0.7710 0.0758
vn 0.2301 0.8176 0.5278
vn -0.4915 0.8388 -0.2340
vn -0.7333 -0.0452 -0.6784
vn -0.7075 -0.0669 -0.7035
vn -0.2285 -0.8823 -0.4115
vn 0.6585 -0.0575 0.7504
vn 0.0071 0.9999 0.0098
vn -0.0004 1.0000 0.0004
vn -0.0080 0.9999 -0.0092
vn 0.4222 -0.8604 0.2854
vn -0.0003 1.0000 0.0004
vn 0.0072 0.9999 0.0098
vn 0.3593 0.7436 -0.5638
vn -0.0904 -0.0216 -0.9957
vn 0.4355 0.7063 -0.5582
vn 0.4875 0.7446 0.4560
vn 0.5628 0.7044 0.4325
vn 0.1642 -0.0253 0.9861
vn -0.3617 -0.7537 0.5487
vn 0.1484 -0.0480 0.9878
vn -0.4890 -0.7519 -0.4422
vn -0.2935 -0.7982 0.5260
vn -0.0997 -0.0478 -0.9939
vn -0.1174 -0.0054 -0.9931
vn 0.2630 0.8075 -0.5280
vn 0.1953 -0.0336 0.9802
vn -0.1771 -0.8298 0.5292
vn -0.3363 -0.8259 -0.4525
vn -0.4140 -0.7973 -0.4392
vn 0.1644 0.8102 -0.5626
vn 0.2752 0.8410 0.4659
vn 0.4162 0.7828 0.4627
vn 0.1355 -0.0493 0.9895
vn -0.0963 -0.8758 0.4729
vn -0.0664 -0.0491 -0.9966
vn 0.0011 0.9999 -0.0122
vn 0.0017 1.0000 -0.0002
vn 0.0011 0.9999 0.0122
vn -0.0000 0.9999 0.0123
vn -0.1892 -0.8528 -0.4868
vn -0.0006 1.0000 0.0001
vn -0.0001 0.9999 -0.0122
vn -0.6240 0.7656 0.1565
vn -0.6481 -0.0119 0.7615
vn -0.6575 0.7454 0.1099
vn 0.0199 0.7707 -0.6369
vn -0.0401 0.7365 -0.6752
vn 0.5870 -0.0294 -0.8091
vn 0.5965 -0.7870 -0.1576
vn 0.6084 -0.0412 -0.7926
vn -0.0211 -0.7782 0.6276
vn 0.5480 -0.8174 -0.1777
vn -0.6542 -0.0403 0.7553
vn -0.6654 -0.0306 0.7459
vn -0.5396 0.8154 0.2097
vn 0.6077 -0.0256 -0.7938
vn 0.4708 -0.8442 -0.2562
vn -0.1560 -0.8499 0.5033
vn -0.0715 -0.8124 0.5787
vn -0.4499 0.8332 0.3215
vn 0.2392 0.8577 -0.4551
vn 0.1071 0.8141 -0.5707
vn 0.6337 -0.0395 -0.7726
vn 0.3457 -0.8777 -0.3319
vn -0.6931 -0.0556 0.7187
vn -0.0087 0.9999 0.0086
vn -0.0000 1.0000 0.0002
vn 0.0084 0.9999 -0.0088
vn 0.0080 0.9999 -0.0094
vn -0.2951 -0.8737 0.3869
vn -0.0008 1.0000 -0.0009
vn -0.0092 0.9999 0.0080
vn 0.5553 0.7894 0.2617
vn 0.9944 -0.0067 -0.1058
vn 0.5439 0.7719 0.3292
vn -0.4640 0.7978 0.3850
vn -0.4442 0.7600 0.4745
vn -0.9823 -0.0300 0.1848
vn -0.5321 -0.8089 -0.2501
vn -0.9881 -0.0442 0.1475
vn 0.4563 -0.7972 -0.3952
vn -0.5054 -0.8410 -0.1929
vn 0.9953 -0.0427 -0.0864
vn 0.9972 -0.0187 -0.0730
vn 0.5196 0.8375 0.1692
vn -0.9879 -0.0166 0.1544
vn -0.5159 -0.8526 -0.0831
vn 0.4689 -0.8609 -0.1976
vn 0.4615 -0.8333 -0.3045
vn 0.5478 0.8318 0.0900
vn -0.4754 0.8667 0.1509
vn -0.4803 0.8305 0.2820
vn -0.9948 -0.0264 0.0983
vn -0.4756 -0.8796 -0.0093
vn 0.9990 -0.0428 -0.0160
vn 0.0123 0.9999 0.0009
vn 0.0002 1.0000 0.0004
vn -0.0122 0.9999 0.0001
vn -0.0124 0.9999 0.0002
vn 0.4954 -0.8664 -0.0632
vn -0.0001 1.0000 0.0007
vn 0.0122 0.9999 0.0010
vn -0.2987 0.8139 -0.4983
vn -0.8369 -0.0102 -0.5472
vn -0.2515 0.7993 -0.5458
vn 0.5735 0.8183 0.0383
vn 0.6064 0.7944 -0.0342
vn 0.8791 -0.0198 0.4763
vn 0.2937 -0.8296 0.4749
vn 0.8682 -0.0384 0.4947
vn -0.5642 -0.8248 -0.0369
vn 0.3134 -0.8545 0.4142
vn -0.8317 -0.0378 -0.5539
vn -0.8537 0.0053 -0.5207
vn -0.3159 0.8575 -0.4061
vn 0.8955 -0.0171 0.4447
vn 0.3883 -0.8548 0.3443
vn -0.4888 -0.8618 -0.1359
vn -0.5166 -0.8505 -0.0990
vn -0.3847 0.8450 -0.3714
vn 0.5114 0.8514 0.1163
vn 0.5547 0.8284 0.0781
vn 0.8956 -0.0416 0.4429
vn 0.3794 -0.8843 0.2722
vn -0.8568 -0.0167 -0.5154
vn -0.0098 0.9999 -0.0072
vn 0.0007 1.0000 -0.0009
vn 0.0108 0.9999 0.0059
vn 0.0105 0.9999 0.0064
vn -0.4776 -0.8559 -0.1984
vn -0.0001 1.0000 -0.0001
vn -0.0103 0.9999 -0.0069
vn -0.0431 0.8409 0.5394
vn 0.1992 -0.0094 0.9799
vn -0.1207 0.8304 0.5439
vn -0.2863 0.8421 -0.4570
vn -0.3614 0.8296 -0.4256
vn -0.2821 -0.0110 -0.9593
vn 0.0377 -0.8513 -0.5233
vn -0.2742 -0.0355 -0.9610
vn 0.2783 -0.8505 0.4463
vn -0.0318 -0.8695 -0.4928
vn 0.1990 -0.0353 0.9794
vn 0.2136 -0.0027 0.9769
vn 0.0453 0.8659 0.4981
vn -0.2977 -0.0065 -0.9546
vn -0.1319 -0.8647 -0.4847
vn 0.1234 -0.8694 0.4785
vn 0.1990 -0.8685 0.4540
vn 0.1244 0.8586 0.4973
vn -0.1456 0.8611 -0.4872
vn -0.2106 0.8573 -0.4697
vn -0.3078 -0.0248 -0.9511
vn -0.2026 -0.8717 -0.4462
vn 0.2209 -0.0205 0.9751
vn 0.0033 0.9999 0.0118
vn 0.0010 1.0000 -0.0003
vn -0.0028 0.9999 -0.0120
vn -0.0044 0.9999 -0.0116
vn 0.0566 -0.8657 0.4974
vn -0.0021 1.0000 0.0006
vn 0.0017 0.9999 0.0123
vn 0.2946 0.8541 -0.4286
vn 0.5014 -0.0027 -0.8652
vn 0.3401 0.8582 -0.3846
vn -0.2011 0.8612 0.4668
vn -0.1224 0.8569 0.5008
vn -0.4239 -0.0050 0.9057
vn -0.2625 -0.8662 0.4253
vn -0.4458 -0.0278 0.8947
vn 0.2002 -0.8650 -0.4601
vn -0.2015 -0.8751 0.4400
vn 0.5216 -0.0270 -0.8528
vn 0.5065 -0.0029 -0.8622
vn 0.1932 0.8695 -0.4546
vn -0.4285 -0.0008 0.9035
vn -0.1246 -0.8519 0.5086
vn 0.3412 -0.8647 -0.3685
vn 0.2714 -0.8688 -0.4142
vn 0.1140 0.8376 -0.5342
vn -0.3662 0.8508 0.3769
vn -0.2756 0.8581 0.4333
vn -0.4180 -0.0227 0.9082
vn -0.0092 -0.8456 0.5337
vn 0.5080 -0.0244 -0.8610
vn 0.0045 0.9999 -0.0114
vn -0.0036 1.0000 -0.0019
vn -0.0077 0.9999 0.0098
vn -0.0036 0.9999 0.0120
vn 0.4387 -0.8370 -0.3270
vn 0.0046 1.0000 0.0025
vn 0.0087 0.9999 -0.0093
vn -0.4730 0.8595 0.1939
vn -0.9486 -0.0002 0.3165
vn -0.4836 0.8649 0.1341
vn 0.4810 0.8608 -0.1666
vn 0.4492 0.8651 -0.2233
vn 0.9172 0.0001 -0.3983
vn 0.4523 -0.8653 -0.2160
vn 0.9184 -0.0201 -0.3953
vn -0.4806 -0.8655 0.1414
vn 0.4212 -0.8664 -0.2682
vn -0.9502 -0.0199 0.3111
vn -0.9287 -0.0026 0.3708
vn -0.4111 0.8676 0.2796
vn 0.8928 0.0109 -0.4503
vn 0.4042 -0.8373 -0.3682
vn -0.5047 -0.8624 0.0385
vn -0.4952 -0.8653 0.0783
vn -0.3904 0.8258 0.4071
vn 0.5254 0.8483 -0.0667
vn 0.4997 0.8557 -0.1342
vn 0.8625 -0.0046 -0.5060
vn 0.3155 -0.8239 -0.4707
vn -0.9097 -0.0406 0.4133
vn -0.0101 0.9999 0.0074
vn 0.0020 1.0000 0.0043
vn 0.0118 0.9999 -0.0036
vn 0.0096 0.9999 -0.0084
vn -0.5446 -0.8384 -0.0235
vn -0.0025 1.0000 -0.0053
vn -0.0123 0.9999 0.0026
vn 0.5524 0.8331 0.0301
vn 0.8982 0.0046 0.4395
vn 0.5193 0.8517 0.0694
vn -0.3732 0.8382 -0.3976
vn -0.3954 0.8564 -0.3320
vn -0.9315 0.0140 -0.3635
vn -0.5527 -0.8333 0.0067
vn -0.9271 -0.0101 -0.3748
vn 0.3621 -0.8380 0.4082
vn -0.5622 -0.8249 0.0599
vn 0.8876 -0.0098 0.4604
vn 0.9093 -0.0187 0.4158
vn 0.5859 0.8036 -0.1049
vn -0.3585 0.8032 -0.4757
vn -0.6295 -0.7590 0.1660
vn 0.2789 -0.7944 0.5396
vn 0.3285 -0.8202 0.4684
vn 0.6646 0.7238 -0.1856
vn -0.2786 0.7580 -0.5898
vn -0.9436 0.0085 -0.3310
vn -0.9438 0.0192 -0.3300
vn -0.6374 -0.7106 0.2979
vn 0.2654 -0.7050 0.6577
vn 0.0121 0.9999 0.0017
vn 0.9028 -0.0153 0.4298
vn 0.0033 1.0000 -0.0075
vn -0.0091 0.9999 -0.0089
vn -0.0126 0.9999 -0.0010
vn -0.0036 1.0000 0.0084
vn 0.0087 0.9999 0.0097
vn -0.5359 0.7833 -0.3150
vn -0.3972 0.0138 -0.9176
vn -0.4606 0.8223 -0.3342
vn -0.0942 0.7839 0.6137
vn -0.0295 0.8232 0.5670
vn 0.4652 0.0155 0.8851
vn 0.5290 -0.7933 0.3015
vn 0.4745 -0.0106 0.8802
vn 0.0979 -0.7941 -0.5998
vn 0.5949 -0.7623 0.2549
vn -0.3839 -0.0106 -0.9233
vn -0.4160 0.0095 -0.9093
vn -0.6150 0.7464 -0.2542
vn 0.4776 0.0318 0.8780
vn 0.6768 -0.6977 0.2346
vn 0.2341 -0.7146 -0.6592
vn 0.1767 -0.7618 -0.6232
vn -0.6938 0.6735 -0.2549
vn -0.2583 0.6808 0.6854
vn -0.1644 0.7517 0.6387
vn 0.4810 -0.0095 0.8767
vn 0.7447 -0.6468 0.1645
vn -0.3767 -0.0001 -0.9263
vn -0.0085 0.9999 -0.0084
vn -0.0085 1.0000 0.0041
vn 0.0004 0.9999 0.0124
vn 0.0092 0.9999 0.0081
vn 0.3230 -0.6332 -0.7034
vn 0.0091 0.9999 -0.0044
vn 0.0003 0.9999 -0.0126
vn 0.2929 0.7152 0.6345
vn -0.3273 0.0133 0.9448
vn 0.2477 0.7566 0.6051
vn 0.6076 0.7181 -0.3392
vn 0.5437 0.7632 -0.3491
vn 0.2649 0.0265 -0.9639
vn -0.3102 -0.7169 -0.6243
vn 0.2611 0.0006 -0.9653
vn -0.6064 -0.7235 0.3300
vn -0.3695 -0.6842 -0.6288
vn -0.3494 0.0007 0.9370
vn -0.3292 0.0200 0.9440
vn 0.3673 0.6761 0.6387
vn 0.2726 0.0278 -0.9617
vn -0.4169 -0.6229 -0.6619
vn -0.7205 -0.6306 0.2885
vn -0.6664 -0.6818 0.3019
vn 0.3657 0.6458 0.6702
vn 0.7311 0.6228 -0.2785
vn 0.6654 0.6762 -0.3163
vn 0.3037 -0.0267 -0.9524
vn -0.4580 -0.6120 -0.6447
vn -0.3823 0.0519 0.9226
vn -0.0001 0.9999 0.0111
vn 0.0086 1.0000 0.0028
vn 0.0085 0.9999 -0.0085
vn -0.0005 0.9999 -0.0115
vn -0.7805 -0.5589 0.2801
vn -0.0092 1.0000 -0.0031
vn -0.0090 0.9999 0.0082
vn 0.9978 0.0464 -0.0465
vn 0.5640 -0.0645 0.8232
vn 0.9972 0.0085 -0.0745
vn 0.4557 0.0481 -0.8888
vn 0.4343 0.1092 -0.8941
vn -0.5681 0.0370 -0.8221
vn -0.5615 0.1368 -0.8161
vn -0.9947 0.0634 0.0813
vn -0.4319 -0.0372 0.9011
vn -0.9940 0.0249 0.1065
vn -0.4104 0.0240 0.9116
vn 0.5758 0.0978 0.8117
vn 0.5602 0.0345 0.8276
vn 0.9874 0.1243 -0.0978
vn -0.5464 -0.0237 -0.8372
vn -0.9971 -0.0536 0.0533
vn -0.4347 0.0075 0.9005
vn 0.9967 0.0724 -0.0365
vn 0.4272 -0.0062 -0.9041
vn 0.4283 0.0639 -0.9014
vn -0.5995 -0.0382 -0.7995
vn -0.9942 0.0058 0.1075
vn 0.5212 0.1117 0.8461
vn 0.0105 0.9999 0.0050
vn 0.0098 0.9999 -0.0065
vn -0.0008 0.9999 -0.0116
vn -0.0105 0.9999 -0.0051
vn -0.4439 0.0777 0.8927
vn -0.0096 0.9999 0.0063
vn 0.0008 0.9999 0.0113
vn -0.7599 0.0027 -0.6500
vt 0.100931 0.850529
vt 0.149516 0.631861
vt 0.151960 0.836686
vt 0.206819 0.696448
vt 0.260257 0.933322
vt 0.202027 0.933322
vt 0.058362 0.669499
vt 0.100931 0.883300
vt 0.051976 0.895668
vt 0.022241 0.661542
vt 0.000000 0.882809
vt 0.270164 0.656384
vt 0.318633 0.870469
vt 0.260257 0.870469
vt 0.184287 0.642429
vt 0.202027 0.850529
vt 0.132456 0.429825
vt 0.114077 0.640525
vt 0.206372 0.460259
vt 0.247268 0.696448
vt 0.078948 0.441071
vt 0.092384 0.659932
vt 0.050418 0.448224
vt 0.308252 0.430232
vt 0.310714 0.656384
vt 0.162196 0.421647
vt 0.143436 0.212102
vt 0.230315 0.233120
vt 0.240309 0.460198
vt 0.073912 0.227226
vt 0.049473 0.220391
vt 0.020128 0.440616
vt 0.279452 0.217169
vt 0.274229 0.430173
vt 0.166988 0.217724
vt 0.191375 0.429660
vt 0.120233 0.004990
vt 0.119424 0.219381
vt 0.204849 0.000091
vt 0.202884 0.232973
vt 0.083344 0.004637
vt 0.096919 0.222319
vt 0.300964 0.000087
vt 0.306948 0.217029
vt 0.156548 0.005038
vt 0.924271 0.401545
vt 0.936116 0.605652
vt 0.917793 0.610667
vt 0.764947 0.759880
vt 0.750549 0.993749
vt 0.744039 0.759337
vt 0.419331 0.931802
vt 0.436952 0.710090
vt 0.436952 0.927421
vt 0.400696 0.927027
vt 0.424807 0.713375
vt 0.960635 0.390203
vt 0.975075 0.610423
vt 0.954108 0.610667
vt 0.936891 0.398105
vt 0.954108 0.610667
vt 0.425698 0.083699
vt 0.434674 0.008475
vt 0.450338 0.007096
vt 0.967803 0.873225
vt 0.983020 0.971623
vt 0.965503 0.971721
vt 0.486541 0.310150
vt 0.474781 0.227961
vt 0.499098 0.300188
vt 0.470107 0.309270
vt 0.465211 0.234875
vt 0.960800 0.386829
vt 0.976972 0.286413
vt 0.978350 0.386962
vt 0.413759 0.085479
vt 0.420802 0.000000
vt 0.407858 0.163431
vt 0.977603 0.777764
vt 0.980971 0.873006
vt 0.465263 0.153222
vt 0.450338 0.155467
vt 0.452702 0.233531
vt 0.968905 0.185442
vt 0.963781 0.286166
vt 0.403194 0.079732
vt 0.415485 0.245283
vt 0.415919 0.161549
vt 0.978549 0.685424
vt 0.968788 0.777659
vt 0.458775 0.157010
vt 0.463933 0.071820
vt 0.460726 0.073120
vt 0.970278 0.086219
vt 0.977740 0.185345
vt 0.411495 0.247034
vt 0.400696 0.160489
vt 0.450338 0.317036
vt 0.974473 0.610667
vt 0.983020 0.685323
vt 0.497037 0.388986
vt 0.497037 0.462879
vt 0.492615 0.389681
vt 0.456548 0.071582
vt 0.499098 0.000000
vt 0.965802 0.086099
vt 0.978350 0.000000
vt 0.492615 0.388121
vt 0.497006 0.310150
vt 0.497006 0.388986
vt 0.413827 0.416675
vt 0.416976 0.317036
vt 0.434227 0.320245
vt 0.845711 0.868311
vt 0.865947 0.945335
vt 0.850516 0.950836
vt 0.835598 0.946037
vt 0.694597 0.393879
vt 0.691921 0.292786
vt 0.711853 0.390755
vt 0.725431 0.849707
vt 0.741838 0.767968
vt 0.741838 0.853361
vt 0.719279 0.770095
vt 0.711853 0.855007
vt 0.402170 0.515127
vt 0.400696 0.415415
vt 0.857441 0.794216
vt 0.857310 0.864138
vt 0.842194 0.793026
vt 0.834467 0.863829
vt 0.680290 0.193041
vt 0.678793 0.293980
vt 0.906501 0.922790
vt 0.914763 0.997090
vt 0.902439 1.000000
vt 0.892267 0.993330
vt 0.406814 0.614231
vt 0.411002 0.515257
vt 0.861992 0.724515
vt 0.849685 0.796779
vt 0.684566 0.094715
vt 0.689119 0.192954
vt 0.906250 0.845022
vt 0.914763 0.920617
vt 0.357651 0.469714
vt 0.350462 0.399126
vt 0.357651 0.395736
vt 0.434227 0.710090
vt 0.402382 0.614849
vt 0.393631 0.467330
vt 0.397279 0.390123
vt 0.397279 0.469306
vt 0.389565 0.468530
vt 0.680134 0.094077
vt 0.711853 0.000000
vt 0.902061 0.845914
vt 0.907159 0.752846
vt 0.898596 0.844350
vt 0.371962 0.098450
vt 0.371278 0.000000
vt 0.387762 0.003588
vt 0.381716 0.097812
vt 0.400696 0.003081
vt 0.333229 0.762759
vt 0.333745 0.664442
vt 0.350462 0.760600
vt 0.522160 0.391901
vt 0.521906 0.294083
vt 0.537012 0.387074
vt 0.506820 0.390595
vt 0.510652 0.296724
vt 0.726782 0.495496
vt 0.725984 0.396218
vt 0.743199 0.398218
vt 0.361298 0.195868
vt 0.359449 0.096776
vt 0.369715 0.195955
vt 0.318633 0.570013
vt 0.320692 0.665311
vt 0.510371 0.197389
vt 0.502631 0.196507
vt 0.499098 0.295495
vt 0.711853 0.591072
vt 0.713753 0.494759
vt 0.372437 0.294862
vt 0.375733 0.294448
vt 0.376250 0.195468
vt 0.330965 0.476989
vt 0.327422 0.570364
vt 0.516670 0.097363
vt 0.517931 0.196632
vt 0.512899 0.096935
vt 0.724354 0.684415
vt 0.720614 0.590616
vt 0.400696 0.390123
vt 0.368244 0.295634
vt 0.326556 0.476220
vt 0.350462 0.395736
vt 0.537012 0.000000
vt 0.508989 0.096321
vt 0.743199 0.765181
vt 0.719964 0.685252
vt 0.621962 0.098709
vt 0.627296 0.000000
vt 0.644358 0.003882
vt 0.511136 0.677208
vt 0.529588 0.775156
vt 0.515348 0.775765
vt 0.499362 0.776328
vt 0.591761 0.388851
vt 0.586812 0.289241
vt 0.608941 0.385265
vt 0.373352 0.783917
vt 0.389565 0.683192
vt 0.389565 0.783633
vt 0.366911 0.682539
vt 0.359449 0.782109
vt 0.610814 0.195155
vt 0.608941 0.097055
vt 0.520341 0.579203
vt 0.521831 0.676342
vt 0.505143 0.578562
vt 0.499098 0.676729
vt 0.575671 0.191128
vt 0.573698 0.290650
vt 0.379647 0.582338
vt 0.377390 0.682998
vt 0.619883 0.290928
vt 0.619575 0.195336
vt 0.522909 0.482277
vt 0.513178 0.579807
vt 0.584283 0.094641
vt 0.584500 0.191132
vt 0.378758 0.483242
vt 0.387801 0.582492
vt 0.371069 0.483564
vt 0.372627 0.582966
vt 0.644357 0.385963
vt 0.615494 0.291422
vt 0.529588 0.391901
vt 0.526559 0.481717
vt 0.518863 0.481312
vt 0.579855 0.094041
vt 0.608941 0.000000
vt 0.374621 0.482903
vt 0.378310 0.390123
vt 0.462190 0.703549
vt 0.450338 0.628704
vt 0.465505 0.623583
vt 0.473628 0.707797
vt 0.480720 0.629443
vt 0.556498 0.392290
vt 0.558329 0.292570
vt 0.573698 0.389709
vt 0.551498 0.772230
vt 0.544520 0.844636
vt 0.537012 0.766643
vt 0.567305 0.767167
vt 0.555420 0.849685
vt 0.817795 0.099644
vt 0.815122 0.000000
vt 0.832528 0.002253
vt 0.462605 0.777890
vt 0.450783 0.708232
vt 0.470236 0.774478
vt 0.549210 0.195228
vt 0.545319 0.293635
vt 0.543644 0.193825
vt 0.537012 0.292117
vt 0.987041 0.345137
vt 0.980722 0.261955
vt 0.993706 0.263607
vt 0.808036 0.195124
vt 0.804629 0.098823
vt 0.466095 0.842195
vt 0.469983 0.843803
vt 0.477906 0.777640
vt 0.561042 0.095733
vt 0.557927 0.195343
vt 0.556645 0.095403
vt 0.989302 0.426424
vt 0.978350 0.344376
vt 0.821116 0.292951
vt 0.816862 0.194849
vt 0.480720 0.904335
vt 0.462237 0.844096
vt 0.533799 0.391901
vt 0.533799 0.463182
vt 0.529588 0.392821
vt 0.573698 0.000000
vt 0.553844 0.094430
vt 0.993706 0.426802
vt 0.984842 0.515316
vt 0.832528 0.386084
vt 0.816661 0.293360
vt 0.900002 0.091011
vt 0.887683 0.004755
vt 0.900968 0.000000
vt 0.912460 0.093043
vt 0.917540 0.002768
vt 0.817147 0.763866
vt 0.817543 0.674982
vt 0.834467 0.762043
vt 0.849581 0.364349
vt 0.858411 0.269229
vt 0.861700 0.366969
vt 0.832528 0.365010
vt 0.849325 0.266208
vt 0.788020 0.091724
vt 0.787265 0.000000
vt 0.804629 0.002175
vt 0.899197 0.177279
vt 0.890015 0.095541
vt 0.905869 0.173677
vt 0.807912 0.582447
vt 0.804414 0.675411
vt 0.854200 0.173801
vt 0.845609 0.174265
vt 0.836508 0.266652
vt 0.778300 0.186294
vt 0.774858 0.091012
vt 0.907717 0.255389
vt 0.911949 0.256184
vt 0.914216 0.175186
vt 0.819413 0.491677
vt 0.816718 0.582959
vt 0.857775 0.084788
vt 0.860260 0.176466
vt 0.854718 0.083155
vt 0.789996 0.279027
vt 0.787130 0.185983
vt 0.917540 0.328507
vt 0.904348 0.257457
vt 0.814976 0.491090
vt 0.834467 0.398105
vt 0.533728 0.463182
vt 0.533728 0.530280
vt 0.529588 0.464698
vt 0.850362 0.083425
vt 0.861700 0.000000
vt 0.804629 0.374549
vt 0.785546 0.279509
vt 0.550166 0.484211
vt 0.550946 0.392290
vt 0.568268 0.394778
vt 0.656787 0.290521
vt 0.678793 0.384414
vt 0.665445 0.381540
vt 0.648976 0.384799
vt 0.622588 0.776083
vt 0.622099 0.679374
vt 0.639920 0.773375
vt 0.760146 0.000000
vt 0.744039 0.099759
vt 0.744525 0.001274
vt 0.766857 0.100470
vt 0.774858 0.002862
vt 0.540376 0.576495
vt 0.537012 0.483396
vt 0.662123 0.195606
vt 0.666802 0.292376
vt 0.647091 0.194449
vt 0.644358 0.292196
vt 0.612472 0.582213
vt 0.608941 0.680337
vt 0.754909 0.200199
vt 0.755771 0.099117
vt 0.547398 0.671994
vt 0.549209 0.576361
vt 0.663246 0.098223
vt 0.655416 0.194194
vt 0.619374 0.483148
vt 0.621306 0.582258
vt 0.759719 0.300590
vt 0.747053 0.200803
vt 0.767421 0.299776
vt 0.762325 0.200220
vt 0.568268 0.766643
vt 0.542952 0.672534
vt 0.678793 0.000000
vt 0.666644 0.098954
vt 0.659068 0.097856
vt 0.614927 0.482647
vt 0.639920 0.385963
vt 0.763699 0.300268
vt 0.774858 0.398105
vt 0.691433 0.491821
vt 0.678793 0.394271
vt 0.695438 0.395963
vt 0.701295 0.490196
vt 0.708557 0.393879
vt 0.848865 0.722345
vt 0.848539 0.642329
vt 0.866181 0.720659
vt 0.588303 0.388851
vt 0.581209 0.489479
vt 0.573698 0.391157
vt 0.604016 0.389727
vt 0.592204 0.488595
vt 0.758477 0.488320
vt 0.758543 0.398105
vt 0.775878 0.400776
vt 0.689328 0.589343
vt 0.678916 0.491393
vt 0.697704 0.589300
vt 0.834467 0.558104
vt 0.835424 0.642932
vt 0.588831 0.589708
vt 0.596737 0.589627
vt 0.604016 0.489311
vt 0.744039 0.580038
vt 0.745349 0.487012
vt 0.694779 0.688378
vt 0.698144 0.688356
vt 0.704321 0.588771
vt 0.845440 0.480840
vt 0.843287 0.558450
vt 0.593224 0.689784
vt 0.581464 0.589969
vt 0.596964 0.689992
vt 0.755723 0.667396
vt 0.752868 0.580120
vt 0.708557 0.786584
vt 0.690549 0.688741
vt 0.841013 0.480176
vt 0.866181 0.398105
vt 0.592689 0.787247
vt 0.600966 0.689705
vt 0.775878 0.759337
vt 0.751292 0.667876
vt 0.339365 0.102304
vt 0.342951 0.002958
vt 0.359449 0.005645
vt 0.625305 0.844591
vt 0.608941 0.782666
vt 0.623656 0.776083
vt 0.638414 0.782290
vt 0.727287 0.396218
vt 0.725026 0.295682
vt 0.744039 0.393400
vt 0.515635 0.778659
vt 0.503201 0.853438
vt 0.499098 0.776328
vt 0.326835 0.101194
vt 0.332166 0.000000
vt 0.325565 0.200268
vt 0.655593 0.986397
vt 0.658947 0.915568
vt 0.667633 0.988848
vt 0.645889 0.992650
vt 0.650875 0.913582
vt 0.711853 0.195526
vt 0.712308 0.296893
vt 0.986657 0.081106
vt 0.984225 0.001301
vt 0.996596 0.000000
vt 0.318633 0.099644
vt 0.334584 0.299066
vt 0.333994 0.200273
vt 0.663538 0.837100
vt 0.393660 0.469306
vt 0.397900 0.528121
vt 0.389565 0.526892
vt 0.719596 0.096240
vt 0.720412 0.195453
vt 0.989358 0.167079
vt 0.978350 0.082330
vt 0.327590 0.300333
vt 0.320012 0.200426
vt 0.359449 0.395736
vt 0.330360 0.299686
vt 0.666838 0.746992
vt 0.667633 0.838060
vt 0.660263 0.838297
vt 0.715298 0.095654
vt 0.744039 0.000000
vt 0.993571 0.166505
vt 0.988895 0.261955
vt 0.996596 0.167875
vt 0.471075 0.393635
vt 0.477835 0.310150
vt 0.492615 0.315992
vt 0.884615 0.493719
vt 0.866181 0.402747
vt 0.882135 0.403065
vt 0.892267 0.398105
vt 0.324564 0.910413
vt 0.330412 0.833118
vt 0.340177 0.906837
vt 0.871694 0.393185
vt 0.887683 0.292582
vt 0.887683 0.393319
vt 0.868129 0.292254
vt 0.861700 0.391525
vt 0.461742 0.469605
vt 0.459815 0.390078
vt 0.876358 0.590225
vt 0.872620 0.493505
vt 0.889527 0.589532
vt 0.892267 0.490985
vt 0.332323 0.763538
vt 0.318633 0.834991
vt 0.877111 0.192245
vt 0.875662 0.292455
vt 0.455362 0.472983
vt 0.450338 0.394162
vt 0.467605 0.546669
vt 0.469309 0.471489
vt 0.879135 0.687744
vt 0.884395 0.590549
vt 0.350133 0.898919
vt 0.344254 0.830866
vt 0.358113 0.899285
vt 0.877594 0.092676
vt 0.885164 0.192145
vt 0.870956 0.093395
vt 0.872069 0.192945
vt 0.492614 0.623583
vt 0.463809 0.546117
vt 0.879856 0.786997
vt 0.875055 0.687687
vt 0.350462 0.544967
vt 0.354108 0.471725
vt 0.354108 0.546040
vt 0.340177 0.830333
vt 0.358113 0.762759
vt 0.873505 0.092620
vt 0.876425 0.000000
vt 0.460607 0.548152
vt 0.929272 0.683243
vt 0.930309 0.610667
vt 0.945449 0.612447
vt 0.484040 0.879115
vt 0.495980 0.951980
vt 0.480720 0.951062
vt 0.663699 0.746992
vt 0.663634 0.651629
vt 0.678346 0.743854
vt 0.515635 0.849453
vt 0.529059 0.780873
vt 0.529059 0.854617
vt 0.449408 0.317036
vt 0.436915 0.402885
vt 0.434227 0.318165
vt 0.903508 0.492563
vt 0.902939 0.398105
vt 0.917793 0.401029
vt 0.921189 0.750539
vt 0.917793 0.682526
vt 0.493883 0.797025
vt 0.495517 0.879699
vt 0.657091 0.561296
vt 0.652556 0.653277
vt 0.651597 0.558860
vt 0.644358 0.650420
vt 0.447003 0.495152
vt 0.448332 0.402151
vt 0.896945 0.581353
vt 0.892267 0.491078
vt 0.927595 0.815766
vt 0.928896 0.750642
vt 0.492076 0.713386
vt 0.486193 0.796592
vt 0.667216 0.468163
vt 0.664514 0.560760
vt 0.663455 0.468333
vt 0.445525 0.587916
vt 0.439352 0.495689
vt 0.907527 0.672511
vt 0.904486 0.581778
vt 0.945449 0.885925
vt 0.923702 0.815949
vt 0.482631 0.623583
vt 0.495980 0.713389
vt 0.678346 0.384799
vt 0.660691 0.466771
vt 0.449408 0.587874
vt 0.437197 0.684677
vt 0.917793 0.752846
vt 0.903704 0.672398
vt 0.786537 0.492874
vt 0.780832 0.398109
vt 0.794974 0.398105
vt 0.793675 0.495220
vt 0.804414 0.402597
vt 0.951636 0.095219
vt 0.946680 0.000000
vt 0.960800 0.001904
vt 0.927066 0.360234
vt 0.929756 0.274441
vt 0.941000 0.360769
vt 0.810793 0.903630
vt 0.815256 0.834364
vt 0.825165 0.902247
vt 0.951569 0.951271
vt 0.955951 0.858034
vt 0.965503 0.948753
vt 0.786163 0.591787
vt 0.775878 0.493513
vt 0.793309 0.591484
vt 0.953743 0.182504
vt 0.941000 0.094175
vt 0.927374 0.181598
vt 0.919244 0.273431
vt 0.817920 0.763866
vt 0.804414 0.834673
vt 0.945449 0.859550
vt 0.958654 0.775489
vt 0.784489 0.689713
vt 0.957174 0.276235
vt 0.941800 0.184969
vt 0.946629 0.182319
vt 0.923711 0.088109
vt 0.934420 0.182154
vt 0.922260 0.183288
vt 0.920138 0.087572
vt 0.961921 0.685996
vt 0.951623 0.776001
vt 0.804414 0.783859
vt 0.780866 0.690130
vt 0.786919 0.690241
vt 0.960800 0.276519
vt 0.953582 0.357742
vt 0.941000 0.000000
vt 0.496241 0.462879
vt 0.496241 0.545167
vt 0.492615 0.463495
vt 0.959579 0.610667
vt 0.965503 0.685550
vt 0.138563 0.000000
vt 0.225764 0.000000
vt 0.100931 0.000127
vt 0.064675 0.000000
vt 0.279996 0.000000
vt 0.764947 0.993852
vt 0.411972 0.710100
vt 0.975075 0.390295
vt 0.949283 0.401819
vt 0.407943 0.246196
vt 0.729506 0.765181
vt 0.899659 0.919051
vt 0.865947 0.723046
vt 0.858232 0.722345
vt 0.354007 0.471725
vt 0.567305 0.846040
vt 0.614244 0.849689
vt 0.636404 0.849689
vt 0.515635 0.855371
vt 0.644358 0.916873
vt 0.397900 0.470207
vt 0.340177 0.762759
vt 0.881734 0.687651
vt 0.519019 0.776328
vt 0.798092 0.592629
vt 0.825165 0.763949
vt 0.954722 0.277632
vt 0.917540 0.088379
s 1
usemtl tree_material
f 1/1/1 12/2/2 6/3/3
f 8/4/4 1/5/1 2/6/5
f 9/7/6 2/8/5 3/9/7
f 10/10/8 3/9/7 4/11/9
f 11/12/10 4/13/9 5/14/11
f 6/3/3 11/15/10 5/16/11
f 13/17/12 12/2/2 7/18/13
f 14/19/14 7/20/13 8/4/4
f 9/7/6 14/21/14 8/22/4
f 10/10/8 15/23/15 9/7/6
f 11/12/10 16/24/16 10/25/8
f 18/26/17 11/15/10 12/2/2
f 13/17/12 24/27/18 18/26/17
f 14/19/14 19/28/19 13/29/12
f 21/30/20 14/21/14 15/23/15
f 22/31/21 15/23/15 16/32/16
f 23/33/22 16/24/16 17/34/23
f 18/26/17 23/35/22 17/36/23
f 25/37/24 24/27/18 19/38/19
f 26/39/25 19/28/19 20/40/26
f 27/41/27 20/42/26 21/30/20
f 22/31/21 27/41/27 21/30/20
f 23/33/22 28/43/28 22/44/21
f 24/27/18 29/45/29 23/35/22
f 31/46/30 30/47/31 25/48/24
f 26/49/25 31/50/30 25/51/24
f 27/52/27 32/53/32 26/54/25
f 28/55/28 33/56/33 27/52/27
f 35/57/34 28/58/28 29/59/29
f 36/60/35 29/61/29 30/47/31
f 43/62/36 42/63/37 37/64/38
f 44/65/39 37/66/38 38/67/40
f 39/68/41 44/69/39 38/70/40
f 40/71/42 45/72/43 39/68/41
f 41/73/44 46/74/45 40/75/42
f 48/76/46 41/77/44 42/63/37
f 43/62/36 54/78/47 48/76/46
f 44/65/39 49/79/48 43/80/36
f 45/72/43 50/81/49 44/69/39
f 52/82/50 45/72/43 46/83/45
f 53/84/51 46/74/45 47/85/52
f 54/78/47 47/86/52 48/76/46
f 55/87/53 54/78/47 49/88/48
f 56/89/54 49/79/48 50/90/49
f 51/91/55 56/92/54 50/81/49
f 52/82/50 57/93/56 51/91/55
f 53/84/51 58/94/57 52/95/50
f 60/96/58 53/97/51 54/78/47
f 55/87/53 66/98/59 60/96/58
f 56/89/54 61/99/60 55/100/53
f 57/101/56 62/102/61 56/103/54
f 58/104/57 63/105/61 57/93/56
f 59/106/62 64/107/63 58/94/57
f 60/108/58 65/109/64 59/110/62
f 73/111/65 72/112/66 67/113/67
f 74/114/68 67/115/67 68/116/69
f 69/117/70 74/114/68 68/116/69
f 70/118/71 75/119/72 69/120/70
f 71/121/73 76/122/74 70/123/71
f 78/124/75 71/121/73 72/125/66
f 73/111/65 84/126/76 78/127/75
f 74/114/68 79/128/77 73/129/65
f 81/130/78 74/114/68 75/131/72
f 82/132/79 75/119/72 76/133/74
f 83/134/80 76/135/74 77/136/81
f 78/137/75 83/134/80 77/136/81
f 85/138/82 84/126/76 79/139/77
f 86/140/83 79/128/77 80/141/84
f 81/130/78 86/140/83 80/141/84
f 82/132/79 87/142/85 81/143/78
f 83/134/80 88/144/86 82/145/79
f 90/146/87 83/147/80 84/148/76
f 85/138/82 96/149/88 90/150/87
f 86/151/83 91/152/89 85/153/82
f 87/154/85 92/152/90 86/151/83
f 88/155/86 93/156/91 87/142/85
f 89/157/92 94/158/93 88/144/86
f 90/159/87 95/158/94 89/157/92
f 103/160/95 102/161/96 97/162/97
f 104/163/98 97/162/97 98/164/99
f 99/165/100 104/166/98 98/167/99
f 100/168/101 105/169/102 99/170/100
f 101/171/103 106/172/104 100/168/101
f 108/173/105 101/174/103 102/175/96
f 103/160/95 114/176/106 108/177/105
f 104/163/98 109/178/107 103/160/95
f 111/179/108 104/166/98 105/180/102
f 112/181/109 105/169/102 106/172/104
f 113/182/110 106/172/104 107/183/111
f 108/173/105 113/184/110 107/185/111
f 115/186/112 114/176/106 109/178/107
f 116/187/113 109/178/107 110/188/114
f 111/179/108 116/189/113 110/190/114
f 112/181/109 117/191/115 111/192/108
f 113/182/110 118/193/116 112/181/109
f 120/194/117 113/184/110 114/195/106
f 115/186/112 126/196/118 120/197/117
f 116/187/113 121/196/119 115/186/112
f 117/198/115 122/199/120 116/189/113
f 118/193/116 123/200/121 117/191/115
f 119/201/122 124/200/123 118/193/116
f 120/194/117 125/202/124 119/203/122
f 133/204/125 132/205/126 127/206/127
f 134/207/128 127/208/127 128/209/129
f 129/210/130 134/207/128 128/209/129
f 130/211/131 135/212/132 129/213/130
f 131/214/133 136/215/134 130/216/131
f 138/217/135 131/214/133 132/218/126
f 133/204/125 144/219/136 138/220/135
f 134/207/128 139/221/137 133/222/125
f 141/223/138 134/207/128 135/224/132
f 142/225/139 135/212/132 136/226/134
f 143/227/140 136/215/134 137/228/141
f 138/217/135 143/227/140 137/228/141
f 145/229/142 144/219/136 139/230/137
f 146/231/143 139/221/137 140/232/144
f 141/223/138 146/231/143 140/232/144
f 142/225/139 147/233/145 141/234/138
f 143/227/140 148/235/146 142/236/139
f 150/237/147 143/227/140 144/238/136
f 145/229/142 156/239/148 150/240/147
f 146/231/143 151/241/149 145/242/142
f 147/243/145 152/241/150 146/231/143
f 148/244/146 153/245/151 147/233/145
f 149/246/152 154/247/153 148/235/146
f 150/237/147 155/247/154 149/246/152
f 163/248/155 162/249/156 157/250/157
f 164/251/158 157/250/157 158/252/159
f 159/253/160 164/254/158 158/255/159
f 160/256/161 165/257/162 159/258/160
f 161/259/163 166/260/164 160/256/161
f 168/261/165 161/262/163 162/263/156
f 163/248/155 174/264/166 168/265/165
f 164/251/158 169/266/167 163/248/155
f 171/267/168 164/254/158 165/268/162
f 172/269/169 165/268/162 166/270/164
f 173/271/170 166/272/164 167/273/171
f 168/261/165 173/274/170 167/275/171
f 175/276/172 174/264/166 169/266/167
f 176/277/173 169/266/167 170/278/174
f 171/267/168 176/279/173 170/280/174
f 172/269/169 177/281/175 171/267/168
f 173/271/170 178/282/176 172/283/169
f 180/284/177 173/274/170 174/285/166
f 175/276/172 186/286/178 180/287/177
f 176/288/173 181/289/179 175/290/172
f 177/281/175 182/291/180 176/279/173
f 178/292/176 183/291/181 177/281/175
f 179/293/182 184/294/183 178/282/176
f 180/284/177 185/295/184 179/296/182
f 193/297/185 192/298/186 187/299/187
f 194/300/188 187/299/187 188/301/189
f 189/302/190 194/303/188 188/304/189
f 190/305/191 195/306/192 189/307/190
f 191/308/193 196/309/194 190/305/191
f 198/310/195 191/311/193 192/312/186
f 193/297/185 204/313/196 198/314/195
f 194/300/188 199/315/197 193/297/185
f 201/316/198 194/303/188 195/317/192
f 202/318/199 195/306/192 196/309/194
f 203/319/200 196/309/194 197/320/201
f 198/310/195 203/321/200 197/322/201
f 205/323/202 204/313/196 199/315/197
f 206/324/203 199/315/197 200/325/204
f 201/316/198 206/326/203 200/327/204
f 202/318/199 207/328/205 201/329/198
f 203/319/200 208/330/206 202/318/199
f 210/331/207 203/321/200 204/332/196
f 205/323/202 216/333/208 210/334/207
f 206/324/203 211/333/209 205/323/202
f 207/335/205 212/336/210 206/326/203
f 208/337/206 213/338/211 207/339/205
f 209/340/212 214/341/213 208/330/206
f 210/331/207 215/342/214 209/343/212
f 223/344/215 222/345/216 217/346/217
f 224/347/218 217/348/217 218/349/219
f 219/350/220 224/347/218 218/349/219
f 220/351/221 225/352/222 219/353/220
f 221/354/223 226/355/224 220/356/221
f 228/357/225 221/354/223 222/358/216
f 223/344/215 234/359/226 228/360/225
f 224/347/218 229/361/227 223/362/215
f 231/363/228 224/347/218 225/364/222
f 232/365/229 225/352/222 226/366/224
f 233/367/230 226/355/224 227/368/231
f 228/357/225 233/367/230 227/368/231
f 235/369/232 234/359/226 229/370/227
f 236/371/233 229/361/227 230/372/234
f 231/363/228 236/371/233 230/372/234
f 232/365/229 237/373/235 231/374/228
f 233/367/230 238/375/236 232/376/229
f 240/377/237 233/367/230 234/378/226
f 235/369/232 246/379/238 240/380/237
f 236/371/233 241/381/239 235/382/232
f 237/383/235 242/381/240 236/371/233
f 238/384/236 243/385/241 237/373/235
f 239/386/242 244/387/243 238/375/236
f 240/377/237 245/387/244 239/386/242
f 253/388/245 252/389/246 247/390/247
f 254/391/248 247/390/247 248/392/249
f 249/393/250 254/394/248 248/395/249
f 250/396/251 255/397/252 249/398/250
f 251/399/253 256/400/254 250/396/251
f 258/401/255 251/402/253 252/403/246
f 253/388/245 264/404/256 258/405/255
f 254/391/248 259/406/257 253/388/245
f 261/407/258 254/394/248 255/408/252
f 262/409/259 255/397/252 256/400/254
f 263/410/260 256/400/254 257/411/261
f 258/401/255 263/412/260 257/413/261
f 265/414/262 264/404/256 259/406/257
f 266/415/263 259/406/257 260/416/264
f 261/407/258 266/417/263 260/418/264
f 262/409/259 267/419/265 261/420/258
f 263/410/260 268/421/266 262/409/259
f 270/422/267 263/412/260 264/423/256
f 265/414/262 276/424/268 270/425/267
f 266/415/263 271/424/269 265/414/262
f 267/426/265 272/427/270 266/417/263
f 268/421/266 273/428/271 267/419/265
f 269/429/272 274/428/273 268/421/266
f 270/422/267 275/430/274 269/431/272
f 283/432/275 282/433/276 277/434/277
f 284/435/278 277/436/277 278/437/279
f 279/438/280 284/435/278 278/437/279
f 280/439/281 285/440/282 279/441/280
f 281/442/283 286/443/284 280/444/281
f 288/445/285 281/446/283 282/433/276
f 283/432/275 294/447/286 288/445/285
f 284/448/278 289/449/287 283/450/275
f 285/451/282 290/452/288 284/448/278
f 292/453/289 285/440/282 286/454/284
f 293/455/290 286/456/284 287/457/291
f 294/447/286 287/458/291 288/445/285
f 295/459/292 294/447/286 289/460/287
f 296/461/293 289/449/287 290/452/288
f 297/462/294 290/463/288 291/464/295
f 292/453/289 297/465/294 291/466/295
f 293/455/290 298/467/296 292/468/289
f 294/447/286 299/469/297 293/470/290
f 295/459/292 306/471/298 300/472/299
f 296/461/293 301/473/300 295/474/292
f 297/475/294 302/473/301 296/461/293
f 298/476/296 303/477/302 297/465/294
f 299/478/297 304/479/303 298/467/296
f 300/480/299 305/479/304 299/478/297
f 313/481/305 312/482/306 307/483/307
f 314/484/308 307/485/307 308/486/309
f 309/487/310 314/484/308 308/486/309
f 310/488/311 315/489/312 309/490/310
f 311/491/313 316/492/314 310/493/311
f 318/494/315 311/491/313 312/495/306
f 313/481/305 324/496/316 318/497/315
f 314/484/308 319/498/317 313/499/305
f 321/500/318 314/484/308 315/501/312
f 322/502/319 315/489/312 316/503/314
f 323/504/320 316/492/314 317/505/321
f 318/497/315 323/506/320 317/507/321
f 325/508/322 324/496/316 319/509/317
f 326/510/323 319/498/317 320/511/324
f 321/500/318 326/510/323 320/511/324
f 322/512/319 327/513/325 321/514/318
f 323/504/320 328/515/326 322/516/319
f 330/517/327 323/504/320 324/518/316
f 325/508/322 336/519/328 330/520/327
f 326/510/323 331/521/329 325/522/322
f 327/523/325 332/524/330 326/525/323
f 328/526/326 333/527/331 327/513/325
f 329/528/332 334/529/333 328/515/326
f 330/520/327 335/519/334 329/530/332
f 343/531/335 342/532/336 337/533/337
f 344/534/338 337/535/337 338/536/339
f 339/537/340 344/538/338 338/539/339
f 340/540/341 345/541/342 339/542/340
f 341/543/343 346/544/344 340/545/341
f 348/546/345 341/547/343 342/548/336
f 343/531/335 354/549/346 348/550/345
f 344/534/338 349/551/347 343/552/335
f 351/553/348 344/538/338 345/554/342
f 352/555/349 345/554/342 346/556/344
f 353/557/350 346/544/344 347/558/351
f 348/546/345 353/559/350 347/560/351
f 355/561/352 354/549/346 349/562/347
f 356/563/353 349/551/347 350/564/354
f 351/553/348 356/565/353 350/566/354
f 352/555/349 357/567/355 351/553/348
f 353/557/350 358/568/356 352/569/349
f 360/570/357 353/559/350 354/571/346
f 355/561/352 366/572/358 360/573/357
f 356/563/353 361/574/359 355/575/352
f 357/567/355 362/576/360 356/565/353
f 358/577/356 363/576/361 357/567/355
f 359/578/362 364/579/363 358/568/356
f 360/570/357 365/580/364 359/581/362
f 373/582/365 372/583/366 367/584/367
f 374/585/368 367/584/367 368/586/369
f 375/587/370 368/588/369 369/589/371
f 370/590/372 375/591/370 369/592/371
f 371/593/373 376/594/374 370/595/372
f 372/596/366 377/597/375 371/598/373
f 373/582/365 384/599/376 378/600/377
f 374/585/368 379/601/378 373/582/365
f 381/602/379 374/603/368 375/587/370
f 382/604/380 375/591/370 376/605/374
f 383/606/381 376/594/374 377/607/375
f 378/608/377 383/609/381 377/597/375
f 385/610/382 384/599/376 379/601/378
f 386/611/383 379/612/378 380/613/384
f 381/602/379 386/611/383 380/613/384
f 382/604/380 387/614/385 381/615/379
f 383/616/381 388/617/386 382/604/380
f 390/618/387 383/609/381 384/619/376
f 385/610/382 396/620/388 390/621/387
f 386/622/383 391/620/389 385/610/382
f 387/623/385 392/624/390 386/611/383
f 388/617/386 393/625/391 387/614/385
f 389/626/392 394/627/393 388/628/386
f 390/618/387 395/629/394 389/630/392
f 1/1/1 7/18/13 12/2/2
f 8/4/4 7/20/13 1/5/1
f 9/7/6 8/22/4 2/8/5
f 10/10/8 9/7/6 3/9/7
f 11/12/10 10/25/8 4/13/9
f 6/3/3 12/2/2 11/15/10
f 13/17/12 18/26/17 12/2/2
f 14/19/14 13/29/12 7/20/13
f 9/7/6 15/23/15 14/21/14
f 10/10/8 16/32/16 15/23/15
f 11/12/10 17/34/23 16/24/16
f 18/26/17 17/36/23 11/15/10
f 13/17/12 19/38/19 24/27/18
f 14/19/14 20/40/26 19/28/19
f 21/30/20 20/42/26 14/21/14
f 22/31/21 21/30/20 15/23/15
f 23/33/22 22/44/21 16/24/16
f 18/26/17 24/27/18 23/35/22
f 25/37/24 30/631/31 24/27/18
f 26/39/25 25/632/24 19/28/19
f 27/41/27 26/633/25 20/42/26
f 22/31/21 28/634/28 27/41/27
f 23/33/22 29/635/29 28/43/28
f 24/27/18 30/631/31 29/45/29
f 31/46/30 36/60/35 30/47/31
f 26/49/25 32/636/32 31/50/30
f 27/52/27 33/56/33 32/53/32
f 28/55/28 34/637/395 33/56/33
f 35/57/34 34/638/395 28/58/28
f 36/60/35 35/639/34 29/61/29
f 43/62/36 48/76/46 42/63/37
f 44/65/39 43/80/36 37/66/38
f 39/68/41 45/72/43 44/69/39
f 40/71/42 46/83/45 45/72/43
f 41/73/44 47/85/52 46/74/45
f 48/76/46 47/86/52 41/77/44
f 43/62/36 49/88/48 54/78/47
f 44/65/39 50/90/49 49/79/48
f 45/72/43 51/91/55 50/81/49
f 52/82/50 51/91/55 45/72/43
f 53/84/51 52/95/50 46/74/45
f 54/78/47 53/97/51 47/86/52
f 55/87/53 60/96/58 54/78/47
f 56/89/54 55/100/53 49/79/48
f 51/91/55 57/93/56 56/92/54
f 52/82/50 58/104/57 57/93/56
f 53/84/51 59/106/62 58/94/57
f 60/96/58 59/640/62 53/97/51
f 55/87/53 61/98/60 66/98/59
f 56/89/54 62/99/61 61/99/60
f 57/101/56 63/102/61 62/102/61
f 58/104/57 64/105/63 63/105/61
f 59/106/62 65/107/64 64/107/63
f 60/108/58 66/109/59 65/109/64
f 73/111/65 78/127/75 72/112/66
f 74/114/68 73/129/65 67/115/67
f 69/117/70 75/131/72 74/114/68
f 70/118/71 76/133/74 75/119/72
f 71/121/73 77/641/81 76/122/74
f 78/124/75 77/641/81 71/121/73
f 73/111/65 79/139/77 84/126/76
f 74/114/68 80/141/84 79/128/77
f 81/130/78 80/141/84 74/114/68
f 82/132/79 81/143/78 75/119/72
f 83/134/80 82/145/79 76/135/74
f 78/137/75 84/642/76 83/134/80
f 85/138/82 90/150/87 84/126/76
f 86/140/83 85/643/82 79/128/77
f 81/130/78 87/644/85 86/140/83
f 82/132/79 88/155/86 87/142/85
f 83/134/80 89/157/92 88/144/86
f 90/146/87 89/645/92 83/147/80
f 85/138/82 91/149/89 96/149/88
f 86/151/83 92/152/90 91/152/89
f 87/154/85 93/152/91 92/152/90
f 88/155/86 94/156/93 93/156/91
f 89/157/92 95/158/94 94/158/93
f 90/159/87 96/158/88 95/158/94
f 103/160/95 108/177/105 102/161/96
f 104/163/98 103/160/95 97/162/97
f 99/165/100 105/180/102 104/166/98
f 100/168/101 106/172/104 105/169/102
f 101/171/103 107/183/111 106/172/104
f 108/173/105 107/185/111 101/174/103
f 103/160/95 109/178/107 114/176/106
f 104/163/98 110/188/114 109/178/107
f 111/179/108 110/190/114 104/166/98
f 112/181/109 111/192/108 105/169/102
f 113/182/110 112/181/109 106/172/104
f 108/173/105 114/195/106 113/184/110
f 115/186/112 120/197/117 114/176/106
f 116/187/113 115/186/112 109/178/107
f 111/179/108 117/198/115 116/189/113
f 112/181/109 118/193/116 117/191/115
f 113/182/110 119/201/122 118/193/116
f 120/194/117 119/203/122 113/184/110
f 115/186/112 121/196/119 126/196/118
f 116/187/113 122/196/120 121/196/119
f 117/198/115 123/199/121 122/199/120
f 118/193/116 124/200/123 123/200/121
f 119/201/122 125/200/124 124/200/123
f 120/194/117 126/202/118 125/202/124
f 133/204/125 138/220/135 132/205/126
f 134/207/128 133/222/125 127/208/127
f 129/210/130 135/224/132 134/207/128
f 130/211/131 136/226/134 135/212/132
f 131/214/133 137/228/141 136/215/134
f 138/217/135 137/228/141 131/214/133
f 133/204/125 139/230/137 144/219/136
f 134/207/128 140/232/144 139/221/137
f 141/223/138 140/232/144 134/207/128
f 142/225/139 141/234/138 135/212/132
f 143/227/140 142/236/139 136/215/134
f 138/217/135 144/238/136 143/227/140
f 145/229/142 150/240/147 144/219/136
f 146/231/143 145/242/142 139/221/137
f 141/223/138 147/243/145 146/231/143
f 142/225/139 148/244/146 147/233/145
f 143/227/140 149/246/152 148/235/146
f 150/237/147 149/246/152 143/227/140
f 145/229/142 151/239/149 156/239/148
f 146/231/143 152/241/150 151/241/149
f 147/243/145 153/241/151 152/241/150
f 148/244/146 154/245/153 153/245/151
f 149/246/152 155/247/154 154/247/153
f 150/237/147 156/247/148 155/247/154
f 163/248/155 168/265/165 162/249/156
f 164/251/158 163/248/155 157/250/157
f 159/253/160 165/268/162 164/254/158
f 160/256/161 166/260/164 165/257/162
f 161/259/163 167/646/171 166/260/164
f 168/261/165 167/275/171 161/262/163
f 163/248/155 169/266/167 174/264/166
f 164/251/158 170/278/174 169/266/167
f 171/267/168 170/280/174 164/254/158
f 172/269/169 171/267/168 165/268/162
f 173/271/170 172/283/169 166/272/164
f 168/261/165 174/285/166 173/274/170
f 175/276/172 180/287/177 174/264/166
f 176/277/173 175/276/172 169/266/167
f 171/267/168 177/281/175 176/279/173
f 172/269/169 178/292/176 177/281/175
f 173/271/170 179/293/182 178/282/176
f 180/284/177 179/296/182 173/274/170
f 175/276/172 181/286/179 186/286/178
f 176/288/173 182/289/180 181/289/179
f 177/281/175 183/291/181 182/291/180
f 178/292/176 184/291/183 183/291/181
f 179/293/182 185/294/184 184/294/183
f 180/284/177 186/295/178 185/295/184
f 193/297/185 198/314/195 192/298/186
f 194/300/188 193/297/185 187/299/187
f 189/302/190 195/317/192 194/303/188
f 190/305/191 196/309/194 195/306/192
f 191/308/193 197/320/201 196/309/194
f 198/310/195 197/322/201 191/311/193
f 193/297/185 199/315/197 204/313/196
f 194/300/188 200/325/204 199/315/197
f 201/316/198 200/327/204 194/303/188
f 202/318/199 201/329/198 195/306/192
f 203/319/200 202/318/199 196/309/194
f 198/310/195 204/332/196 203/321/200
f 205/323/202 210/334/207 204/313/196
f 206/324/203 205/323/202 199/315/197
f 201/316/198 207/335/205 206/326/203
f 202/318/199 208/330/206 207/328/205
f 203/319/200 209/340/212 208/330/206
f 210/331/207 209/343/212 203/321/200
f 205/323/202 211/333/209 216/333/208
f 206/324/203 212/333/210 211/333/209
f 207/335/205 213/336/211 212/336/210
f 208/337/206 214/338/213 213/338/211
f 209/340/212 215/341/214 214/341/213
f 210/331/207 216/342/208 215/342/214
f 223/344/215 228/360/225 222/345/216
f 224/347/218 223/362/215 217/348/217
f 219/350/220 225/364/222 224/347/218
f 220/351/221 226/366/224 225/352/222
f 221/354/223 227/368/231 226/355/224
f 228/357/225 227/368/231 221/354/223
f 223/344/215 229/370/227 234/359/226
f 224/347/218 230/372/234 229/361/227
f 231/363/228 230/372/234 224/347/218
f 232/365/229 231/374/228 225/352/222
f 233/367/230 232/376/229 226/355/224
f 228/357/225 234/378/226 233/367/230
f 235/369/232 240/380/237 234/359/226
f 236/371/233 235/382/232 229/361/227
f 231/363/228 237/383/235 236/371/233
f 232/365/229 238/384/236 237/373/235
f 233/367/230 239/386/242 238/375/236
f 240/377/237 239/386/242 233/367/230
f 235/369/232 241/379/239 246/379/238
f 236/371/233 242/381/240 241/381/239
f 237/383/235 243/381/241 242/381/240
f 238/384/236 244/385/243 243/385/241
f 239/386/242 245/387/244 244/387/243
f 240/377/237 246/387/238 245/387/244
f 253/388/245 258/405/255 252/389/246
f 254/391/248 253/388/245 247/390/247
f 249/393/250 255/408/252 254/394/248
f 250/396/251 256/400/254 255/397/252
f 251/399/253 257/411/261 256/400/254
f 258/401/255 257/413/261 251/402/253
f 253/388/245 259/406/257 264/404/256
f 254/391/248 260/416/264 259/406/257
f 261/407/258 260/418/264 254/394/248
f 262/409/259 261/420/258 255/397/252
f 263/410/260 262/409/259 256/400/254
f 258/401/255 264/423/256 263/412/260
f 265/414/262 270/425/267 264/404/256
f 266/415/263 265/414/262 259/406/257
f 261/407/258 267/426/265 266/417/263
f 262/409/259 268/421/266 267/419/265
f 263/410/260 269/429/272 268/421/266
f 270/422/267 269/431/272 263/412/260
f 265/414/262 271/424/269 276/424/268
f 266/415/263 272/424/270 271/424/269
f 267/426/265 273/427/271 272/427/270
f 268/421/266 274/428/273 273/428/271
f 269/429/272 275/428/274 274/428/273
f 270/422/267 276/430/268 275/430/274
f 283/432/275 288/445/285 282/433/276
f 284/435/278 283/647/275 277/436/277
f 279/438/280 285/648/282 284/435/278
f 280/439/281 286/454/284 285/440/282
f 281/442/283 287/649/291 286/443/284
f 288/445/285 287/458/291 281/446/283
f 283/432/275 289/460/287 294/447/286
f 284/448/278 290/452/288 289/449/287
f 285/451/282 291/650/295 290/452/288
f 292/453/289 291/466/295 285/440/282
f 293/455/290 292/468/289 286/456/284
f 294/447/286 293/470/290 287/458/291
f 295/459/292 300/472/299 294/447/286
f 296/461/293 295/474/292 289/449/287
f 297/462/294 296/651/293 290/463/288
f 292/453/289 298/476/296 297/465/294
f 293/455/290 299/478/297 298/467/296
f 294/447/286 300/472/299 299/469/297
f 295/459/292 301/471/300 306/471/298
f 296/461/293 302/473/301 301/473/300
f 297/475/294 303/473/302 302/473/301
f 298/476/296 304/477/303 303/477/302
f 299/478/297 305/479/304 304/479/303
f 300/480/299 306/479/298 305/479/304
f 313/481/305 318/497/315 312/482/306
f 314/484/308 313/499/305 307/485/307
f 309/487/310 315/501/312 314/484/308
f 310/488/311 316/503/314 315/489/312
f 311/491/313 317/505/321 316/492/314
f 318/494/315 317/505/321 311/491/313
f 313/481/305 319/509/317 324/496/316
f 314/484/308 320/511/324 319/498/317
f 321/500/318 320/511/324 314/484/308
f 322/502/319 321/652/318 315/489/312
f 323/504/320 322/516/319 316/492/314
f 318/497/315 324/496/316 323/506/320
f 325/508/322 330/520/327 324/496/316
f 326/510/323 325/522/322 319/498/317
f 321/500/318 327/653/325 326/510/323
f 322/512/319 328/526/326 327/513/325
f 323/504/320 329/528/332 328/515/326
f 330/517/327 329/528/332 323/504/320
f 325/508/322 331/519/329 336/519/328
f 326/510/323 332/521/330 331/521/329
f 327/523/325 333/524/331 332/524/330
f 328/526/326 334/527/333 333/527/331
f 329/528/332 335/529/334 334/529/333
f 330/520/327 336/519/328 335/519/334
f 343/531/335 348/550/345 342/532/336
f 344/534/338 343/552/335 337/535/337
f 339/537/340 345/554/342 344/538/338
f 340/540/341 346/654/344 345/541/342
f 341/543/343 347/558/351 346/544/344
f 348/546/345 347/560/351 341/547/343
f 343/531/335 349/562/347 354/549/346
f 344/534/338 350/564/354 349/551/347
f 351/553/348 350/566/354 344/538/338
f 352/555/349 351/553/348 345/554/342
f 353/557/350 352/569/349 346/544/344
f 348/546/345 354/571/346 353/559/350
f 355/561/352 360/573/357 354/549/346
f 356/563/353 355/575/352 349/551/347
f 351/553/348 357/567/355 356/565/353
f 352/555/349 358/577/356 357/567/355
f 353/557/350 359/578/362 358/568/356
f 360/570/357 359/581/362 353/559/350
f 355/561/352 361/572/359 366/572/358
f 356/563/353 362/574/360 361/574/359
f 357/567/355 363/576/361 362/576/360
f 358/577/356 364/576/363 363/576/361
f 359/578/362 365/579/364 364/579/363
f 360/570/357 366/580/358 365/580/364
f 373/582/365 378/600/377 372/583/366
f 374/585/368 373/582/365 367/584/367
f 375/587/370 374/603/368 368/588/369
f 370/590/372 376/605/374 375/591/370
f 371/593/373 377/607/375 376/594/374
f 372/596/366 378/608/377 377/597/375
f 373/582/365 379/601/378 384/599/376
f 374/585/368 380/655/384 379/601/378
f 381/602/379 380/613/384 374/603/368
f 382/604/380 381/615/379 375/591/370
f 383/606/381 382/656/380 376/594/374
f 378/608/377 384/619/376 383/609/381
f 385/610/382 390/621/387 384/599/376
f 386/611/383 385/657/382 379/612/378
f 381/602/379 387/623/385 386/611/383
f 382/604/380 388/617/386 387/614/385
f 383/616/381 389/658/392 388/617/386
f 390/618/387 389/630/392 383/609/381
f 385/610/382 391/620/389 396/620/388
f 386/622/383 392/620/390 391/620/389
f 387/623/385 393/624/391 392/624/390
f 388/617/386 394/625/393 393/625/391
f 389/626/392 395/627/394 394/627/393
f 390/618/387 396/629/388 395/629/394
